<svg width="1068" height="337" viewBox="0 0 1068 337" fill="none" xmlns="http://www.w3.org/2000/svg">
<path d="M462.227 132.5H442.318C441.955 129.924 441.212 127.636 440.091 125.636C438.97 123.606 437.53 121.879 435.773 120.455C434.015 119.03 431.985 117.939 429.682 117.182C427.409 116.424 424.939 116.045 422.273 116.045C417.455 116.045 413.258 117.242 409.682 119.636C406.106 122 403.333 125.455 401.364 130C399.394 134.515 398.409 140 398.409 146.455C398.409 153.091 399.394 158.667 401.364 163.182C403.364 167.697 406.152 171.106 409.727 173.409C413.303 175.712 417.439 176.864 422.136 176.864C424.773 176.864 427.212 176.515 429.455 175.818C431.727 175.121 433.742 174.106 435.5 172.773C437.258 171.409 438.712 169.758 439.864 167.818C441.045 165.879 441.864 163.667 442.318 161.182L462.227 161.273C461.712 165.545 460.424 169.667 458.364 173.636C456.333 177.576 453.591 181.106 450.136 184.227C446.712 187.318 442.621 189.773 437.864 191.591C433.136 193.379 427.788 194.273 421.818 194.273C413.515 194.273 406.091 192.394 399.545 188.636C393.03 184.879 387.879 179.439 384.091 172.318C380.333 165.197 378.455 156.576 378.455 146.455C378.455 136.303 380.364 127.667 384.182 120.545C388 113.424 393.182 108 399.727 104.273C406.273 100.515 413.636 98.6364 421.818 98.6364C427.212 98.6364 432.212 99.3939 436.818 100.909C441.455 102.424 445.561 104.636 449.136 107.545C452.712 110.424 455.621 113.955 457.864 118.136C460.136 122.318 461.591 127.106 462.227 132.5ZM495.886 194.318C491.432 194.318 487.462 193.545 483.977 192C480.492 190.424 477.735 188.106 475.705 185.045C473.705 181.955 472.705 178.106 472.705 173.5C472.705 169.621 473.417 166.364 474.841 163.727C476.265 161.091 478.205 158.97 480.659 157.364C483.114 155.758 485.902 154.545 489.023 153.727C492.174 152.909 495.477 152.333 498.932 152C502.992 151.576 506.265 151.182 508.75 150.818C511.235 150.424 513.038 149.848 514.159 149.091C515.28 148.333 515.841 147.212 515.841 145.727V145.455C515.841 142.576 514.932 140.348 513.114 138.773C511.326 137.197 508.78 136.409 505.477 136.409C501.992 136.409 499.22 137.182 497.159 138.727C495.098 140.242 493.735 142.152 493.068 144.455L475.159 143C476.068 138.758 477.856 135.091 480.523 132C483.189 128.879 486.629 126.485 490.841 124.818C495.083 123.121 499.992 122.273 505.568 122.273C509.447 122.273 513.159 122.727 516.705 123.636C520.28 124.545 523.447 125.955 526.205 127.864C528.992 129.773 531.189 132.227 532.795 135.227C534.402 138.197 535.205 141.758 535.205 145.909V193H516.841V183.318H516.295C515.174 185.5 513.674 187.424 511.795 189.091C509.917 190.727 507.659 192.015 505.023 192.955C502.386 193.864 499.341 194.318 495.886 194.318ZM501.432 180.955C504.28 180.955 506.795 180.394 508.977 179.273C511.159 178.121 512.871 176.576 514.114 174.636C515.356 172.697 515.977 170.5 515.977 168.045V160.636C515.371 161.03 514.538 161.394 513.477 161.727C512.447 162.03 511.28 162.318 509.977 162.591C508.674 162.833 507.371 163.061 506.068 163.273C504.765 163.455 503.583 163.621 502.523 163.773C500.25 164.106 498.265 164.636 496.568 165.364C494.871 166.091 493.553 167.076 492.614 168.318C491.674 169.53 491.205 171.045 491.205 172.864C491.205 175.5 492.159 177.515 494.068 178.909C496.008 180.273 498.462 180.955 501.432 180.955ZM569.591 99.9091V193H550.227V99.9091H569.591ZM605.011 194.318C600.557 194.318 596.587 193.545 593.102 192C589.617 190.424 586.86 188.106 584.83 185.045C582.83 181.955 581.83 178.106 581.83 173.5C581.83 169.621 582.542 166.364 583.966 163.727C585.39 161.091 587.33 158.97 589.784 157.364C592.239 155.758 595.027 154.545 598.148 153.727C601.299 152.909 604.602 152.333 608.057 152C612.117 151.576 615.39 151.182 617.875 150.818C620.36 150.424 622.163 149.848 623.284 149.091C624.405 148.333 624.966 147.212 624.966 145.727V145.455C624.966 142.576 624.057 140.348 622.239 138.773C620.451 137.197 617.905 136.409 614.602 136.409C611.117 136.409 608.345 137.182 606.284 138.727C604.223 140.242 602.86 142.152 602.193 144.455L584.284 143C585.193 138.758 586.981 135.091 589.648 132C592.314 128.879 595.754 126.485 599.966 124.818C604.208 123.121 609.117 122.273 614.693 122.273C618.572 122.273 622.284 122.727 625.83 123.636C629.405 124.545 632.572 125.955 635.33 127.864C638.117 129.773 640.314 132.227 641.92 135.227C643.527 138.197 644.33 141.758 644.33 145.909V193H625.966V183.318H625.42C624.299 185.5 622.799 187.424 620.92 189.091C619.042 190.727 616.784 192.015 614.148 192.955C611.511 193.864 608.466 194.318 605.011 194.318ZM610.557 180.955C613.405 180.955 615.92 180.394 618.102 179.273C620.284 178.121 621.996 176.576 623.239 174.636C624.481 172.697 625.102 170.5 625.102 168.045V160.636C624.496 161.03 623.663 161.394 622.602 161.727C621.572 162.03 620.405 162.318 619.102 162.591C617.799 162.833 616.496 163.061 615.193 163.273C613.89 163.455 612.708 163.621 611.648 163.773C609.375 164.106 607.39 164.636 605.693 165.364C603.996 166.091 602.678 167.076 601.739 168.318C600.799 169.53 600.33 171.045 600.33 172.864C600.33 175.5 601.284 177.515 603.193 178.909C605.133 180.273 607.587 180.955 610.557 180.955ZM690.807 220.636C684.534 220.636 679.155 219.773 674.67 218.045C670.216 216.348 666.67 214.03 664.034 211.091C661.398 208.152 659.686 204.848 658.898 201.182L676.807 198.773C677.352 200.167 678.216 201.47 679.398 202.682C680.58 203.894 682.14 204.864 684.08 205.591C686.049 206.348 688.443 206.727 691.261 206.727C695.473 206.727 698.943 205.697 701.67 203.636C704.428 201.606 705.807 198.197 705.807 193.409V180.636H704.989C704.14 182.576 702.867 184.409 701.17 186.136C699.473 187.864 697.292 189.273 694.625 190.364C691.958 191.455 688.777 192 685.08 192C679.837 192 675.064 190.788 670.761 188.364C666.489 185.909 663.08 182.167 660.534 177.136C658.019 172.076 656.761 165.682 656.761 157.955C656.761 150.045 658.049 143.439 660.625 138.136C663.201 132.833 666.625 128.864 670.898 126.227C675.201 123.591 679.913 122.273 685.034 122.273C688.943 122.273 692.216 122.939 694.852 124.273C697.489 125.576 699.61 127.212 701.216 129.182C702.852 131.121 704.11 133.03 704.989 134.909H705.716V123.182H724.943V193.682C724.943 199.621 723.489 204.591 720.58 208.591C717.67 212.591 713.64 215.591 708.489 217.591C703.367 219.621 697.473 220.636 690.807 220.636ZM691.216 177.455C694.337 177.455 696.973 176.682 699.125 175.136C701.307 173.561 702.973 171.318 704.125 168.409C705.307 165.47 705.898 161.955 705.898 157.864C705.898 153.773 705.322 150.227 704.17 147.227C703.019 144.197 701.352 141.848 699.17 140.182C696.989 138.515 694.337 137.682 691.216 137.682C688.034 137.682 685.352 138.545 683.17 140.273C680.989 141.97 679.337 144.333 678.216 147.364C677.095 150.394 676.534 153.894 676.534 157.864C676.534 161.894 677.095 165.379 678.216 168.318C679.367 171.227 681.019 173.485 683.17 175.091C685.352 176.667 688.034 177.455 691.216 177.455ZM771.898 194.364C764.837 194.364 758.731 192.864 753.58 189.864C748.458 186.833 744.504 182.621 741.716 177.227C738.928 171.803 737.534 165.515 737.534 158.364C737.534 151.152 738.928 144.848 741.716 139.455C744.504 134.03 748.458 129.818 753.58 126.818C758.731 123.788 764.837 122.273 771.898 122.273C778.958 122.273 785.049 123.788 790.17 126.818C795.322 129.818 799.292 134.03 802.08 139.455C804.867 144.848 806.261 151.152 806.261 158.364C806.261 165.515 804.867 171.803 802.08 177.227C799.292 182.621 795.322 186.833 790.17 189.864C785.049 192.864 778.958 194.364 771.898 194.364ZM771.989 179.364C775.201 179.364 777.883 178.455 780.034 176.636C782.186 174.788 783.807 172.273 784.898 169.091C786.019 165.909 786.58 162.288 786.58 158.227C786.58 154.167 786.019 150.545 784.898 147.364C783.807 144.182 782.186 141.667 780.034 139.818C777.883 137.97 775.201 137.045 771.989 137.045C768.746 137.045 766.019 137.97 763.807 139.818C761.625 141.667 759.973 144.182 758.852 147.364C757.761 150.545 757.216 154.167 757.216 158.227C757.216 162.288 757.761 165.909 758.852 169.091C759.973 172.273 761.625 174.788 763.807 176.636C766.019 178.455 768.746 179.364 771.989 179.364ZM818.852 219.182V123.182H837.943V134.909H838.807C839.655 133.03 840.883 131.121 842.489 129.182C844.125 127.212 846.246 125.576 848.852 124.273C851.489 122.939 854.761 122.273 858.67 122.273C863.761 122.273 868.458 123.606 872.761 126.273C877.064 128.909 880.504 132.894 883.08 138.227C885.655 143.53 886.943 150.182 886.943 158.182C886.943 165.97 885.686 172.545 883.17 177.909C880.686 183.242 877.292 187.288 872.989 190.045C868.716 192.773 863.928 194.136 858.625 194.136C854.867 194.136 851.67 193.515 849.034 192.273C846.428 191.03 844.292 189.47 842.625 187.591C840.958 185.682 839.686 183.758 838.807 181.818H838.216V219.182H818.852ZM837.807 158.091C837.807 162.242 838.383 165.864 839.534 168.955C840.686 172.045 842.352 174.455 844.534 176.182C846.716 177.879 849.367 178.727 852.489 178.727C855.64 178.727 858.307 177.864 860.489 176.136C862.67 174.379 864.322 171.955 865.443 168.864C866.595 165.742 867.17 162.152 867.17 158.091C867.17 154.061 866.61 150.515 865.489 147.455C864.367 144.394 862.716 142 860.534 140.273C858.352 138.545 855.67 137.682 852.489 137.682C849.337 137.682 846.67 138.515 844.489 140.182C842.337 141.848 840.686 144.212 839.534 147.273C838.383 150.333 837.807 153.939 837.807 158.091ZM944.625 163.273V123.182H963.989V193H945.398V180.318H944.67C943.095 184.409 940.473 187.697 936.807 190.182C933.17 192.667 928.731 193.909 923.489 193.909C918.822 193.909 914.716 192.848 911.17 190.727C907.625 188.606 904.852 185.591 902.852 181.682C900.883 177.773 899.883 173.091 899.852 167.636V123.182H919.216V164.182C919.246 168.303 920.352 171.561 922.534 173.955C924.716 176.348 927.64 177.545 931.307 177.545C933.64 177.545 935.822 177.015 937.852 175.955C939.883 174.864 941.519 173.258 942.761 171.136C944.034 169.015 944.655 166.394 944.625 163.273ZM1037.57 143.091L1019.84 144.182C1019.54 142.667 1018.89 141.303 1017.89 140.091C1016.89 138.848 1015.57 137.864 1013.93 137.136C1012.33 136.379 1010.4 136 1008.16 136C1005.16 136 1002.63 136.636 1000.57 137.909C998.508 139.152 997.477 140.818 997.477 142.909C997.477 144.576 998.144 145.985 999.477 147.136C1000.81 148.288 1003.1 149.212 1006.34 149.909L1018.98 152.455C1025.77 153.848 1030.83 156.091 1034.16 159.182C1037.49 162.273 1039.16 166.333 1039.16 171.364C1039.16 175.939 1037.81 179.955 1035.11 183.409C1032.45 186.864 1028.78 189.561 1024.11 191.5C1019.48 193.409 1014.13 194.364 1008.07 194.364C998.826 194.364 991.462 192.439 985.977 188.591C980.523 184.712 977.326 179.439 976.386 172.773L995.432 171.773C996.008 174.591 997.402 176.742 999.614 178.227C1001.83 179.682 1004.66 180.409 1008.11 180.409C1011.51 180.409 1014.23 179.758 1016.3 178.455C1018.39 177.121 1019.45 175.409 1019.48 173.318C1019.45 171.561 1018.7 170.121 1017.25 169C1015.8 167.848 1013.55 166.97 1010.52 166.364L998.432 163.955C991.614 162.591 986.538 160.227 983.205 156.864C979.902 153.5 978.25 149.212 978.25 144C978.25 139.515 979.462 135.652 981.886 132.409C984.341 129.167 987.78 126.667 992.205 124.909C996.659 123.152 1001.87 122.273 1007.84 122.273C1016.66 122.273 1023.6 124.136 1028.66 127.864C1033.75 131.591 1036.72 136.667 1037.57 143.091Z" fill="#B4B4B4"/>
<path d="M400.196 240.094H393.974C393.861 239.289 393.629 238.574 393.278 237.949C392.928 237.314 392.478 236.775 391.929 236.33C391.38 235.884 390.745 235.544 390.026 235.307C389.315 235.07 388.544 234.952 387.71 234.952C386.205 234.952 384.893 235.326 383.776 236.074C382.658 236.812 381.792 237.892 381.176 239.312C380.561 240.723 380.253 242.437 380.253 244.455C380.253 246.528 380.561 248.271 381.176 249.682C381.801 251.093 382.672 252.158 383.79 252.878C384.907 253.598 386.2 253.957 387.668 253.957C388.491 253.957 389.254 253.848 389.955 253.631C390.665 253.413 391.295 253.096 391.844 252.679C392.393 252.253 392.848 251.737 393.207 251.131C393.577 250.525 393.832 249.833 393.974 249.057L400.196 249.085C400.035 250.42 399.633 251.708 398.989 252.949C398.354 254.18 397.497 255.283 396.418 256.259C395.348 257.224 394.069 257.991 392.582 258.56C391.105 259.118 389.434 259.398 387.568 259.398C384.973 259.398 382.653 258.811 380.608 257.636C378.572 256.462 376.962 254.762 375.778 252.537C374.604 250.312 374.017 247.617 374.017 244.455C374.017 241.282 374.614 238.583 375.807 236.358C377 234.133 378.619 232.437 380.665 231.273C382.71 230.098 385.011 229.511 387.568 229.511C389.254 229.511 390.816 229.748 392.256 230.222C393.705 230.695 394.988 231.386 396.105 232.295C397.223 233.195 398.132 234.298 398.832 235.605C399.543 236.912 399.997 238.408 400.196 240.094ZM414.351 259.426C412.144 259.426 410.236 258.957 408.626 258.02C407.026 257.073 405.79 255.757 404.919 254.071C404.048 252.376 403.612 250.411 403.612 248.176C403.612 245.922 404.048 243.953 404.919 242.267C405.79 240.572 407.026 239.256 408.626 238.318C410.236 237.371 412.144 236.898 414.351 236.898C416.557 236.898 418.461 237.371 420.061 238.318C421.671 239.256 422.911 240.572 423.783 242.267C424.654 243.953 425.089 245.922 425.089 248.176C425.089 250.411 424.654 252.376 423.783 254.071C422.911 255.757 421.671 257.073 420.061 258.02C418.461 258.957 416.557 259.426 414.351 259.426ZM414.379 254.739C415.383 254.739 416.221 254.455 416.893 253.886C417.566 253.309 418.072 252.523 418.413 251.528C418.764 250.534 418.939 249.402 418.939 248.134C418.939 246.865 418.764 245.733 418.413 244.739C418.072 243.744 417.566 242.958 416.893 242.381C416.221 241.803 415.383 241.514 414.379 241.514C413.366 241.514 412.514 241.803 411.822 242.381C411.141 242.958 410.625 243.744 410.274 244.739C409.933 245.733 409.763 246.865 409.763 248.134C409.763 249.402 409.933 250.534 410.274 251.528C410.625 252.523 411.141 253.309 411.822 253.886C412.514 254.455 413.366 254.739 414.379 254.739ZM435.075 246.386V259H429.024V237.182H434.791V241.031H435.047C435.53 239.762 436.339 238.759 437.476 238.02C438.612 237.272 439.99 236.898 441.609 236.898C443.125 236.898 444.446 237.229 445.572 237.892C446.699 238.555 447.575 239.502 448.2 240.733C448.825 241.955 449.138 243.413 449.138 245.108V259H443.087V246.188C443.096 244.852 442.755 243.811 442.064 243.062C441.373 242.305 440.421 241.926 439.209 241.926C438.394 241.926 437.675 242.101 437.05 242.452C436.434 242.802 435.951 243.313 435.601 243.986C435.26 244.649 435.085 245.449 435.075 246.386ZM465.512 237.182V241.727H452.373V237.182H465.512ZM455.356 231.955H461.407V252.295C461.407 252.854 461.492 253.29 461.663 253.602C461.833 253.905 462.07 254.118 462.373 254.241C462.685 254.365 463.045 254.426 463.452 254.426C463.737 254.426 464.021 254.402 464.305 254.355C464.589 254.298 464.807 254.256 464.958 254.227L465.91 258.73C465.607 258.825 465.181 258.934 464.631 259.057C464.082 259.189 463.415 259.27 462.629 259.298C461.17 259.355 459.892 259.161 458.793 258.716C457.704 258.271 456.857 257.58 456.251 256.642C455.645 255.705 455.346 254.521 455.356 253.091V231.955ZM469.454 259V237.182H475.32V240.989H475.548C475.945 239.634 476.613 238.612 477.55 237.92C478.488 237.22 479.567 236.869 480.789 236.869C481.092 236.869 481.419 236.888 481.769 236.926C482.12 236.964 482.427 237.016 482.692 237.082V242.452C482.408 242.366 482.015 242.291 481.513 242.224C481.012 242.158 480.552 242.125 480.136 242.125C479.246 242.125 478.45 242.319 477.749 242.707C477.058 243.086 476.509 243.616 476.102 244.298C475.704 244.98 475.505 245.766 475.505 246.656V259H469.454ZM485.821 259V237.182H491.872V259H485.821ZM488.861 234.369C487.961 234.369 487.189 234.071 486.545 233.474C485.911 232.868 485.594 232.144 485.594 231.301C485.594 230.468 485.911 229.753 486.545 229.156C487.189 228.55 487.961 228.247 488.861 228.247C489.76 228.247 490.527 228.55 491.162 229.156C491.806 229.753 492.128 230.468 492.128 231.301C492.128 232.144 491.806 232.868 491.162 233.474C490.527 234.071 489.76 234.369 488.861 234.369ZM496.833 259V229.909H502.884V240.847H503.069C503.334 240.259 503.718 239.663 504.219 239.057C504.731 238.441 505.394 237.93 506.208 237.523C507.032 237.106 508.055 236.898 509.276 236.898C510.867 236.898 512.335 237.314 513.68 238.148C515.024 238.972 516.099 240.217 516.904 241.884C517.709 243.541 518.112 245.619 518.112 248.119C518.112 250.553 517.719 252.608 516.933 254.284C516.156 255.951 515.095 257.215 513.751 258.077C512.415 258.929 510.919 259.355 509.262 259.355C508.088 259.355 507.089 259.161 506.265 258.773C505.451 258.384 504.783 257.897 504.262 257.31C503.741 256.713 503.344 256.112 503.069 255.506H502.799V259H496.833ZM502.756 248.091C502.756 249.388 502.936 250.52 503.296 251.486C503.656 252.452 504.177 253.205 504.859 253.744C505.54 254.275 506.369 254.54 507.344 254.54C508.329 254.54 509.163 254.27 509.844 253.73C510.526 253.181 511.042 252.423 511.393 251.457C511.753 250.482 511.933 249.36 511.933 248.091C511.933 246.831 511.757 245.723 511.407 244.767C511.057 243.811 510.54 243.062 509.859 242.523C509.177 241.983 508.339 241.713 507.344 241.713C506.36 241.713 505.526 241.973 504.844 242.494C504.172 243.015 503.656 243.754 503.296 244.71C502.936 245.667 502.756 246.794 502.756 248.091ZM536.141 249.71V237.182H542.192V259H536.382V255.037H536.155C535.662 256.315 534.843 257.343 533.697 258.119C532.561 258.896 531.174 259.284 529.536 259.284C528.077 259.284 526.794 258.953 525.686 258.29C524.578 257.627 523.712 256.685 523.087 255.463C522.471 254.241 522.159 252.778 522.149 251.074V237.182H528.2V249.994C528.21 251.282 528.555 252.3 529.237 253.048C529.919 253.796 530.833 254.17 531.979 254.17C532.708 254.17 533.39 254.005 534.024 253.673C534.659 253.332 535.17 252.83 535.558 252.168C535.956 251.505 536.15 250.686 536.141 249.71ZM558.637 237.182V241.727H545.498V237.182H558.637ZM548.481 231.955H554.532V252.295C554.532 252.854 554.617 253.29 554.788 253.602C554.958 253.905 555.195 254.118 555.498 254.241C555.81 254.365 556.17 254.426 556.577 254.426C556.862 254.426 557.146 254.402 557.43 254.355C557.714 254.298 557.932 254.256 558.083 254.227L559.035 258.73C558.732 258.825 558.306 258.934 557.756 259.057C557.207 259.189 556.54 259.27 555.754 259.298C554.295 259.355 553.017 259.161 551.918 258.716C550.829 258.271 549.982 257.58 549.376 256.642C548.77 255.705 548.471 254.521 548.481 253.091V231.955ZM562.579 259V237.182H568.63V259H562.579ZM565.619 234.369C564.719 234.369 563.947 234.071 563.303 233.474C562.669 232.868 562.352 232.144 562.352 231.301C562.352 230.468 562.669 229.753 563.303 229.156C563.947 228.55 564.719 228.247 565.619 228.247C566.518 228.247 567.285 228.55 567.92 229.156C568.564 229.753 568.886 230.468 568.886 231.301C568.886 232.144 568.564 232.868 567.92 233.474C567.285 234.071 566.518 234.369 565.619 234.369ZM579.528 246.386V259H573.477V237.182H579.244V241.031H579.5C579.983 239.762 580.793 238.759 581.929 238.02C583.065 237.272 584.443 236.898 586.062 236.898C587.578 236.898 588.899 237.229 590.026 237.892C591.152 238.555 592.028 239.502 592.653 240.733C593.278 241.955 593.591 243.413 593.591 245.108V259H587.54V246.188C587.549 244.852 587.208 243.811 586.517 243.062C585.826 242.305 584.874 241.926 583.662 241.926C582.848 241.926 582.128 242.101 581.503 242.452C580.887 242.802 580.404 243.313 580.054 243.986C579.713 244.649 579.538 245.449 579.528 246.386ZM608.19 267.636C606.229 267.636 604.549 267.366 603.147 266.827C601.755 266.296 600.647 265.572 599.823 264.653C598.999 263.735 598.464 262.703 598.218 261.557L603.815 260.804C603.985 261.24 604.255 261.647 604.624 262.026C604.994 262.404 605.481 262.707 606.087 262.935C606.703 263.171 607.451 263.29 608.332 263.29C609.648 263.29 610.732 262.968 611.585 262.324C612.446 261.689 612.877 260.624 612.877 259.128V255.136H612.621C612.356 255.742 611.959 256.315 611.428 256.855C610.898 257.395 610.216 257.835 609.383 258.176C608.549 258.517 607.555 258.688 606.4 258.688C604.762 258.688 603.27 258.309 601.925 257.551C600.59 256.784 599.525 255.615 598.729 254.043C597.943 252.461 597.55 250.463 597.55 248.048C597.55 245.577 597.953 243.512 598.758 241.855C599.563 240.198 600.633 238.957 601.968 238.134C603.313 237.31 604.785 236.898 606.386 236.898C607.607 236.898 608.63 237.106 609.454 237.523C610.278 237.93 610.941 238.441 611.442 239.057C611.954 239.663 612.347 240.259 612.621 240.847H612.849V237.182H618.857V259.213C618.857 261.069 618.403 262.622 617.494 263.872C616.585 265.122 615.325 266.06 613.715 266.685C612.115 267.319 610.273 267.636 608.19 267.636ZM608.317 254.142C609.293 254.142 610.117 253.901 610.789 253.418C611.471 252.925 611.992 252.224 612.352 251.315C612.721 250.397 612.906 249.298 612.906 248.02C612.906 246.741 612.726 245.634 612.366 244.696C612.006 243.749 611.485 243.015 610.803 242.494C610.121 241.973 609.293 241.713 608.317 241.713C607.323 241.713 606.485 241.983 605.803 242.523C605.121 243.053 604.605 243.792 604.255 244.739C603.905 245.686 603.729 246.779 603.729 248.02C603.729 249.279 603.905 250.368 604.255 251.287C604.615 252.196 605.131 252.902 605.803 253.403C606.485 253.896 607.323 254.142 608.317 254.142Z" fill="#74C0FC"/>
<mask id="mask0_41_54" style="mask-type:luminance" maskUnits="userSpaceOnUse" x="67" y="9" width="251" height="328">
<path d="M318 9H67V337H318V9Z" fill="white"/>
</mask>
<g mask="url(#mask0_41_54)">
<path d="M200.88 9.04811C208.817 8.05664 227.604 22.5785 238.94 35.0827C239.081 35.2383 239.288 35.3164 239.497 35.2973C247.127 34.6028 251.467 34.4353 258.306 35.2665C258.6 35.3021 258.885 35.1407 258.998 34.8678C260.371 31.5572 260.173 30.3128 268.456 22.3544C277.112 14.038 288.43 9.38077 294.422 11.3767C300.414 13.3727 302.078 24.3503 301.413 38.6546C300.753 52.8253 299.523 57.8832 296.829 66.6806C296.78 66.8398 296.793 67.0145 296.862 67.1656C301.025 76.1761 298.422 86.5943 299.082 90.8816C299.748 95.2061 316.558 102.704 317.724 112.837C318.89 122.971 298.417 135.79 296.419 136.788C294.535 137.73 288.926 138.714 283.706 138.782C283.248 138.788 282.923 139.236 283.063 139.672C288.114 155.374 287.733 173.535 286.1 181.697C284.445 189.967 279.172 206.139 272.563 214.816C272.489 214.913 272.443 215.031 272.43 215.152C268.177 253.791 268.695 266.936 273.707 278.001C273.756 278.11 273.837 278.205 273.935 278.273C284.212 285.387 288.927 289.528 292.092 297.462L296.556 310.528C296.667 310.852 296.505 311.212 296.192 311.353C253.255 330.64 229.491 335.824 185.696 329.748C185.612 329.736 185.523 329.741 185.44 329.761C146.921 339.413 110.644 339.696 91.0252 327.401C71.3846 315.093 66.3913 301.454 67.057 290.809C67.7184 280.234 73.2924 266.926 86.109 256.747C86.2691 256.62 86.3645 256.426 86.3648 256.221C86.4243 218.644 104.408 181.63 127.643 158.078C150.869 134.538 154.828 134.489 175.047 114.697C175.172 114.574 175.248 114.398 175.251 114.223C175.558 95.1436 178.18 85.8305 186.132 71.4356C186.196 71.3192 186.226 71.1841 186.214 71.0515C183.553 40.9234 192.908 10.0438 200.88 9.04811Z" fill="#B4B4B4"/>
<path d="M184.816 216.283L190.634 192.677C190.826 191.897 192.009 192.053 191.983 192.856C191.674 202.404 191.281 219.218 192.224 222.281C193.556 226.606 212.198 286.484 215.527 290.809C218.856 295.133 222.836 300.13 225.181 306.443C226.229 308.68 227.128 309.59 229.078 310.713C229.142 310.749 229.213 310.775 229.285 310.789C234.083 311.694 236.801 311.669 241.075 310.906C241.472 310.836 241.711 310.428 241.584 310.046L240.123 305.665C239.87 304.909 240.92 304.43 241.327 305.115L244.325 310.161C244.428 310.334 244.605 310.453 244.806 310.479C247.094 310.774 248.557 310.663 250.872 309.701C251.209 309.56 251.36 309.168 251.213 308.833L249.355 304.614C249.054 303.931 249.933 303.347 250.447 303.887L252.765 306.325C253.205 306.789 253.959 306.427 253.834 305.799C252.587 299.545 248.839 295.442 237.385 288.612C237.245 288.529 237.143 288.415 237.095 288.259C236.226 285.486 227.528 257.229 227.844 238.581C228.155 220.23 238.328 212.702 241.857 195.426C242.006 194.696 243.074 194.678 243.187 195.414C244.686 205.134 243.388 213.793 237.861 228.149C237.635 228.737 238.269 229.283 238.807 228.952C258.41 216.881 273.827 194.14 275.447 187.019C277.106 179.728 279.32 157.76 271.868 136.359C271.815 136.207 271.708 136.079 271.567 136C265.417 132.546 259.811 130.98 248.684 129.313C247.955 129.204 247.925 128.242 248.653 128.131C260.78 126.302 273.668 129.411 292.616 132.669C293.41 132.806 293.698 131.712 292.941 131.436L274.809 124.83C274.044 124.551 274.355 123.405 275.157 123.551L289.429 126.143C297.104 127.518 300.469 126.703 304.19 122.468C304.475 122.143 304.363 121.638 303.978 121.443C299.841 119.342 298.421 117.471 298.088 113.235C298.085 113.192 298.086 113.148 298.092 113.105C298.512 109.689 299.915 108.241 303.952 107.236C304.555 107.087 304.696 106.244 304.174 105.908C295.54 100.359 288.763 90.0666 288.763 87.555C288.763 84.8937 290.427 82.8978 291.426 73.9162C292.413 65.0368 268.348 39.9009 242.39 40.294C241.943 40.3008 241.639 40.7448 241.781 41.1675C244.064 47.942 244.356 50.5971 243.237 54.3533C243.08 54.879 242.388 54.9715 242.078 54.5189C230.883 38.1724 213.687 20.9725 205.873 18.6951C198.001 16.4008 187.585 53.7184 199.34 76.2446C199.575 76.6957 199.252 77.2426 198.742 77.2426H194.57C194.352 77.2426 194.145 77.3524 194.021 77.5327C185.307 90.2249 184.419 100.187 185.545 119.47C185.559 119.688 185.459 119.907 185.287 120.041C148.746 148.576 129.596 161.485 111.997 193.007C94.442 224.453 95.7865 234.062 95.6873 263.422C95.6864 263.686 95.5284 263.932 95.2866 264.038C90.8119 266.005 89.5336 266.999 84.0345 271.847C78.3754 276.837 73.382 295.798 83.3687 307.774C93.3555 319.75 108.668 327.401 125.979 328.399C143.289 329.397 141.292 329.064 147.95 328.731C154.608 328.399 189.894 318.086 196.219 316.756C202.544 315.425 205.54 315.093 214.528 315.093C223.516 315.093 195.22 285.819 178.243 278.168C163.623 271.58 126.618 265.461 106.564 267.732C105.749 267.824 105.16 266.11 105.918 265.797C123.346 258.616 146.095 258.29 177.578 269.611C177.936 269.74 178.339 269.54 178.451 269.177C185.726 245.556 188.44 232.576 169.901 217.277C159.775 209.628 145.691 212.001 126.61 221.405C125.903 221.753 125.277 220.83 125.887 220.331C147.444 202.712 164.074 201.375 183.743 216.643C184.126 216.941 184.7 216.754 184.816 216.283Z" fill="white"/>
<path d="M290.427 19.6931C294.315 21.3121 292.421 40.9359 289.043 56.0546C288.926 56.5769 288.272 56.7476 287.909 56.3532L285.258 53.4628C285.156 53.3519 285.095 53.2082 285.085 53.058C284.831 49.2834 284.914 46.7653 285.53 43.3923C285.656 42.7027 284.762 42.2683 284.315 42.8088L280.184 47.807C279.955 48.083 279.55 48.1291 279.265 47.9113L270.282 41.0289C270.004 40.8159 269.937 40.4267 270.132 40.1359C276.594 30.5037 286.503 18.0591 290.427 19.6931Z" fill="white"/>
<path d="M202.877 48.3017C203.196 54.3599 204.806 61.7764 209.858 68.403C210.159 68.7989 210.772 68.7162 211.001 68.2742C212.238 65.8862 213.786 64.5777 216.885 62.9378C217.228 62.7564 217.35 62.3238 217.155 61.9891C215.637 59.391 215.045 57.4895 214.894 54.2959C214.871 53.8201 215.351 53.4875 215.794 53.6644L220.298 55.4651C220.805 55.6675 221.324 55.212 221.173 54.6884C217.853 43.2061 208.749 27.3921 205.54 28.6749C202.211 30.0056 202.544 41.9812 202.877 48.3017Z" fill="#B4B4B4"/>
<path d="M250.876 88.1631C250.05 87.9815 247.53 87.3833 246.153 86.557C244.488 85.5591 252.478 83.5631 252.478 83.5631C256.524 82.4055 258.689 82.1733 262.34 82.2305C262.421 82.2318 262.504 82.2484 262.579 82.2797C267.403 84.2743 270.402 88.7479 271.295 95.1575C271.373 95.7104 270.756 96.0863 270.276 95.7996C269.323 95.2314 268.045 94.5408 267.458 94.5408H258.256C258.174 94.5408 258.096 94.5255 258.02 94.4962C254.452 93.1037 253.251 91.4138 251.299 88.4532C251.201 88.3048 251.05 88.201 250.876 88.1631Z" fill="#B4B4B4"/>
<path d="M257.804 89.8836C259.275 89.8836 260.467 88.6921 260.467 87.2223C260.467 85.7525 259.275 84.561 257.804 84.561C256.333 84.561 255.141 85.7525 255.141 87.2223C255.141 88.6921 256.333 89.8836 257.804 89.8836Z" fill="white"/>
<path d="M241.492 240.577C242.615 238.054 256.277 227.491 260.538 224.237C261.007 223.879 261.674 224.264 261.608 224.851C259.31 245.307 263.488 267.956 264.462 271.847C265.46 275.839 265.136 281.093 267.791 283.157C270.445 285.223 280.379 291.736 281.439 293.802C282.481 295.833 284.791 300.007 283.193 302.329C283.136 302.411 283.056 302.476 282.967 302.52C280.524 303.726 279.035 303.817 276.881 303.789C276.616 303.786 276.38 303.625 276.278 303.382L273.728 297.295C273.411 296.539 272.272 296.914 272.467 297.71L273.959 303.809C274.046 304.163 273.832 304.521 273.478 304.609C270.405 305.372 268.056 305.687 262.32 305.467C262.014 305.455 261.756 305.235 261.692 304.937C261.187 302.581 260.602 300.88 257.804 297.462C254.808 293.802 250.48 289.811 248.483 285.819C246.486 281.827 240.161 243.571 241.492 240.577Z" fill="white"/>
</g>
</svg>
