<svg width="665" height="500" viewBox="0 0 665 500" fill="none" xmlns="http://www.w3.org/2000/svg">
<mask id="mask0_2012_152" style="mask-type:luminance" maskUnits="userSpaceOnUse" x="207" y="9" width="251" height="328">
<path d="M458 9H207V337H458V9Z" fill="white"/>
</mask>
<g mask="url(#mask0_2012_152)">
<path d="M340.88 9.04811C348.817 8.05664 367.604 22.5785 378.94 35.0827C379.081 35.2383 379.288 35.3164 379.497 35.2973C387.127 34.6028 391.467 34.4353 398.306 35.2665C398.6 35.3021 398.885 35.1407 398.998 34.8678C400.371 31.5572 400.173 30.3128 408.456 22.3544C417.112 14.038 428.43 9.38077 434.422 11.3767C440.414 13.3727 442.078 24.3503 441.413 38.6546C440.753 52.8253 439.523 57.8832 436.829 66.6806C436.78 66.8398 436.793 67.0145 436.862 67.1656C441.025 76.1761 438.422 86.5943 439.082 90.8816C439.748 95.2061 456.558 102.704 457.724 112.837C458.89 122.971 438.417 135.79 436.419 136.788C434.535 137.73 428.926 138.714 423.706 138.782C423.248 138.788 422.923 139.236 423.063 139.672C428.114 155.374 427.733 173.535 426.1 181.697C424.445 189.967 419.172 206.139 412.563 214.816C412.489 214.913 412.443 215.031 412.43 215.152C408.177 253.791 408.695 266.936 413.707 278.001C413.756 278.11 413.837 278.205 413.935 278.273C424.212 285.387 428.927 289.528 432.092 297.462L436.556 310.528C436.667 310.852 436.505 311.212 436.192 311.353C393.255 330.64 369.491 335.824 325.696 329.748C325.612 329.736 325.523 329.741 325.44 329.761C286.921 339.413 250.644 339.696 231.025 327.401C211.385 315.093 206.391 301.454 207.057 290.809C207.718 280.234 213.292 266.926 226.109 256.747C226.269 256.62 226.365 256.426 226.365 256.221C226.424 218.644 244.408 181.63 267.643 158.078C290.869 134.538 294.828 134.489 315.047 114.697C315.172 114.574 315.248 114.398 315.251 114.223C315.558 95.1436 318.18 85.8305 326.132 71.4356C326.196 71.3192 326.226 71.1841 326.214 71.0515C323.553 40.9234 332.908 10.0438 340.88 9.04811Z" fill="#B4B4B4"/>
<path d="M324.816 216.283L330.634 192.677C330.826 191.897 332.009 192.053 331.983 192.856C331.674 202.404 331.281 219.218 332.224 222.281C333.556 226.606 352.198 286.484 355.527 290.809C358.856 295.133 362.836 300.13 365.181 306.443C366.229 308.68 367.128 309.59 369.078 310.713C369.142 310.749 369.213 310.775 369.285 310.789C374.083 311.694 376.801 311.669 381.075 310.906C381.472 310.836 381.711 310.428 381.584 310.046L380.123 305.665C379.87 304.909 380.92 304.43 381.327 305.115L384.325 310.161C384.428 310.334 384.605 310.453 384.806 310.479C387.094 310.774 388.557 310.663 390.872 309.701C391.209 309.56 391.36 309.168 391.213 308.833L389.355 304.614C389.054 303.931 389.933 303.347 390.447 303.887L392.765 306.325C393.205 306.789 393.959 306.427 393.834 305.799C392.587 299.545 388.839 295.442 377.385 288.612C377.245 288.529 377.143 288.415 377.095 288.259C376.226 285.486 367.528 257.229 367.844 238.581C368.155 220.23 378.328 212.702 381.857 195.426C382.006 194.696 383.074 194.678 383.187 195.414C384.686 205.134 383.388 213.793 377.861 228.149C377.635 228.737 378.269 229.283 378.807 228.952C398.41 216.881 413.827 194.14 415.447 187.019C417.106 179.728 419.32 157.76 411.868 136.359C411.815 136.207 411.708 136.079 411.567 136C405.417 132.546 399.811 130.98 388.684 129.313C387.955 129.204 387.925 128.242 388.653 128.131C400.78 126.302 413.668 129.411 432.616 132.669C433.41 132.806 433.698 131.712 432.941 131.436L414.809 124.83C414.044 124.551 414.355 123.405 415.157 123.551L429.429 126.143C437.104 127.518 440.469 126.703 444.19 122.468C444.475 122.143 444.363 121.638 443.978 121.443C439.841 119.342 438.421 117.471 438.088 113.235C438.085 113.192 438.086 113.148 438.092 113.105C438.512 109.689 439.915 108.241 443.952 107.236C444.555 107.087 444.696 106.244 444.174 105.908C435.54 100.359 428.763 90.0666 428.763 87.555C428.763 84.8937 430.427 82.8978 431.426 73.9162C432.413 65.0368 408.348 39.9009 382.39 40.294C381.943 40.3008 381.639 40.7448 381.781 41.1675C384.064 47.942 384.356 50.5971 383.237 54.3533C383.08 54.879 382.388 54.9715 382.078 54.5189C370.883 38.1724 353.687 20.9725 345.873 18.6951C338.001 16.4008 327.585 53.7184 339.34 76.2446C339.575 76.6957 339.252 77.2426 338.742 77.2426H334.57C334.352 77.2426 334.145 77.3524 334.021 77.5327C325.307 90.2249 324.419 100.187 325.545 119.47C325.559 119.688 325.459 119.907 325.287 120.041C288.746 148.576 269.596 161.485 251.997 193.007C234.442 224.453 235.787 234.062 235.687 263.422C235.686 263.686 235.528 263.932 235.287 264.038C230.812 266.005 229.534 266.999 224.035 271.847C218.375 276.837 213.382 295.798 223.369 307.774C233.356 319.75 248.668 327.401 265.979 328.399C283.289 329.397 281.292 329.064 287.95 328.731C294.608 328.399 329.894 318.086 336.219 316.756C342.544 315.425 345.54 315.093 354.528 315.093C363.516 315.093 335.22 285.819 318.243 278.168C303.623 271.58 266.618 265.461 246.564 267.732C245.749 267.824 245.16 266.11 245.918 265.797C263.346 258.616 286.095 258.29 317.578 269.611C317.936 269.74 318.339 269.54 318.451 269.177C325.726 245.556 328.44 232.576 309.901 217.277C299.775 209.628 285.691 212.001 266.61 221.405C265.903 221.753 265.277 220.83 265.887 220.331C287.444 202.712 304.074 201.375 323.743 216.643C324.126 216.941 324.7 216.754 324.816 216.283Z" fill="white"/>
<path d="M430.427 19.6931C434.315 21.3121 432.421 40.9359 429.043 56.0546C428.926 56.5769 428.272 56.7476 427.909 56.3532L425.258 53.4628C425.156 53.3519 425.095 53.2082 425.085 53.058C424.831 49.2834 424.914 46.7653 425.53 43.3923C425.656 42.7027 424.762 42.2683 424.315 42.8088L420.184 47.807C419.955 48.083 419.55 48.1291 419.265 47.9113L410.282 41.0289C410.004 40.8159 409.937 40.4267 410.132 40.1359C416.594 30.5037 426.503 18.0591 430.427 19.6931Z" fill="white"/>
<path d="M342.877 48.3017C343.196 54.3599 344.806 61.7764 349.858 68.403C350.159 68.7989 350.772 68.7162 351.001 68.2742C352.238 65.8862 353.786 64.5777 356.885 62.9378C357.228 62.7564 357.35 62.3238 357.155 61.9891C355.637 59.391 355.045 57.4895 354.894 54.2959C354.871 53.8201 355.351 53.4875 355.794 53.6644L360.298 55.4651C360.805 55.6675 361.324 55.212 361.173 54.6884C357.853 43.2061 348.749 27.3921 345.54 28.6749C342.211 30.0056 342.544 41.9812 342.877 48.3017Z" fill="#B4B4B4"/>
<path d="M390.876 88.1631C390.05 87.9815 387.53 87.3833 386.153 86.557C384.488 85.5591 392.478 83.5631 392.478 83.5631C396.524 82.4055 398.689 82.1733 402.34 82.2305C402.421 82.2318 402.504 82.2484 402.579 82.2797C407.403 84.2743 410.402 88.7479 411.295 95.1575C411.373 95.7104 410.756 96.0863 410.276 95.7996C409.323 95.2314 408.045 94.5408 407.458 94.5408H398.256C398.174 94.5408 398.096 94.5255 398.02 94.4962C394.452 93.1037 393.251 91.4138 391.299 88.4532C391.201 88.3048 391.05 88.201 390.876 88.1631Z" fill="#B4B4B4"/>
<path d="M397.804 89.8836C399.275 89.8836 400.467 88.6921 400.467 87.2223C400.467 85.7525 399.275 84.561 397.804 84.561C396.333 84.561 395.141 85.7525 395.141 87.2223C395.141 88.6921 396.333 89.8836 397.804 89.8836Z" fill="white"/>
<path d="M381.492 240.577C382.615 238.054 396.277 227.491 400.538 224.237C401.007 223.879 401.674 224.264 401.608 224.851C399.31 245.307 403.488 267.956 404.462 271.847C405.46 275.839 405.136 281.093 407.791 283.157C410.445 285.223 420.379 291.736 421.439 293.802C422.481 295.833 424.791 300.007 423.193 302.329C423.136 302.411 423.056 302.476 422.967 302.52C420.524 303.726 419.035 303.817 416.881 303.789C416.616 303.786 416.38 303.625 416.278 303.382L413.728 297.295C413.411 296.539 412.272 296.914 412.467 297.71L413.959 303.809C414.046 304.163 413.832 304.521 413.478 304.609C410.405 305.372 408.056 305.687 402.32 305.467C402.014 305.455 401.756 305.235 401.692 304.937C401.187 302.581 400.602 300.88 397.804 297.462C394.808 293.802 390.48 289.811 388.483 285.819C386.486 281.827 380.161 243.571 381.492 240.577Z" fill="white"/>
</g>
<path d="M87.6989 372.864H67.7899C67.4269 370.288 66.6839 368 65.5629 366C64.4419 363.97 63.0019 362.243 61.2449 360.819C59.4869 359.394 57.4569 358.303 55.1539 357.546C52.8809 356.788 50.4109 356.409 47.7449 356.409C42.9269 356.409 38.7299 357.606 35.1539 360C31.5779 362.364 28.8049 365.819 26.8359 370.364C24.8659 374.879 23.8809 380.364 23.8809 386.819C23.8809 393.455 24.8659 399.031 26.8359 403.546C28.8359 408.061 31.6239 411.47 35.1989 413.773C38.7749 416.076 42.9109 417.228 47.6079 417.228C50.2449 417.228 52.6839 416.879 54.9269 416.182C57.1989 415.485 59.2139 414.47 60.9719 413.137C62.7299 411.773 64.1839 410.122 65.3359 408.182C66.5169 406.243 67.3359 404.031 67.7899 401.546L87.6989 401.637C87.1839 405.909 85.8959 410.031 83.8359 414C81.8049 417.94 79.0629 421.47 75.6079 424.591C72.1839 427.682 68.0929 430.137 63.3359 431.955C58.6079 433.743 53.2599 434.637 47.2899 434.637C38.9869 434.637 31.5629 432.758 25.0169 429C18.5019 425.243 13.3509 419.803 9.5629 412.682C5.8049 405.561 3.92688 396.94 3.92688 386.819C3.92688 376.667 5.8359 368.031 9.6539 360.909C13.4719 353.788 18.6539 348.364 25.1989 344.637C31.7449 340.879 39.1079 339 47.2899 339C52.6839 339 57.6839 339.757 62.2899 341.273C66.9269 342.788 71.0329 345 74.6079 347.909C78.1839 350.788 81.0929 354.319 83.3359 358.5C85.6079 362.682 87.0629 367.47 87.6989 372.864ZM121.358 434.682C116.904 434.682 112.934 433.909 109.449 432.364C105.964 430.788 103.207 428.47 101.177 425.409C99.1769 422.319 98.1769 418.47 98.1769 413.864C98.1769 409.985 98.8889 406.728 100.313 404.091C101.737 401.455 103.677 399.334 106.131 397.728C108.586 396.122 111.374 394.909 114.495 394.091C117.646 393.273 120.949 392.697 124.404 392.364C128.464 391.94 131.737 391.546 134.222 391.182C136.707 390.788 138.51 390.212 139.631 389.455C140.752 388.697 141.313 387.576 141.313 386.091V385.819C141.313 382.94 140.404 380.712 138.586 379.137C136.798 377.561 134.252 376.773 130.949 376.773C127.464 376.773 124.692 377.546 122.631 379.091C120.57 380.606 119.207 382.516 118.54 384.819L100.631 383.364C101.54 379.122 103.328 375.455 105.995 372.364C108.661 369.243 112.101 366.849 116.313 365.182C120.555 363.485 125.464 362.637 131.04 362.637C134.919 362.637 138.631 363.091 142.177 364C145.752 364.909 148.919 366.319 151.677 368.228C154.464 370.137 156.661 372.591 158.267 375.591C159.874 378.561 160.677 382.122 160.677 386.273V433.364H142.313V423.682H141.767C140.646 425.864 139.146 427.788 137.267 429.455C135.389 431.091 133.131 432.379 130.495 433.319C127.858 434.228 124.813 434.682 121.358 434.682ZM126.904 421.319C129.752 421.319 132.267 420.758 134.449 419.637C136.631 418.485 138.343 416.94 139.586 415C140.828 413.061 141.449 410.864 141.449 408.409V401C140.843 401.394 140.01 401.758 138.949 402.091C137.919 402.394 136.752 402.682 135.449 402.955C134.146 403.197 132.843 403.425 131.54 403.637C130.237 403.819 129.055 403.985 127.995 404.137C125.722 404.47 123.737 405 122.04 405.728C120.343 406.455 119.025 407.44 118.086 408.682C117.146 409.894 116.677 411.409 116.677 413.228C116.677 415.864 117.631 417.879 119.54 419.273C121.48 420.637 123.934 421.319 126.904 421.319ZM195.063 340.273V433.364H175.699V340.273H195.063ZM230.483 434.682C226.029 434.682 222.059 433.909 218.574 432.364C215.089 430.788 212.332 428.47 210.302 425.409C208.302 422.319 207.302 418.47 207.302 413.864C207.302 409.985 208.014 406.728 209.438 404.091C210.862 401.455 212.802 399.334 215.256 397.728C217.711 396.122 220.499 394.909 223.62 394.091C226.771 393.273 230.074 392.697 233.529 392.364C237.589 391.94 240.862 391.546 243.347 391.182C245.832 390.788 247.635 390.212 248.756 389.455C249.877 388.697 250.438 387.576 250.438 386.091V385.819C250.438 382.94 249.529 380.712 247.711 379.137C245.923 377.561 243.377 376.773 240.074 376.773C236.589 376.773 233.817 377.546 231.756 379.091C229.695 380.606 228.332 382.516 227.665 384.819L209.756 383.364C210.665 379.122 212.453 375.455 215.12 372.364C217.786 369.243 221.226 366.849 225.438 365.182C229.68 363.485 234.589 362.637 240.165 362.637C244.044 362.637 247.756 363.091 251.302 364C254.877 364.909 258.044 366.319 260.802 368.228C263.589 370.137 265.786 372.591 267.392 375.591C268.999 378.561 269.802 382.122 269.802 386.273V433.364H251.438V423.682H250.892C249.771 425.864 248.271 427.788 246.392 429.455C244.514 431.091 242.256 432.379 239.62 433.319C236.983 434.228 233.938 434.682 230.483 434.682ZM236.029 421.319C238.877 421.319 241.392 420.758 243.574 419.637C245.756 418.485 247.468 416.94 248.711 415C249.953 413.061 250.574 410.864 250.574 408.409V401C249.968 401.394 249.135 401.758 248.074 402.091C247.044 402.394 245.877 402.682 244.574 402.955C243.271 403.197 241.968 403.425 240.665 403.637C239.362 403.819 238.18 403.985 237.12 404.137C234.847 404.47 232.862 405 231.165 405.728C229.468 406.455 228.15 407.44 227.211 408.682C226.271 409.894 225.802 411.409 225.802 413.228C225.802 415.864 226.756 417.879 228.665 419.273C230.605 420.637 233.059 421.319 236.029 421.319ZM316.279 461C310.006 461 304.627 460.137 300.142 458.409C295.688 456.712 292.142 454.394 289.506 451.455C286.87 448.516 285.158 445.212 284.37 441.546L302.279 439.137C302.824 440.531 303.688 441.834 304.87 443.046C306.052 444.258 307.612 445.228 309.552 445.955C311.521 446.712 313.915 447.091 316.733 447.091C320.945 447.091 324.415 446.061 327.142 444C329.9 441.97 331.279 438.561 331.279 433.773V421H330.461C329.612 422.94 328.339 424.773 326.642 426.5C324.945 428.228 322.764 429.637 320.097 430.728C317.43 431.819 314.249 432.364 310.552 432.364C305.309 432.364 300.536 431.152 296.233 428.728C291.961 426.273 288.552 422.531 286.006 417.5C283.491 412.44 282.233 406.046 282.233 398.319C282.233 390.409 283.521 383.803 286.097 378.5C288.673 373.197 292.097 369.228 296.37 366.591C300.673 363.955 305.385 362.637 310.506 362.637C314.415 362.637 317.688 363.303 320.324 364.637C322.961 365.94 325.082 367.576 326.688 369.546C328.324 371.485 329.582 373.394 330.461 375.273H331.188V363.546H350.415V434.046C350.415 439.985 348.961 444.955 346.052 448.955C343.142 452.955 339.112 455.955 333.961 457.955C328.839 459.985 322.945 461 316.279 461ZM316.688 417.819C319.809 417.819 322.445 417.046 324.597 415.5C326.779 413.925 328.445 411.682 329.597 408.773C330.779 405.834 331.37 402.319 331.37 398.228C331.37 394.137 330.794 390.591 329.642 387.591C328.491 384.561 326.824 382.212 324.642 380.546C322.461 378.879 319.809 378.046 316.688 378.046C313.506 378.046 310.824 378.909 308.642 380.637C306.461 382.334 304.809 384.697 303.688 387.728C302.567 390.758 302.006 394.258 302.006 398.228C302.006 402.258 302.567 405.743 303.688 408.682C304.839 411.591 306.491 413.849 308.642 415.455C310.824 417.031 313.506 417.819 316.688 417.819ZM397.37 434.728C390.309 434.728 384.203 433.228 379.052 430.228C373.93 427.197 369.976 422.985 367.188 417.591C364.4 412.167 363.006 405.879 363.006 398.728C363.006 391.516 364.4 385.212 367.188 379.819C369.976 374.394 373.93 370.182 379.052 367.182C384.203 364.152 390.309 362.637 397.37 362.637C404.43 362.637 410.521 364.152 415.642 367.182C420.794 370.182 424.764 374.394 427.552 379.819C430.339 385.212 431.733 391.516 431.733 398.728C431.733 405.879 430.339 412.167 427.552 417.591C424.764 422.985 420.794 427.197 415.642 430.228C410.521 433.228 404.43 434.728 397.37 434.728ZM397.461 419.728C400.673 419.728 403.355 418.819 405.506 417C407.658 415.152 409.279 412.637 410.37 409.455C411.491 406.273 412.052 402.652 412.052 398.591C412.052 394.531 411.491 390.909 410.37 387.728C409.279 384.546 407.658 382.031 405.506 380.182C403.355 378.334 400.673 377.409 397.461 377.409C394.218 377.409 391.491 378.334 389.279 380.182C387.097 382.031 385.445 384.546 384.324 387.728C383.233 390.909 382.688 394.531 382.688 398.591C382.688 402.652 383.233 406.273 384.324 409.455C385.445 412.637 387.097 415.152 389.279 417C391.491 418.819 394.218 419.728 397.461 419.728ZM444.324 459.546V363.546H463.415V375.273H464.279C465.127 373.394 466.355 371.485 467.961 369.546C469.597 367.576 471.718 365.94 474.324 364.637C476.961 363.303 480.233 362.637 484.142 362.637C489.233 362.637 493.93 363.97 498.233 366.637C502.536 369.273 505.976 373.258 508.552 378.591C511.127 383.894 512.415 390.546 512.415 398.546C512.415 406.334 511.158 412.909 508.642 418.273C506.158 423.606 502.764 427.652 498.461 430.409C494.188 433.137 489.4 434.5 484.097 434.5C480.339 434.5 477.142 433.879 474.506 432.637C471.9 431.394 469.764 429.834 468.097 427.955C466.43 426.046 465.158 424.122 464.279 422.182H463.688V459.546H444.324ZM463.279 398.455C463.279 402.606 463.855 406.228 465.006 409.319C466.158 412.409 467.824 414.819 470.006 416.546C472.188 418.243 474.839 419.091 477.961 419.091C481.112 419.091 483.779 418.228 485.961 416.5C488.142 414.743 489.794 412.319 490.915 409.228C492.067 406.106 492.642 402.516 492.642 398.455C492.642 394.425 492.082 390.879 490.961 387.819C489.839 384.758 488.188 382.364 486.006 380.637C483.824 378.909 481.142 378.046 477.961 378.046C474.809 378.046 472.142 378.879 469.961 380.546C467.809 382.212 466.158 384.576 465.006 387.637C463.855 390.697 463.279 394.303 463.279 398.455ZM570.097 403.637V363.546H589.461V433.364H570.87V420.682H570.142C568.567 424.773 565.945 428.061 562.279 430.546C558.642 433.031 554.203 434.273 548.961 434.273C544.294 434.273 540.188 433.212 536.642 431.091C533.097 428.97 530.324 425.955 528.324 422.046C526.355 418.137 525.355 413.455 525.324 408V363.546H544.688V404.546C544.718 408.667 545.824 411.925 548.006 414.319C550.188 416.712 553.112 417.909 556.779 417.909C559.112 417.909 561.294 417.379 563.324 416.319C565.355 415.228 566.991 413.622 568.233 411.5C569.506 409.379 570.127 406.758 570.097 403.637ZM663.042 383.455L645.312 384.546C645.012 383.031 644.362 381.667 643.362 380.455C642.362 379.212 641.042 378.228 639.402 377.5C637.802 376.743 635.872 376.364 633.632 376.364C630.632 376.364 628.102 377 626.042 378.273C623.98 379.516 622.949 381.182 622.949 383.273C622.949 384.94 623.616 386.349 624.949 387.5C626.282 388.652 628.572 389.576 631.812 390.273L644.452 392.819C651.242 394.212 656.302 396.455 659.632 399.546C662.962 402.637 664.632 406.697 664.632 411.728C664.632 416.303 663.282 420.319 660.582 423.773C657.922 427.228 654.252 429.925 649.582 431.864C644.952 433.773 639.602 434.728 633.542 434.728C624.298 434.728 616.934 432.803 611.449 428.955C605.995 425.076 602.798 419.803 601.858 413.137L620.904 412.137C621.48 414.955 622.874 417.106 625.086 418.591C627.302 420.046 630.132 420.773 633.582 420.773C636.982 420.773 639.702 420.122 641.772 418.819C643.862 417.485 644.922 415.773 644.952 413.682C644.922 411.925 644.172 410.485 642.722 409.364C641.272 408.212 639.022 407.334 635.992 406.728L623.904 404.319C617.086 402.955 612.01 400.591 608.677 397.228C605.374 393.864 603.722 389.576 603.722 384.364C603.722 379.879 604.934 376.016 607.358 372.773C609.813 369.531 613.252 367.031 617.677 365.273C622.131 363.516 627.342 362.637 633.312 362.637C642.132 362.637 649.072 364.5 654.132 368.228C659.222 371.955 662.192 377.031 663.042 383.455Z" fill="#B4B4B4"/>
<path d="M0 470.273H7.586L15.597 489.819H15.938L23.949 470.273H31.534V499.364H25.569V480.429H25.327L17.799 499.222H13.736L6.20798 480.358H5.96597V499.364H0V470.273ZM46.346 499.79C44.14 499.79 42.232 499.32 40.622 498.383C39.021 497.436 37.786 496.121 36.914 494.435C36.043 492.74 35.608 490.775 35.608 488.54C35.608 486.286 36.043 484.317 36.914 482.631C37.786 480.936 39.021 479.62 40.622 478.682C42.232 477.735 44.14 477.262 46.346 477.262C48.553 477.262 50.456 477.735 52.057 478.682C53.666 479.62 54.907 480.936 55.778 482.631C56.649 484.317 57.085 486.286 57.085 488.54C57.085 490.775 56.649 492.74 55.778 494.435C54.907 496.121 53.666 497.436 52.057 498.383C50.456 499.32 48.553 499.79 46.346 499.79ZM46.375 495.103C47.378 495.103 48.217 494.819 48.889 494.25C49.561 493.673 50.068 492.887 50.409 491.892C50.759 490.898 50.934 489.766 50.934 488.498C50.934 487.229 50.759 486.097 50.409 485.103C50.068 484.108 49.561 483.322 48.889 482.745C48.217 482.167 47.378 481.878 46.375 481.878C45.361 481.878 44.509 482.167 43.818 482.745C43.136 483.322 42.62 484.108 42.27 485.103C41.929 486.097 41.758 487.229 41.758 488.498C41.758 489.766 41.929 490.898 42.27 491.892C42.62 492.887 43.136 493.673 43.818 494.25C44.509 494.819 45.361 495.103 46.375 495.103ZM69.059 499.719C67.402 499.719 65.901 499.293 64.557 498.441C63.221 497.579 62.161 496.315 61.375 494.648C60.598 492.972 60.21 490.917 60.21 488.483C60.21 485.983 60.612 483.905 61.417 482.248C62.222 480.581 63.292 479.336 64.628 478.512C65.972 477.678 67.445 477.262 69.045 477.262C70.267 477.262 71.285 477.47 72.099 477.887C72.923 478.294 73.586 478.805 74.088 479.421C74.599 480.027 74.987 480.623 75.253 481.211H75.437V470.273H81.474V499.364H75.508V495.87H75.253C74.968 496.476 74.566 497.077 74.045 497.674C73.534 498.261 72.866 498.748 72.042 499.137C71.228 499.525 70.234 499.719 69.059 499.719ZM70.977 494.904C71.952 494.904 72.776 494.639 73.449 494.108C74.13 493.569 74.651 492.816 75.011 491.85C75.38 490.884 75.565 489.752 75.565 488.455C75.565 487.158 75.385 486.031 75.025 485.074C74.665 484.118 74.145 483.379 73.463 482.858C72.781 482.337 71.952 482.077 70.977 482.077C69.983 482.077 69.145 482.347 68.463 482.887C67.781 483.426 67.265 484.175 66.914 485.131C66.564 486.087 66.389 487.195 66.389 488.455C66.389 489.724 66.564 490.846 66.914 491.821C67.274 492.787 67.79 493.545 68.463 494.094C69.145 494.634 69.983 494.904 70.977 494.904ZM96.392 499.79C94.148 499.79 92.216 499.336 90.597 498.426C88.987 497.508 87.747 496.211 86.875 494.534C86.004 492.849 85.569 490.855 85.569 488.554C85.569 486.31 86.004 484.34 86.875 482.645C87.747 480.95 88.973 479.629 90.554 478.682C92.145 477.735 94.011 477.262 96.151 477.262C97.59 477.262 98.93 477.494 100.171 477.958C101.421 478.412 102.51 479.099 103.438 480.017C104.375 480.936 105.105 482.091 105.625 483.483C106.146 484.866 106.407 486.485 106.407 488.341V490.003H87.983V486.253H100.711C100.711 485.382 100.521 484.61 100.142 483.938C99.764 483.266 99.238 482.74 98.566 482.361C97.903 481.973 97.131 481.779 96.25 481.779C95.332 481.779 94.517 481.992 93.807 482.418C93.106 482.835 92.557 483.398 92.16 484.108C91.762 484.809 91.558 485.59 91.549 486.452V490.017C91.549 491.097 91.748 492.03 92.145 492.816C92.552 493.602 93.125 494.208 93.864 494.634C94.603 495.06 95.479 495.273 96.492 495.273C97.164 495.273 97.78 495.178 98.338 494.989C98.897 494.8 99.375 494.516 99.773 494.137C100.171 493.758 100.474 493.294 100.682 492.745L106.279 493.114C105.995 494.459 105.412 495.633 104.532 496.637C103.66 497.631 102.534 498.407 101.151 498.965C99.778 499.515 98.192 499.79 96.392 499.79ZM110.356 499.364V477.546H116.222V481.353H116.449C116.847 479.998 117.515 478.976 118.452 478.284C119.39 477.584 120.469 477.233 121.691 477.233C121.994 477.233 122.32 477.252 122.671 477.29C123.021 477.328 123.329 477.38 123.594 477.446V482.816C123.31 482.73 122.917 482.655 122.415 482.588C121.913 482.522 121.454 482.489 121.037 482.489C120.147 482.489 119.352 482.683 118.651 483.071C117.96 483.45 117.41 483.98 117.003 484.662C116.606 485.344 116.407 486.13 116.407 487.02V499.364H110.356ZM132.774 486.75V499.364H126.723V477.546H132.49V481.395H132.745C133.228 480.126 134.038 479.123 135.174 478.384C136.311 477.636 137.689 477.262 139.308 477.262C140.823 477.262 142.144 477.593 143.271 478.256C144.398 478.919 145.274 479.866 145.899 481.097C146.524 482.319 146.836 483.777 146.836 485.472V499.364H140.785V486.552C140.795 485.216 140.454 484.175 139.762 483.426C139.071 482.669 138.119 482.29 136.907 482.29C136.093 482.29 135.373 482.465 134.748 482.816C134.133 483.166 133.65 483.677 133.299 484.35C132.959 485.013 132.783 485.813 132.774 486.75ZM155.142 499.732C154.205 499.732 153.4 499.402 152.728 498.739C152.065 498.067 151.733 497.262 151.733 496.324C151.733 495.396 152.065 494.601 152.728 493.938C153.4 493.275 154.205 492.944 155.142 492.944C156.052 492.944 156.847 493.275 157.529 493.938C158.211 494.601 158.552 495.396 158.552 496.324C158.552 496.949 158.391 497.521 158.069 498.042C157.756 498.553 157.344 498.966 156.833 499.279C156.321 499.582 155.758 499.732 155.142 499.732ZM171.524 499.364V470.273H190.785V475.344H177.674V482.276H189.507V487.347H177.674V499.364H171.524ZM200.757 499.775C199.365 499.775 198.124 499.533 197.035 499.051C195.946 498.558 195.084 497.835 194.45 496.878C193.825 495.912 193.512 494.71 193.512 493.27C193.512 492.058 193.735 491.04 194.18 490.216C194.625 489.392 195.231 488.73 195.998 488.228C196.765 487.726 197.637 487.347 198.612 487.091C199.597 486.836 200.629 486.656 201.709 486.552C202.977 486.419 204 486.296 204.777 486.182C205.553 486.059 206.117 485.879 206.467 485.642C206.817 485.406 206.993 485.055 206.993 484.591V484.506C206.993 483.606 206.709 482.91 206.14 482.418C205.582 481.926 204.786 481.679 203.754 481.679C202.665 481.679 201.798 481.921 201.155 482.404C200.511 482.877 200.084 483.474 199.876 484.194L194.28 483.739C194.564 482.413 195.122 481.267 195.956 480.302C196.789 479.326 197.864 478.578 199.18 478.057C200.506 477.527 202.04 477.262 203.782 477.262C204.994 477.262 206.155 477.404 207.262 477.688C208.38 477.972 209.369 478.412 210.231 479.009C211.102 479.605 211.789 480.373 212.291 481.31C212.793 482.238 213.044 483.351 213.044 484.648V499.364H207.305V496.338H207.135C206.784 497.02 206.316 497.622 205.728 498.142C205.141 498.654 204.436 499.056 203.612 499.35C202.788 499.634 201.836 499.775 200.757 499.775ZM202.49 495.6C203.38 495.6 204.166 495.425 204.848 495.074C205.53 494.714 206.065 494.231 206.453 493.625C206.841 493.019 207.035 492.333 207.035 491.566V489.25C206.846 489.373 206.585 489.487 206.254 489.591C205.932 489.686 205.567 489.776 205.16 489.861C204.753 489.937 204.346 490.008 203.939 490.074C203.531 490.131 203.162 490.183 202.831 490.23C202.12 490.335 201.5 490.5 200.97 490.728C200.44 490.955 200.028 491.263 199.734 491.651C199.441 492.03 199.294 492.503 199.294 493.071C199.294 493.895 199.592 494.525 200.189 494.961C200.795 495.387 201.562 495.6 202.49 495.6ZM235.892 483.767L230.352 484.108C230.257 483.635 230.054 483.209 229.741 482.83C229.429 482.442 229.017 482.134 228.505 481.907C228.003 481.67 227.402 481.552 226.701 481.552C225.764 481.552 224.973 481.75 224.329 482.148C223.685 482.536 223.363 483.057 223.363 483.711C223.363 484.231 223.572 484.672 223.988 485.032C224.405 485.391 225.12 485.68 226.133 485.898L230.082 486.694C232.203 487.129 233.785 487.83 234.826 488.796C235.868 489.762 236.389 491.031 236.389 492.603C236.389 494.033 235.968 495.287 235.125 496.367C234.291 497.446 233.146 498.289 231.687 498.895C230.238 499.492 228.567 499.79 226.673 499.79C223.785 499.79 221.484 499.189 219.77 497.986C218.065 496.774 217.066 495.126 216.772 493.043L222.724 492.73C222.904 493.611 223.34 494.284 224.031 494.748C224.722 495.202 225.608 495.429 226.687 495.429C227.748 495.429 228.6 495.226 229.244 494.819C229.897 494.402 230.229 493.867 230.238 493.213C230.229 492.664 229.997 492.214 229.542 491.864C229.088 491.504 228.387 491.23 227.44 491.04L223.662 490.287C221.531 489.861 219.945 489.123 218.903 488.071C217.871 487.02 217.355 485.68 217.355 484.052C217.355 482.65 217.734 481.443 218.491 480.429C219.258 479.416 220.333 478.635 221.716 478.086C223.108 477.536 224.736 477.262 226.602 477.262C229.358 477.262 231.526 477.844 233.108 479.009C234.699 480.174 235.627 481.76 235.892 483.767ZM251.804 477.546V482.091H238.665V477.546H251.804ZM241.648 472.319H247.699V492.659C247.699 493.218 247.785 493.654 247.955 493.966C248.125 494.269 248.362 494.482 248.665 494.605C248.978 494.729 249.338 494.79 249.745 494.79C250.029 494.79 250.313 494.766 250.597 494.719C250.881 494.662 251.099 494.62 251.25 494.591L252.202 499.094C251.899 499.189 251.473 499.298 250.924 499.421C250.374 499.553 249.707 499.634 248.921 499.662C247.463 499.719 246.184 499.525 245.086 499.08C243.997 498.635 243.149 497.944 242.543 497.006C241.937 496.069 241.639 494.885 241.648 493.455V472.319ZM259.283 499.732C258.346 499.732 257.541 499.402 256.868 498.739C256.205 498.067 255.874 497.262 255.874 496.324C255.874 495.396 256.205 494.601 256.868 493.938C257.541 493.275 258.346 492.944 259.283 492.944C260.192 492.944 260.988 493.275 261.669 493.938C262.351 494.601 262.692 495.396 262.692 496.324C262.692 496.949 262.531 497.521 262.209 498.042C261.897 498.553 261.485 498.966 260.973 499.279C260.462 499.582 259.899 499.732 259.283 499.732ZM291.446 478.64C291.332 477.494 290.844 476.604 289.983 475.969C289.121 475.335 287.951 475.017 286.474 475.017C285.47 475.017 284.623 475.159 283.932 475.444C283.24 475.718 282.71 476.102 282.341 476.594C281.981 477.087 281.801 477.645 281.801 478.27C281.782 478.791 281.891 479.246 282.128 479.634C282.374 480.022 282.71 480.358 283.136 480.642C283.562 480.917 284.055 481.159 284.613 481.367C285.172 481.566 285.769 481.736 286.403 481.878L289.017 482.503C290.286 482.787 291.45 483.166 292.511 483.64C293.572 484.113 294.49 484.695 295.267 485.387C296.043 486.078 296.645 486.892 297.071 487.83C297.506 488.767 297.729 489.842 297.738 491.054C297.729 492.835 297.274 494.378 296.375 495.685C295.485 496.982 294.197 497.99 292.511 498.71C290.835 499.42 288.813 499.775 286.446 499.775C284.097 499.775 282.052 499.416 280.309 498.696C278.576 497.977 277.222 496.911 276.247 495.5C275.281 494.08 274.774 492.323 274.727 490.23H280.679C280.745 491.206 281.024 492.02 281.517 492.674C282.019 493.318 282.686 493.805 283.52 494.137C284.362 494.459 285.314 494.62 286.375 494.62C287.416 494.62 288.321 494.468 289.088 494.165C289.864 493.862 290.466 493.441 290.892 492.901C291.318 492.361 291.531 491.741 291.531 491.04C291.531 490.387 291.337 489.837 290.949 489.392C290.57 488.947 290.011 488.569 289.272 488.256C288.543 487.944 287.648 487.659 286.588 487.404L283.42 486.608C280.968 486.012 279.031 485.079 277.61 483.81C276.19 482.541 275.485 480.832 275.494 478.682C275.485 476.921 275.953 475.382 276.9 474.066C277.857 472.749 279.168 471.722 280.835 470.983C282.502 470.245 284.396 469.875 286.517 469.875C288.676 469.875 290.56 470.245 292.17 470.983C293.789 471.722 295.049 472.749 295.949 474.066C296.848 475.382 297.312 476.907 297.341 478.64H291.446ZM311.705 499.79C309.461 499.79 307.529 499.336 305.91 498.426C304.3 497.508 303.059 496.211 302.188 494.534C301.317 492.849 300.881 490.855 300.881 488.554C300.881 486.31 301.317 484.34 302.188 482.645C303.059 480.95 304.285 479.629 305.867 478.682C307.458 477.735 309.323 477.262 311.463 477.262C312.903 477.262 314.243 477.494 315.483 477.958C316.733 478.412 317.822 479.099 318.75 480.017C319.688 480.936 320.417 482.091 320.938 483.483C321.459 484.866 321.719 486.485 321.719 488.341V490.003H303.296V486.253H316.023C316.023 485.382 315.834 484.61 315.455 483.938C315.076 483.266 314.551 482.74 313.878 482.361C313.215 481.973 312.444 481.779 311.563 481.779C310.644 481.779 309.83 481.992 309.12 482.418C308.419 482.835 307.87 483.398 307.472 484.108C307.074 484.809 306.871 485.59 306.861 486.452V490.017C306.861 491.097 307.06 492.03 307.458 492.816C307.865 493.602 308.438 494.208 309.177 494.634C309.915 495.06 310.791 495.273 311.804 495.273C312.477 495.273 313.092 495.178 313.651 494.989C314.21 494.8 314.688 494.516 315.086 494.137C315.483 493.758 315.786 493.294 315.995 492.745L321.591 493.114C321.307 494.459 320.725 495.633 319.844 496.637C318.973 497.631 317.846 498.407 316.463 498.965C315.09 499.515 313.504 499.79 311.705 499.79ZM335.526 499.79C333.291 499.79 331.369 499.317 329.759 498.37C328.159 497.413 326.927 496.087 326.066 494.392C325.213 492.697 324.787 490.747 324.787 488.54C324.787 486.305 325.218 484.345 326.08 482.659C326.951 480.964 328.187 479.643 329.787 478.696C331.388 477.74 333.291 477.262 335.498 477.262C337.401 477.262 339.068 477.607 340.498 478.299C341.927 478.99 343.059 479.961 343.892 481.211C344.726 482.461 345.185 483.928 345.27 485.614H339.56C339.399 484.525 338.973 483.649 338.282 482.986C337.6 482.314 336.705 481.978 335.597 481.978C334.66 481.978 333.84 482.233 333.14 482.745C332.448 483.247 331.909 483.98 331.52 484.946C331.132 485.912 330.938 487.082 330.938 488.455C330.938 489.847 331.127 491.031 331.506 492.006C331.894 492.981 332.439 493.725 333.14 494.236C333.84 494.748 334.66 495.003 335.597 495.003C336.288 495.003 336.909 494.861 337.458 494.577C338.017 494.293 338.476 493.881 338.836 493.341C339.205 492.792 339.446 492.134 339.56 491.367H345.27C345.176 493.034 344.721 494.501 343.907 495.77C343.102 497.03 341.989 498.015 340.569 498.725C339.148 499.435 337.467 499.79 335.526 499.79ZM363.136 490.074V477.546H369.187V499.364H363.378V495.401H363.15C362.658 496.679 361.839 497.706 360.693 498.482C359.557 499.259 358.169 499.648 356.531 499.648C355.073 499.648 353.789 499.317 352.682 498.654C351.574 497.991 350.707 497.049 350.082 495.827C349.467 494.605 349.154 493.142 349.145 491.438V477.546H355.196V490.358C355.205 491.646 355.551 492.664 356.233 493.412C356.914 494.16 357.828 494.534 358.974 494.534C359.703 494.534 360.385 494.369 361.02 494.037C361.654 493.696 362.165 493.194 362.554 492.532C362.951 491.869 363.146 491.05 363.136 490.074ZM374.027 499.364V477.546H379.894V481.353H380.121C380.519 479.998 381.186 478.976 382.124 478.284C383.061 477.584 384.141 477.233 385.363 477.233C385.666 477.233 385.992 477.252 386.343 477.29C386.693 477.328 387.001 477.38 387.266 477.446V482.816C386.982 482.73 386.589 482.655 386.087 482.588C385.585 482.522 385.126 482.489 384.709 482.489C383.819 482.489 383.024 482.683 382.323 483.071C381.632 483.45 381.082 483.98 380.675 484.662C380.277 485.344 380.079 486.13 380.079 487.02V499.364H374.027ZM399.322 499.79C397.078 499.79 395.146 499.336 393.527 498.426C391.917 497.508 390.676 496.211 389.805 494.534C388.934 492.849 388.498 490.855 388.498 488.554C388.498 486.31 388.934 484.34 389.805 482.645C390.676 480.95 391.903 479.629 393.484 478.682C395.075 477.735 396.941 477.262 399.081 477.262C400.52 477.262 401.86 477.494 403.101 477.958C404.351 478.412 405.44 479.099 406.368 480.017C407.305 480.936 408.034 482.091 408.555 483.483C409.076 484.866 409.336 486.485 409.336 488.341V490.003H390.913V486.253H403.64C403.64 485.382 403.451 484.61 403.072 483.938C402.693 483.266 402.168 482.74 401.495 482.361C400.833 481.973 400.061 481.779 399.18 481.779C398.262 481.779 397.447 481.992 396.737 482.418C396.036 482.835 395.487 483.398 395.089 484.108C394.691 484.809 394.488 485.59 394.478 486.452V490.017C394.478 491.097 394.677 492.03 395.075 492.816C395.482 493.602 396.055 494.208 396.794 494.634C397.532 495.06 398.408 495.273 399.422 495.273C400.094 495.273 400.709 495.178 401.268 494.989C401.827 494.8 402.305 494.516 402.703 494.137C403.101 493.758 403.404 493.294 403.612 492.745L409.209 493.114C408.924 494.459 408.342 495.633 407.461 496.637C406.59 497.631 405.463 498.407 404.081 498.965C402.708 499.515 401.121 499.79 399.322 499.79ZM416.822 499.732C415.885 499.732 415.08 499.402 414.407 498.739C413.744 498.067 413.413 497.262 413.413 496.324C413.413 495.396 413.744 494.601 414.407 493.938C415.08 493.275 415.885 492.944 416.822 492.944C417.731 492.944 418.527 493.275 419.209 493.938C419.89 494.601 420.231 495.396 420.231 496.324C420.231 496.949 420.07 497.521 419.748 498.042C419.436 498.553 419.024 498.966 418.512 499.279C418.001 499.582 417.438 499.732 416.822 499.732Z" fill="#74C0FC"/>
</svg>
