<svg width="1068" height="337" viewBox="0 0 1068 337" fill="none" xmlns="http://www.w3.org/2000/svg">
<mask id="mask0_2012_92" style="mask-type:luminance" maskUnits="userSpaceOnUse" x="67" y="9" width="251" height="328">
<path d="M318 9H67V337H318V9Z" fill="white"/>
</mask>
<g mask="url(#mask0_2012_92)">
<path d="M200.88 9.04811C208.817 8.05664 227.604 22.5785 238.94 35.0827C239.081 35.2383 239.288 35.3164 239.497 35.2973C247.127 34.6028 251.467 34.4353 258.306 35.2665C258.6 35.3021 258.885 35.1407 258.998 34.8678C260.371 31.5572 260.173 30.3128 268.456 22.3544C277.112 14.038 288.43 9.38077 294.422 11.3767C300.414 13.3727 302.078 24.3503 301.413 38.6546C300.753 52.8253 299.523 57.8832 296.829 66.6806C296.78 66.8398 296.793 67.0145 296.862 67.1656C301.025 76.1761 298.422 86.5943 299.082 90.8816C299.748 95.2061 316.558 102.704 317.724 112.837C318.89 122.971 298.417 135.79 296.419 136.788C294.535 137.73 288.926 138.714 283.706 138.782C283.248 138.788 282.923 139.236 283.063 139.672C288.114 155.374 287.733 173.535 286.1 181.697C284.445 189.967 279.172 206.139 272.563 214.816C272.489 214.913 272.443 215.031 272.43 215.152C268.177 253.791 268.695 266.936 273.707 278.001C273.756 278.11 273.837 278.205 273.935 278.273C284.212 285.387 288.927 289.528 292.092 297.462L296.556 310.528C296.667 310.852 296.505 311.212 296.192 311.353C253.255 330.64 229.491 335.824 185.696 329.748C185.612 329.736 185.523 329.741 185.44 329.761C146.921 339.413 110.644 339.696 91.0252 327.401C71.3846 315.093 66.3913 301.454 67.057 290.809C67.7184 280.234 73.2924 266.926 86.109 256.747C86.2691 256.62 86.3645 256.426 86.3648 256.221C86.4243 218.644 104.408 181.63 127.643 158.078C150.869 134.538 154.828 134.489 175.047 114.697C175.172 114.574 175.248 114.398 175.251 114.223C175.558 95.1436 178.18 85.8305 186.132 71.4356C186.196 71.3192 186.226 71.1841 186.214 71.0515C183.553 40.9234 192.908 10.0438 200.88 9.04811Z" fill="#B4B4B4"/>
<path d="M184.816 216.283L190.634 192.677C190.826 191.897 192.009 192.053 191.983 192.856C191.674 202.404 191.281 219.218 192.224 222.281C193.556 226.606 212.198 286.484 215.527 290.809C218.856 295.133 222.836 300.13 225.181 306.443C226.229 308.68 227.128 309.59 229.078 310.713C229.142 310.749 229.213 310.775 229.285 310.789C234.083 311.694 236.801 311.669 241.075 310.906C241.472 310.836 241.711 310.428 241.584 310.046L240.123 305.665C239.87 304.909 240.92 304.43 241.327 305.115L244.325 310.161C244.428 310.334 244.605 310.453 244.806 310.479C247.094 310.774 248.557 310.663 250.872 309.701C251.209 309.56 251.36 309.168 251.213 308.833L249.355 304.614C249.054 303.931 249.933 303.347 250.447 303.887L252.765 306.325C253.205 306.789 253.959 306.427 253.834 305.799C252.587 299.545 248.839 295.442 237.385 288.612C237.245 288.529 237.143 288.415 237.095 288.259C236.226 285.486 227.528 257.229 227.844 238.581C228.155 220.23 238.328 212.702 241.857 195.426C242.006 194.696 243.074 194.678 243.187 195.414C244.686 205.134 243.388 213.793 237.861 228.149C237.635 228.737 238.269 229.283 238.807 228.952C258.41 216.881 273.827 194.14 275.447 187.019C277.106 179.728 279.32 157.76 271.868 136.359C271.815 136.207 271.708 136.079 271.567 136C265.417 132.546 259.811 130.98 248.684 129.313C247.955 129.204 247.925 128.242 248.653 128.131C260.78 126.302 273.668 129.411 292.616 132.669C293.41 132.806 293.698 131.712 292.941 131.436L274.809 124.83C274.044 124.551 274.355 123.405 275.157 123.551L289.429 126.143C297.104 127.518 300.469 126.703 304.19 122.468C304.475 122.143 304.363 121.638 303.978 121.443C299.841 119.342 298.421 117.471 298.088 113.235C298.085 113.192 298.086 113.148 298.092 113.105C298.512 109.689 299.915 108.241 303.952 107.236C304.555 107.087 304.696 106.244 304.174 105.908C295.54 100.359 288.763 90.0666 288.763 87.555C288.763 84.8937 290.427 82.8978 291.426 73.9162C292.413 65.0368 268.348 39.9009 242.39 40.294C241.943 40.3008 241.639 40.7448 241.781 41.1675C244.064 47.942 244.356 50.5971 243.237 54.3533C243.08 54.879 242.388 54.9715 242.078 54.5189C230.883 38.1724 213.687 20.9725 205.873 18.6951C198.001 16.4008 187.585 53.7184 199.34 76.2446C199.575 76.6957 199.252 77.2426 198.742 77.2426H194.57C194.352 77.2426 194.145 77.3524 194.021 77.5327C185.307 90.2249 184.419 100.187 185.545 119.47C185.559 119.688 185.459 119.907 185.287 120.041C148.746 148.576 129.596 161.485 111.997 193.007C94.442 224.453 95.7865 234.062 95.6873 263.422C95.6864 263.686 95.5284 263.932 95.2866 264.038C90.8119 266.005 89.5336 266.999 84.0345 271.847C78.3754 276.837 73.382 295.798 83.3687 307.774C93.3555 319.75 108.668 327.401 125.979 328.399C143.289 329.397 141.292 329.064 147.95 328.731C154.608 328.399 189.894 318.086 196.219 316.756C202.544 315.425 205.54 315.093 214.528 315.093C223.516 315.093 195.22 285.819 178.243 278.168C163.623 271.58 126.618 265.461 106.564 267.732C105.749 267.824 105.16 266.11 105.918 265.797C123.346 258.616 146.095 258.29 177.578 269.611C177.936 269.74 178.339 269.54 178.451 269.177C185.726 245.556 188.44 232.576 169.901 217.277C159.775 209.628 145.691 212.001 126.61 221.405C125.903 221.753 125.277 220.83 125.887 220.331C147.444 202.712 164.074 201.375 183.743 216.643C184.126 216.941 184.7 216.754 184.816 216.283Z" fill="white"/>
<path d="M290.427 19.6931C294.315 21.3121 292.421 40.9359 289.043 56.0546C288.926 56.5769 288.272 56.7476 287.909 56.3532L285.258 53.4628C285.156 53.3519 285.095 53.2082 285.085 53.058C284.831 49.2834 284.914 46.7653 285.53 43.3923C285.656 42.7027 284.762 42.2683 284.315 42.8088L280.184 47.807C279.955 48.083 279.55 48.1291 279.265 47.9113L270.282 41.0289C270.004 40.8159 269.937 40.4267 270.132 40.1359C276.594 30.5037 286.503 18.0591 290.427 19.6931Z" fill="white"/>
<path d="M202.877 48.3017C203.196 54.3599 204.806 61.7764 209.858 68.403C210.159 68.7989 210.772 68.7162 211.001 68.2742C212.238 65.8862 213.786 64.5777 216.885 62.9378C217.228 62.7564 217.35 62.3238 217.155 61.9891C215.637 59.391 215.045 57.4895 214.894 54.2959C214.871 53.8201 215.351 53.4875 215.794 53.6644L220.298 55.4651C220.805 55.6675 221.324 55.212 221.173 54.6884C217.853 43.2061 208.749 27.3921 205.54 28.6749C202.211 30.0056 202.544 41.9812 202.877 48.3017Z" fill="#B4B4B4"/>
<path d="M250.876 88.1631C250.05 87.9815 247.53 87.3833 246.153 86.557C244.488 85.5591 252.478 83.5631 252.478 83.5631C256.524 82.4055 258.689 82.1733 262.34 82.2305C262.421 82.2318 262.504 82.2484 262.579 82.2797C267.403 84.2743 270.402 88.7479 271.295 95.1575C271.373 95.7104 270.756 96.0863 270.276 95.7996C269.323 95.2314 268.045 94.5408 267.458 94.5408H258.256C258.174 94.5408 258.096 94.5255 258.02 94.4962C254.452 93.1037 253.251 91.4138 251.299 88.4532C251.201 88.3048 251.05 88.201 250.876 88.1631Z" fill="#B4B4B4"/>
<path d="M257.804 89.8836C259.275 89.8836 260.467 88.6921 260.467 87.2223C260.467 85.7525 259.275 84.561 257.804 84.561C256.333 84.561 255.141 85.7525 255.141 87.2223C255.141 88.6921 256.333 89.8836 257.804 89.8836Z" fill="white"/>
<path d="M241.492 240.577C242.615 238.054 256.277 227.491 260.538 224.237C261.007 223.879 261.674 224.264 261.608 224.851C259.31 245.307 263.488 267.956 264.462 271.847C265.46 275.839 265.136 281.093 267.791 283.157C270.445 285.223 280.379 291.736 281.439 293.802C282.481 295.833 284.791 300.007 283.193 302.329C283.136 302.411 283.056 302.476 282.967 302.52C280.524 303.726 279.035 303.817 276.881 303.789C276.616 303.786 276.38 303.625 276.278 303.382L273.728 297.295C273.411 296.539 272.272 296.914 272.467 297.71L273.959 303.809C274.046 304.163 273.832 304.521 273.478 304.609C270.405 305.372 268.056 305.687 262.32 305.467C262.014 305.455 261.756 305.235 261.692 304.937C261.187 302.581 260.602 300.88 257.804 297.462C254.808 293.802 250.48 289.811 248.483 285.819C246.486 281.827 240.161 243.571 241.492 240.577Z" fill="white"/>
</g>
<path d="M462.227 141.864H442.318C441.955 139.288 441.212 137 440.091 135C438.97 132.97 437.53 131.243 435.773 129.819C434.015 128.394 431.985 127.303 429.682 126.546C427.409 125.788 424.939 125.409 422.273 125.409C417.455 125.409 413.258 126.606 409.682 129C406.106 131.364 403.333 134.819 401.364 139.364C399.394 143.879 398.409 149.364 398.409 155.819C398.409 162.455 399.394 168.031 401.364 172.546C403.364 177.061 406.152 180.47 409.727 182.773C413.303 185.076 417.439 186.228 422.136 186.228C424.773 186.228 427.212 185.879 429.455 185.182C431.727 184.485 433.742 183.47 435.5 182.137C437.258 180.773 438.712 179.122 439.864 177.182C441.045 175.243 441.864 173.031 442.318 170.546L462.227 170.637C461.712 174.909 460.424 179.031 458.364 183C456.333 186.94 453.591 190.47 450.136 193.591C446.712 196.682 442.621 199.137 437.864 200.955C433.136 202.743 427.788 203.637 421.818 203.637C413.515 203.637 406.091 201.758 399.545 198C393.03 194.243 387.879 188.803 384.091 181.682C380.333 174.561 378.455 165.94 378.455 155.819C378.455 145.667 380.364 137.031 384.182 129.909C388 122.788 393.182 117.364 399.727 113.637C406.273 109.879 413.636 108 421.818 108C427.212 108 432.212 108.757 436.818 110.273C441.455 111.788 445.561 114 449.136 116.909C452.712 119.788 455.621 123.319 457.864 127.5C460.136 131.682 461.591 136.47 462.227 141.864ZM495.886 203.682C491.432 203.682 487.462 202.909 483.977 201.364C480.492 199.788 477.735 197.47 475.705 194.409C473.705 191.319 472.705 187.47 472.705 182.864C472.705 178.985 473.417 175.728 474.841 173.091C476.265 170.455 478.205 168.334 480.659 166.728C483.114 165.122 485.902 163.909 489.023 163.091C492.174 162.273 495.477 161.697 498.932 161.364C502.992 160.94 506.265 160.546 508.75 160.182C511.235 159.788 513.038 159.212 514.159 158.455C515.28 157.697 515.841 156.576 515.841 155.091V154.819C515.841 151.94 514.932 149.712 513.114 148.137C511.326 146.561 508.78 145.773 505.477 145.773C501.992 145.773 499.22 146.546 497.159 148.091C495.098 149.606 493.735 151.516 493.068 153.819L475.159 152.364C476.068 148.122 477.856 144.455 480.523 141.364C483.189 138.243 486.629 135.849 490.841 134.182C495.083 132.485 499.992 131.637 505.568 131.637C509.447 131.637 513.159 132.091 516.705 133C520.28 133.909 523.447 135.319 526.205 137.228C528.992 139.137 531.189 141.591 532.795 144.591C534.402 147.561 535.205 151.122 535.205 155.273V202.364H516.841V192.682H516.295C515.174 194.864 513.674 196.788 511.795 198.455C509.917 200.091 507.659 201.379 505.023 202.319C502.386 203.228 499.341 203.682 495.886 203.682ZM501.432 190.319C504.28 190.319 506.795 189.758 508.977 188.637C511.159 187.485 512.871 185.94 514.114 184C515.356 182.061 515.977 179.864 515.977 177.409V170C515.371 170.394 514.538 170.758 513.477 171.091C512.447 171.394 511.28 171.682 509.977 171.955C508.674 172.197 507.371 172.425 506.068 172.637C504.765 172.819 503.583 172.985 502.523 173.137C500.25 173.47 498.265 174 496.568 174.728C494.871 175.455 493.553 176.44 492.614 177.682C491.674 178.894 491.205 180.409 491.205 182.228C491.205 184.864 492.159 186.879 494.068 188.273C496.008 189.637 498.462 190.319 501.432 190.319ZM569.591 109.273V202.364H550.227V109.273H569.591ZM605.011 203.682C600.557 203.682 596.587 202.909 593.102 201.364C589.617 199.788 586.86 197.47 584.83 194.409C582.83 191.319 581.83 187.47 581.83 182.864C581.83 178.985 582.542 175.728 583.966 173.091C585.39 170.455 587.33 168.334 589.784 166.728C592.239 165.122 595.027 163.909 598.148 163.091C601.299 162.273 604.602 161.697 608.057 161.364C612.117 160.94 615.39 160.546 617.875 160.182C620.36 159.788 622.163 159.212 623.284 158.455C624.405 157.697 624.966 156.576 624.966 155.091V154.819C624.966 151.94 624.057 149.712 622.239 148.137C620.451 146.561 617.905 145.773 614.602 145.773C611.117 145.773 608.345 146.546 606.284 148.091C604.223 149.606 602.86 151.516 602.193 153.819L584.284 152.364C585.193 148.122 586.981 144.455 589.648 141.364C592.314 138.243 595.754 135.849 599.966 134.182C604.208 132.485 609.117 131.637 614.693 131.637C618.572 131.637 622.284 132.091 625.83 133C629.405 133.909 632.572 135.319 635.33 137.228C638.117 139.137 640.314 141.591 641.92 144.591C643.527 147.561 644.33 151.122 644.33 155.273V202.364H625.966V192.682H625.42C624.299 194.864 622.799 196.788 620.92 198.455C619.042 200.091 616.784 201.379 614.148 202.319C611.511 203.228 608.466 203.682 605.011 203.682ZM610.557 190.319C613.405 190.319 615.92 189.758 618.102 188.637C620.284 187.485 621.996 185.94 623.239 184C624.481 182.061 625.102 179.864 625.102 177.409V170C624.496 170.394 623.663 170.758 622.602 171.091C621.572 171.394 620.405 171.682 619.102 171.955C617.799 172.197 616.496 172.425 615.193 172.637C613.89 172.819 612.708 172.985 611.648 173.137C609.375 173.47 607.39 174 605.693 174.728C603.996 175.455 602.678 176.44 601.739 177.682C600.799 178.894 600.33 180.409 600.33 182.228C600.33 184.864 601.284 186.879 603.193 188.273C605.133 189.637 607.587 190.319 610.557 190.319ZM690.807 230C684.534 230 679.155 229.137 674.67 227.409C670.216 225.712 666.67 223.394 664.034 220.455C661.398 217.516 659.686 214.212 658.898 210.546L676.807 208.137C677.352 209.531 678.216 210.834 679.398 212.046C680.58 213.258 682.14 214.228 684.08 214.955C686.049 215.712 688.443 216.091 691.261 216.091C695.473 216.091 698.943 215.061 701.67 213C704.428 210.97 705.807 207.561 705.807 202.773V190H704.989C704.14 191.94 702.867 193.773 701.17 195.5C699.473 197.228 697.292 198.637 694.625 199.728C691.958 200.819 688.777 201.364 685.08 201.364C679.837 201.364 675.064 200.152 670.761 197.728C666.489 195.273 663.08 191.531 660.534 186.5C658.019 181.44 656.761 175.046 656.761 167.319C656.761 159.409 658.049 152.803 660.625 147.5C663.201 142.197 666.625 138.228 670.898 135.591C675.201 132.955 679.913 131.637 685.034 131.637C688.943 131.637 692.216 132.303 694.852 133.637C697.489 134.94 699.61 136.576 701.216 138.546C702.852 140.485 704.11 142.394 704.989 144.273H705.716V132.546H724.943V203.046C724.943 208.985 723.489 213.955 720.58 217.955C717.67 221.955 713.64 224.955 708.489 226.955C703.367 228.985 697.473 230 690.807 230ZM691.216 186.819C694.337 186.819 696.973 186.046 699.125 184.5C701.307 182.925 702.973 180.682 704.125 177.773C705.307 174.834 705.898 171.319 705.898 167.228C705.898 163.137 705.322 159.591 704.17 156.591C703.019 153.561 701.352 151.212 699.17 149.546C696.989 147.879 694.337 147.046 691.216 147.046C688.034 147.046 685.352 147.909 683.17 149.637C680.989 151.334 679.337 153.697 678.216 156.728C677.095 159.758 676.534 163.258 676.534 167.228C676.534 171.258 677.095 174.743 678.216 177.682C679.367 180.591 681.019 182.849 683.17 184.455C685.352 186.031 688.034 186.819 691.216 186.819ZM771.898 203.728C764.837 203.728 758.731 202.228 753.58 199.228C748.458 196.197 744.504 191.985 741.716 186.591C738.928 181.167 737.534 174.879 737.534 167.728C737.534 160.516 738.928 154.212 741.716 148.819C744.504 143.394 748.458 139.182 753.58 136.182C758.731 133.152 764.837 131.637 771.898 131.637C778.958 131.637 785.049 133.152 790.17 136.182C795.322 139.182 799.292 143.394 802.08 148.819C804.867 154.212 806.261 160.516 806.261 167.728C806.261 174.879 804.867 181.167 802.08 186.591C799.292 191.985 795.322 196.197 790.17 199.228C785.049 202.228 778.958 203.728 771.898 203.728ZM771.989 188.728C775.201 188.728 777.883 187.819 780.034 186C782.186 184.152 783.807 181.637 784.898 178.455C786.019 175.273 786.58 171.652 786.58 167.591C786.58 163.531 786.019 159.909 784.898 156.728C783.807 153.546 782.186 151.031 780.034 149.182C777.883 147.334 775.201 146.409 771.989 146.409C768.746 146.409 766.019 147.334 763.807 149.182C761.625 151.031 759.973 153.546 758.852 156.728C757.761 159.909 757.216 163.531 757.216 167.591C757.216 171.652 757.761 175.273 758.852 178.455C759.973 181.637 761.625 184.152 763.807 186C766.019 187.819 768.746 188.728 771.989 188.728ZM818.852 228.546V132.546H837.943V144.273H838.807C839.655 142.394 840.883 140.485 842.489 138.546C844.125 136.576 846.246 134.94 848.852 133.637C851.489 132.303 854.761 131.637 858.67 131.637C863.761 131.637 868.458 132.97 872.761 135.637C877.064 138.273 880.504 142.258 883.08 147.591C885.655 152.894 886.943 159.546 886.943 167.546C886.943 175.334 885.686 181.909 883.17 187.273C880.686 192.606 877.292 196.652 872.989 199.409C868.716 202.137 863.928 203.5 858.625 203.5C854.867 203.5 851.67 202.879 849.034 201.637C846.428 200.394 844.292 198.834 842.625 196.955C840.958 195.046 839.686 193.122 838.807 191.182H838.216V228.546H818.852ZM837.807 167.455C837.807 171.606 838.383 175.228 839.534 178.319C840.686 181.409 842.352 183.819 844.534 185.546C846.716 187.243 849.367 188.091 852.489 188.091C855.64 188.091 858.307 187.228 860.489 185.5C862.67 183.743 864.322 181.319 865.443 178.228C866.595 175.106 867.17 171.516 867.17 167.455C867.17 163.425 866.61 159.879 865.489 156.819C864.367 153.758 862.716 151.364 860.534 149.637C858.352 147.909 855.67 147.046 852.489 147.046C849.337 147.046 846.67 147.879 844.489 149.546C842.337 151.212 840.686 153.576 839.534 156.637C838.383 159.697 837.807 163.303 837.807 167.455ZM944.625 172.637V132.546H963.989V202.364H945.398V189.682H944.67C943.095 193.773 940.473 197.061 936.807 199.546C933.17 202.031 928.731 203.273 923.489 203.273C918.822 203.273 914.716 202.212 911.17 200.091C907.625 197.97 904.852 194.955 902.852 191.046C900.883 187.137 899.883 182.455 899.852 177V132.546H919.216V173.546C919.246 177.667 920.352 180.925 922.534 183.319C924.716 185.712 927.64 186.909 931.307 186.909C933.64 186.909 935.822 186.379 937.852 185.319C939.883 184.228 941.519 182.622 942.761 180.5C944.034 178.379 944.655 175.758 944.625 172.637ZM1037.57 152.455L1019.84 153.546C1019.54 152.031 1018.89 150.667 1017.89 149.455C1016.89 148.212 1015.57 147.228 1013.93 146.5C1012.33 145.743 1010.4 145.364 1008.16 145.364C1005.16 145.364 1002.63 146 1000.57 147.273C998.508 148.516 997.477 150.182 997.477 152.273C997.477 153.94 998.144 155.349 999.477 156.5C1000.81 157.652 1003.1 158.576 1006.34 159.273L1018.98 161.819C1025.77 163.212 1030.83 165.455 1034.16 168.546C1037.49 171.637 1039.16 175.697 1039.16 180.728C1039.16 185.303 1037.81 189.319 1035.11 192.773C1032.45 196.228 1028.78 198.925 1024.11 200.864C1019.48 202.773 1014.13 203.728 1008.07 203.728C998.826 203.728 991.462 201.803 985.977 197.955C980.523 194.076 977.326 188.803 976.386 182.137L995.432 181.137C996.008 183.955 997.402 186.106 999.614 187.591C1001.83 189.046 1004.66 189.773 1008.11 189.773C1011.51 189.773 1014.23 189.122 1016.3 187.819C1018.39 186.485 1019.45 184.773 1019.48 182.682C1019.45 180.925 1018.7 179.485 1017.25 178.364C1015.8 177.212 1013.55 176.334 1010.52 175.728L998.432 173.319C991.614 171.955 986.538 169.591 983.205 166.228C979.902 162.864 978.25 158.576 978.25 153.364C978.25 148.879 979.462 145.016 981.886 141.773C984.341 138.531 987.78 136.031 992.205 134.273C996.659 132.516 1001.87 131.637 1007.84 131.637C1016.66 131.637 1023.6 133.5 1028.66 137.228C1033.75 140.955 1036.72 146.031 1037.57 152.455Z" fill="#B4B4B4"/>
</svg>
