<svg width="665" height="461" viewBox="0 0 665 461" fill="none" xmlns="http://www.w3.org/2000/svg">
<path d="M87.6989 372.864H67.7899C67.4269 370.288 66.6839 368 65.5629 366C64.4419 363.97 63.0019 362.243 61.2449 360.819C59.4869 359.394 57.4569 358.303 55.1539 357.546C52.8809 356.788 50.4109 356.409 47.7449 356.409C42.9269 356.409 38.7299 357.606 35.1539 360C31.5779 362.364 28.8049 365.819 26.8359 370.364C24.8659 374.879 23.8809 380.364 23.8809 386.819C23.8809 393.455 24.8659 399.031 26.8359 403.546C28.8359 408.061 31.6239 411.47 35.1989 413.773C38.7749 416.076 42.9109 417.228 47.6079 417.228C50.2449 417.228 52.6839 416.879 54.9269 416.182C57.1989 415.485 59.2139 414.47 60.9719 413.137C62.7299 411.773 64.1839 410.122 65.3359 408.182C66.5169 406.243 67.3359 404.031 67.7899 401.546L87.6989 401.637C87.1839 405.909 85.8959 410.031 83.8359 414C81.8049 417.94 79.0629 421.47 75.6079 424.591C72.1839 427.682 68.0929 430.137 63.3359 431.955C58.6079 433.743 53.2599 434.637 47.2899 434.637C38.9869 434.637 31.5629 432.758 25.0169 429C18.5019 425.243 13.3509 419.803 9.5629 412.682C5.8049 405.561 3.92688 396.94 3.92688 386.819C3.92688 376.667 5.8359 368.031 9.6539 360.909C13.4719 353.788 18.6539 348.364 25.1989 344.637C31.7449 340.879 39.1079 339 47.2899 339C52.6839 339 57.6839 339.757 62.2899 341.273C66.9269 342.788 71.0329 345 74.6079 347.909C78.1839 350.788 81.0929 354.319 83.3359 358.5C85.6079 362.682 87.0629 367.47 87.6989 372.864ZM121.358 434.682C116.904 434.682 112.934 433.909 109.449 432.364C105.964 430.788 103.207 428.47 101.177 425.409C99.1769 422.319 98.1769 418.47 98.1769 413.864C98.1769 409.985 98.8889 406.728 100.313 404.091C101.737 401.455 103.677 399.334 106.131 397.728C108.586 396.122 111.374 394.909 114.495 394.091C117.646 393.273 120.949 392.697 124.404 392.364C128.464 391.94 131.737 391.546 134.222 391.182C136.707 390.788 138.51 390.212 139.631 389.455C140.752 388.697 141.313 387.576 141.313 386.091V385.819C141.313 382.94 140.404 380.712 138.586 379.137C136.798 377.561 134.252 376.773 130.949 376.773C127.464 376.773 124.692 377.546 122.631 379.091C120.57 380.606 119.207 382.516 118.54 384.819L100.631 383.364C101.54 379.122 103.328 375.455 105.995 372.364C108.661 369.243 112.101 366.849 116.313 365.182C120.555 363.485 125.464 362.637 131.04 362.637C134.919 362.637 138.631 363.091 142.177 364C145.752 364.909 148.919 366.319 151.677 368.228C154.464 370.137 156.661 372.591 158.267 375.591C159.874 378.561 160.677 382.122 160.677 386.273V433.364H142.313V423.682H141.767C140.646 425.864 139.146 427.788 137.267 429.455C135.389 431.091 133.131 432.379 130.495 433.319C127.858 434.228 124.813 434.682 121.358 434.682ZM126.904 421.319C129.752 421.319 132.267 420.758 134.449 419.637C136.631 418.485 138.343 416.94 139.586 415C140.828 413.061 141.449 410.864 141.449 408.409V401C140.843 401.394 140.01 401.758 138.949 402.091C137.919 402.394 136.752 402.682 135.449 402.955C134.146 403.197 132.843 403.425 131.54 403.637C130.237 403.819 129.055 403.985 127.995 404.137C125.722 404.47 123.737 405 122.04 405.728C120.343 406.455 119.025 407.44 118.086 408.682C117.146 409.894 116.677 411.409 116.677 413.228C116.677 415.864 117.631 417.879 119.54 419.273C121.48 420.637 123.934 421.319 126.904 421.319ZM195.063 340.273V433.364H175.699V340.273H195.063ZM230.483 434.682C226.029 434.682 222.059 433.909 218.574 432.364C215.089 430.788 212.332 428.47 210.302 425.409C208.302 422.319 207.302 418.47 207.302 413.864C207.302 409.985 208.014 406.728 209.438 404.091C210.862 401.455 212.802 399.334 215.256 397.728C217.711 396.122 220.499 394.909 223.62 394.091C226.771 393.273 230.074 392.697 233.529 392.364C237.589 391.94 240.862 391.546 243.347 391.182C245.832 390.788 247.635 390.212 248.756 389.455C249.877 388.697 250.438 387.576 250.438 386.091V385.819C250.438 382.94 249.529 380.712 247.711 379.137C245.923 377.561 243.377 376.773 240.074 376.773C236.589 376.773 233.817 377.546 231.756 379.091C229.695 380.606 228.332 382.516 227.665 384.819L209.756 383.364C210.665 379.122 212.453 375.455 215.12 372.364C217.786 369.243 221.226 366.849 225.438 365.182C229.68 363.485 234.589 362.637 240.165 362.637C244.044 362.637 247.756 363.091 251.302 364C254.877 364.909 258.044 366.319 260.802 368.228C263.589 370.137 265.786 372.591 267.392 375.591C268.999 378.561 269.802 382.122 269.802 386.273V433.364H251.438V423.682H250.892C249.771 425.864 248.271 427.788 246.392 429.455C244.514 431.091 242.256 432.379 239.62 433.319C236.983 434.228 233.938 434.682 230.483 434.682ZM236.029 421.319C238.877 421.319 241.392 420.758 243.574 419.637C245.756 418.485 247.468 416.94 248.711 415C249.953 413.061 250.574 410.864 250.574 408.409V401C249.968 401.394 249.135 401.758 248.074 402.091C247.044 402.394 245.877 402.682 244.574 402.955C243.271 403.197 241.968 403.425 240.665 403.637C239.362 403.819 238.18 403.985 237.12 404.137C234.847 404.47 232.862 405 231.165 405.728C229.468 406.455 228.15 407.44 227.211 408.682C226.271 409.894 225.802 411.409 225.802 413.228C225.802 415.864 226.756 417.879 228.665 419.273C230.605 420.637 233.059 421.319 236.029 421.319ZM316.279 461C310.006 461 304.627 460.137 300.142 458.409C295.688 456.712 292.142 454.394 289.506 451.455C286.87 448.516 285.158 445.212 284.37 441.546L302.279 439.137C302.824 440.531 303.688 441.834 304.87 443.046C306.052 444.258 307.612 445.228 309.552 445.955C311.521 446.712 313.915 447.091 316.733 447.091C320.945 447.091 324.415 446.061 327.142 444C329.9 441.97 331.279 438.561 331.279 433.773V421H330.461C329.612 422.94 328.339 424.773 326.642 426.5C324.945 428.228 322.764 429.637 320.097 430.728C317.43 431.819 314.249 432.364 310.552 432.364C305.309 432.364 300.536 431.152 296.233 428.728C291.961 426.273 288.552 422.531 286.006 417.5C283.491 412.44 282.233 406.046 282.233 398.319C282.233 390.409 283.521 383.803 286.097 378.5C288.673 373.197 292.097 369.228 296.37 366.591C300.673 363.955 305.385 362.637 310.506 362.637C314.415 362.637 317.688 363.303 320.324 364.637C322.961 365.94 325.082 367.576 326.688 369.546C328.324 371.485 329.582 373.394 330.461 375.273H331.188V363.546H350.415V434.046C350.415 439.985 348.961 444.955 346.052 448.955C343.142 452.955 339.112 455.955 333.961 457.955C328.839 459.985 322.945 461 316.279 461ZM316.688 417.819C319.809 417.819 322.445 417.046 324.597 415.5C326.779 413.925 328.445 411.682 329.597 408.773C330.779 405.834 331.37 402.319 331.37 398.228C331.37 394.137 330.794 390.591 329.642 387.591C328.491 384.561 326.824 382.212 324.642 380.546C322.461 378.879 319.809 378.046 316.688 378.046C313.506 378.046 310.824 378.909 308.642 380.637C306.461 382.334 304.809 384.697 303.688 387.728C302.567 390.758 302.006 394.258 302.006 398.228C302.006 402.258 302.567 405.743 303.688 408.682C304.839 411.591 306.491 413.849 308.642 415.455C310.824 417.031 313.506 417.819 316.688 417.819ZM397.37 434.728C390.309 434.728 384.203 433.228 379.052 430.228C373.93 427.197 369.976 422.985 367.188 417.591C364.4 412.167 363.006 405.879 363.006 398.728C363.006 391.516 364.4 385.212 367.188 379.819C369.976 374.394 373.93 370.182 379.052 367.182C384.203 364.152 390.309 362.637 397.37 362.637C404.43 362.637 410.521 364.152 415.642 367.182C420.794 370.182 424.764 374.394 427.552 379.819C430.339 385.212 431.733 391.516 431.733 398.728C431.733 405.879 430.339 412.167 427.552 417.591C424.764 422.985 420.794 427.197 415.642 430.228C410.521 433.228 404.43 434.728 397.37 434.728ZM397.461 419.728C400.673 419.728 403.355 418.819 405.506 417C407.658 415.152 409.279 412.637 410.37 409.455C411.491 406.273 412.052 402.652 412.052 398.591C412.052 394.531 411.491 390.909 410.37 387.728C409.279 384.546 407.658 382.031 405.506 380.182C403.355 378.334 400.673 377.409 397.461 377.409C394.218 377.409 391.491 378.334 389.279 380.182C387.097 382.031 385.445 384.546 384.324 387.728C383.233 390.909 382.688 394.531 382.688 398.591C382.688 402.652 383.233 406.273 384.324 409.455C385.445 412.637 387.097 415.152 389.279 417C391.491 418.819 394.218 419.728 397.461 419.728ZM444.324 459.546V363.546H463.415V375.273H464.279C465.127 373.394 466.355 371.485 467.961 369.546C469.597 367.576 471.718 365.94 474.324 364.637C476.961 363.303 480.233 362.637 484.142 362.637C489.233 362.637 493.93 363.97 498.233 366.637C502.536 369.273 505.976 373.258 508.552 378.591C511.127 383.894 512.415 390.546 512.415 398.546C512.415 406.334 511.158 412.909 508.642 418.273C506.158 423.606 502.764 427.652 498.461 430.409C494.188 433.137 489.4 434.5 484.097 434.5C480.339 434.5 477.142 433.879 474.506 432.637C471.9 431.394 469.764 429.834 468.097 427.955C466.43 426.046 465.158 424.122 464.279 422.182H463.688V459.546H444.324ZM463.279 398.455C463.279 402.606 463.855 406.228 465.006 409.319C466.158 412.409 467.824 414.819 470.006 416.546C472.188 418.243 474.839 419.091 477.961 419.091C481.112 419.091 483.779 418.228 485.961 416.5C488.142 414.743 489.794 412.319 490.915 409.228C492.067 406.106 492.642 402.516 492.642 398.455C492.642 394.425 492.082 390.879 490.961 387.819C489.839 384.758 488.188 382.364 486.006 380.637C483.824 378.909 481.142 378.046 477.961 378.046C474.809 378.046 472.142 378.879 469.961 380.546C467.809 382.212 466.158 384.576 465.006 387.637C463.855 390.697 463.279 394.303 463.279 398.455ZM570.097 403.637V363.546H589.461V433.364H570.87V420.682H570.142C568.567 424.773 565.945 428.061 562.279 430.546C558.642 433.031 554.203 434.273 548.961 434.273C544.294 434.273 540.188 433.212 536.642 431.091C533.097 428.97 530.324 425.955 528.324 422.046C526.355 418.137 525.355 413.455 525.324 408V363.546H544.688V404.546C544.718 408.667 545.824 411.925 548.006 414.319C550.188 416.712 553.112 417.909 556.779 417.909C559.112 417.909 561.294 417.379 563.324 416.319C565.355 415.228 566.991 413.622 568.233 411.5C569.506 409.379 570.127 406.758 570.097 403.637ZM663.042 383.455L645.312 384.546C645.012 383.031 644.362 381.667 643.362 380.455C642.362 379.212 641.042 378.228 639.402 377.5C637.802 376.743 635.872 376.364 633.632 376.364C630.632 376.364 628.102 377 626.042 378.273C623.98 379.516 622.949 381.182 622.949 383.273C622.949 384.94 623.616 386.349 624.949 387.5C626.282 388.652 628.572 389.576 631.812 390.273L644.452 392.819C651.242 394.212 656.302 396.455 659.632 399.546C662.962 402.637 664.632 406.697 664.632 411.728C664.632 416.303 663.282 420.319 660.582 423.773C657.922 427.228 654.252 429.925 649.582 431.864C644.952 433.773 639.602 434.728 633.542 434.728C624.298 434.728 616.934 432.803 611.449 428.955C605.995 425.076 602.798 419.803 601.858 413.137L620.904 412.137C621.48 414.955 622.874 417.106 625.086 418.591C627.302 420.046 630.132 420.773 633.582 420.773C636.982 420.773 639.702 420.122 641.772 418.819C643.862 417.485 644.922 415.773 644.952 413.682C644.922 411.925 644.172 410.485 642.722 409.364C641.272 408.212 639.022 407.334 635.992 406.728L623.904 404.319C617.086 402.955 612.01 400.591 608.677 397.228C605.374 393.864 603.722 389.576 603.722 384.364C603.722 379.879 604.934 376.016 607.358 372.773C609.813 369.531 613.252 367.031 617.677 365.273C622.131 363.516 627.342 362.637 633.312 362.637C642.132 362.637 649.072 364.5 654.132 368.228C659.222 371.955 662.192 377.031 663.042 383.455Z" fill="#B4B4B4"/>
<path d="M221.783 330.1C226.038 331.076 228.597 330.1 232.964 330.1C235.524 330.1 236.965 330.273 239.518 330.1C242.557 329.894 244.472 330.234 247.23 328.947C248.894 328.171 250.228 327.878 251.085 326.258C251.791 324.924 251.389 323.922 251.471 322.416C251.569 320.618 251.698 319.592 251.471 317.806C251.153 315.311 250.827 313.824 249.543 311.659C248.404 309.738 247.507 308.731 245.687 307.432C243.823 306.102 240.29 305.127 240.29 305.127C240.29 305.127 239.996 302.321 239.904 300.517C239.614 294.815 239.98 291.585 240.675 285.917C241.027 283.053 241.036 281.393 241.832 278.618C242.5 276.287 242.961 274.972 244.145 272.855C245.863 269.784 247.478 268.468 249.929 265.939C254.093 261.64 257.319 260.212 261.881 256.334C266.828 252.129 269.744 249.894 274.219 245.193C279.009 240.16 285.4 231.362 285.4 231.362C285.4 231.362 285.798 236.304 285.4 239.43C285.069 242.029 284.682 243.473 283.858 245.961C282.928 248.767 282.09 250.228 280.773 252.877C278.767 256.912 275.935 258.462 274.99 262.866C274.579 264.779 274.508 265.906 274.604 267.86C274.718 270.153 275.241 271.387 275.761 273.623C278.203 284.128 281.993 289.265 285.786 299.364C288.089 305.499 288.309 309.428 291.569 315.116C292.915 317.465 293.919 319.829 295.425 320.879C296.93 321.93 297.586 322.859 299.28 323.569C301.381 324.448 302.796 324.118 305.063 324.337C311.208 324.932 314.733 324.992 320.871 324.337C323.751 324.03 325.685 324.62 328.197 323.184C329.585 322.391 330.544 321.911 331.281 320.495C332.048 319.024 331.797 317.921 331.667 316.269C331.559 314.89 331.256 314.147 330.896 312.811C330.402 310.978 330.267 309.866 329.354 308.201C328.53 306.7 327.852 305.969 326.655 304.743C325.31 303.366 324.481 302.609 322.799 301.669C320.346 300.299 315.859 299.749 315.859 299.749C315.859 299.749 311.329 291.54 309.305 285.917C308.033 282.387 307.162 280.407 306.606 276.697C306.338 274.91 306.046 273.885 306.22 272.086C306.385 270.384 306.724 269.442 307.377 267.86C308.33 265.551 309.359 264.491 310.847 262.481C312.873 259.744 314.443 258.562 316.63 255.95C316.63 255.95 321.638 250.08 324.341 245.961C326.887 242.083 330.125 235.588 330.125 235.588C330.125 235.588 332.449 230.514 333.595 227.135C334.694 223.894 335.908 218.683 335.908 218.683L348.632 223.293C348.632 223.293 348.877 224.697 349.017 225.599C349.758 230.364 349.651 233.099 350.174 237.893C350.929 244.812 352.487 255.566 352.487 255.566L354.029 275.928C354.632 283.88 354.683 288.132 355.572 295.907C355.967 299.364 356.013 301.337 356.728 304.743C357.402 307.951 358.272 309.625 359.042 312.811C360.009 316.817 359.353 319.393 360.969 323.184C361.999 325.6 362.53 327.14 364.44 328.947C367.034 331.404 369.436 331.596 372.922 332.405C377.908 333.563 380.922 332.731 386.031 332.405C390.877 332.097 394.021 333.024 398.369 330.868C399.64 330.238 400.585 330.068 401.453 328.947C402.664 327.386 402.242 325.926 402.224 323.953C402.204 321.696 401.789 320.417 401.103 318.298L401.068 318.19C400.302 315.827 399.93 314.363 398.369 312.427C396.822 310.509 395.569 309.678 393.356 308.585C391.522 307.679 388.344 307.048 388.344 307.048C388.344 307.048 386.702 302.425 386.031 299.364C384.869 294.069 384.987 290.952 384.874 285.533C384.724 278.319 385.376 274.278 386.031 267.092C386.62 260.623 387.959 250.571 387.959 250.571L391.429 229.056L397.983 228.288C397.983 228.288 398.217 229.693 398.369 230.593C398.369 230.593 399.818 238.548 400.682 243.656C401.974 251.294 402.679 255.58 403.767 263.25C405.166 273.127 405.669 278.702 406.851 288.607C407.459 293.707 406.737 297.919 408.393 301.669L412.634 311.274C414.291 315.025 413.827 317.421 415.719 320.879C417.059 323.33 417.721 324.966 419.96 326.642C421.794 328.015 423.152 328.32 425.358 328.947C430.136 330.306 433.116 329.129 438.081 328.947C442.455 328.788 445.086 329.483 449.262 328.179C451.641 327.436 453.751 327.612 455.046 325.49C455.843 324.182 455.717 323.175 455.817 321.648C455.965 319.382 455.653 318.073 455.046 315.885C454.293 313.168 453.695 311.581 451.961 309.353C450.59 307.591 449.649 306.643 447.72 305.511C445.045 303.942 440.009 303.59 440.009 303.59C440.009 303.59 437.529 299.287 436.539 296.291C435.579 293.384 435.411 291.639 434.997 288.607C434.286 283.401 434.677 280.413 434.611 275.16C434.495 265.857 434.376 260.623 434.997 251.34C435.663 241.387 436.498 235.832 438.081 225.983C439.123 219.503 441.166 209.462 441.166 209.462C441.166 209.462 444.545 206.27 446.564 204.084C448.953 201.497 450.164 199.93 452.347 197.168C454.21 194.811 455.378 193.566 456.974 191.021C458.758 188.176 459.534 186.434 460.829 183.337C461.873 180.84 462.348 179.392 463.143 176.806C463.827 174.578 462.594 172.083 464.685 171.043C465.504 170.635 466.295 171.243 466.998 170.659C467.729 170.051 467.517 169.268 467.769 168.353C468.255 166.593 468.288 165.551 468.54 163.743C469.019 160.312 469.164 158.367 469.312 154.906C469.452 151.609 469.426 149.753 469.312 146.454C469.134 141.336 468.73 138.48 468.155 133.391C467.542 127.973 466.227 119.56 466.227 119.56C466.227 119.56 472.136 120.063 475.866 119.56C478.002 119.273 479.272 119.23 481.264 118.408C482.886 117.738 483.765 117.216 485.119 116.103C486.518 114.953 486.717 113.679 488.204 112.645C489.42 111.799 490.441 111.929 491.674 111.108C493.09 110.165 493.715 109.376 494.758 108.035C496.12 106.283 497.184 105.238 497.457 103.04C497.55 102.295 497.389 101.866 497.457 101.119C497.63 99.2289 498.984 98.4064 499 96.5086C499.011 95.1254 498.803 94.3101 498.228 93.0508C497.39 91.2133 496.203 90.6235 494.758 89.2089C492.544 87.0412 490.96 86.2109 488.589 84.2143C485.982 82.0186 483.542 81.5037 482.035 78.4514C480.633 75.6113 481.565 73.5341 481.264 70.3833C480.963 67.2325 481.236 65.3923 480.493 62.3151C479.734 59.173 477.959 57.8162 477.408 54.6312C476.471 49.2086 479.117 46.2135 480.107 40.8001C480.573 38.252 480.953 36.8403 481.264 34.2688C481.714 30.5417 481.791 28.4152 481.649 24.6639L481.638 24.3656C481.532 21.534 481.469 19.8348 480.878 16.9799C480.273 14.052 480.769 11.7087 478.565 9.68022C477.328 8.54198 476.374 8.0101 474.709 7.75923C472.723 7.45988 471.603 8.27976 469.697 8.91182C466.117 10.099 464.394 11.4978 461.215 13.5222C456.34 16.6257 453.617 18.5498 449.648 22.7429C447.147 25.385 443.865 30.0426 443.865 30.0426C443.865 30.0426 439.648 29.4104 436.925 29.2742C434.669 29.1615 431.141 29.2742 431.141 29.2742C431.141 29.2742 426.552 22.8806 423.044 19.2851C419.845 16.0062 417.831 14.3681 414.177 11.6012C411.417 9.51129 410.053 7.92905 406.851 6.60664C404.557 5.6593 403.143 4.73552 400.682 5.06986C399.075 5.2882 398.148 5.6706 396.826 6.60664C395.522 7.53051 395.092 8.40749 394.128 9.68022C392.259 12.1456 391.588 13.7982 390.272 16.5958C388.049 21.3216 386.784 24.6231 386.031 29.2742L384.103 41.1843C383.35 45.8355 383.663 48.2069 383.717 52.7102C383.758 56.0142 384.789 57.9298 384.103 61.1625C383.28 65.0407 380.73 66.3872 379.091 69.9991C376.756 75.1453 376.207 78.3466 374.85 83.8301C373.746 88.2868 374.645 91.2749 372.536 95.356C370.05 100.168 366.125 102.41 362.512 104.961L353.258 111.492C349.645 114.043 347.939 113.842 344.39 114.95C337.682 117.044 333.619 117.065 326.655 118.024C315.878 119.507 309.734 119.411 298.895 120.329C290.161 121.068 285.14 120.599 276.532 122.25C267.879 123.909 262.876 124.962 254.941 128.781C248.473 131.894 245.019 134.167 239.518 138.77C237.153 140.75 236.025 142.083 233.735 144.149C229.619 147.863 226.841 149.432 222.939 153.37C216.592 159.776 213.751 164.118 209.059 171.811C204.373 179.496 202.649 184.318 199.035 192.558C195.597 200.395 194.273 205.039 190.938 212.92C188.895 217.749 187.812 220.488 185.54 225.214C182.136 232.299 179.347 235.822 175.901 242.887C173.308 248.204 171.414 251.05 169.732 256.719C168.216 261.828 167.869 264.856 167.419 270.165C166.975 275.398 166.756 278.403 167.419 283.612C168.044 288.522 168.575 291.346 170.503 295.907C172.128 299.748 172.753 302.382 175.901 305.127C176.876 305.977 177.305 307.07 178.6 307.048C179.988 307.025 180.371 305.772 181.299 304.743C183.01 302.846 182.952 301.095 184.384 298.98C186.013 296.572 187.217 295.378 189.241 293.371L189.396 293.217C192.662 289.977 194.832 288.491 198.649 285.917C203.616 282.569 212.144 278.618 212.144 278.618C212.144 278.618 211.915 287.984 211.758 293.986C211.758 293.986 211.441 302.648 211.373 308.201C211.373 308.201 210.036 315.655 211.373 320.111C212.357 323.392 212.899 325.695 215.614 327.795C217.646 329.367 219.275 329.525 221.783 330.1Z" fill="#B4B4B4"/>
<path d="M208.674 270.934C210.051 269.759 211.758 269.781 212.144 267.86C212.529 265.939 211.851 261.746 213.3 258.255C214.258 255.948 215.243 254.856 216.77 252.877C218.395 250.773 219.834 250.031 221.397 247.882C222.822 245.923 223.462 244.699 224.482 242.503C226.323 238.538 226.897 236.064 227.566 231.746C228.187 227.739 228.003 225.426 227.952 221.372C227.881 215.803 227.097 212.719 226.795 207.157C226.518 202.061 226.224 199.195 226.409 194.095C226.58 189.425 226.757 186.787 227.566 182.184C228.398 177.453 228.576 174.61 230.651 170.274C231.551 168.393 232.578 165.664 233.35 165.664C234.121 165.664 233.35 169.122 233.35 169.122C233.35 169.122 232.814 171.922 232.578 173.732C231.94 178.645 232.209 181.457 232.193 186.411C232.175 191.964 232.127 197.775 232.578 200.626L233.735 207.926C234.187 210.776 234.35 213.536 234.506 217.146C234.675 221.044 234.686 223.238 234.506 227.135C234.347 230.596 234.479 232.588 233.735 235.972C233.125 238.747 232.508 240.247 231.428 242.871L231.422 242.887C229.94 246.489 229.132 248.605 226.795 251.724C225.328 253.681 224.096 254.436 222.554 256.334C221.266 257.921 220.236 258.668 219.469 260.56C218.783 262.253 218.901 263.357 218.698 265.171C218.281 268.899 218.698 269.074 218.698 274.776C218.698 274.776 218.837 283.675 218.698 289.375C218.552 295.382 218.163 298.739 217.927 304.743C217.732 309.693 217.156 316.269 217.542 317.422C217.927 318.574 218.452 320.583 219.855 322.032C221.074 323.291 222.062 323.736 223.711 324.337C226.26 325.267 229.88 325.105 230.651 324.721C231.422 324.337 231.287 323.355 231.422 322.416C231.66 320.755 231.284 319.744 230.651 318.19C230.117 316.878 228.337 315.501 228.723 315.116C229.108 314.732 229.93 314.898 230.651 315.116C231.979 315.519 232.219 316.639 232.964 317.806C233.506 318.655 233.8 319.157 234.121 320.111C234.649 321.682 234.121 323.953 234.506 324.337C234.892 324.721 240.675 324.337 241.061 323.953C241.446 323.569 241.135 322.077 241.061 320.879C240.986 319.672 240.995 318.973 240.675 317.806C240.232 316.187 238.747 314.348 238.747 313.964C238.747 313.58 240.839 314.594 241.832 315.501C242.975 316.544 243.227 317.508 243.76 318.958C244.389 320.673 244.145 323.569 244.531 323.569C244.916 323.569 246.073 323.184 246.459 322.416C246.844 321.648 246.586 319.539 246.073 317.806C245.539 316.003 244.969 315.023 243.76 313.58C242.524 312.104 241.606 311.409 239.904 310.506C237.969 309.479 235.955 310.609 234.506 308.969C233.276 307.576 233.678 306.186 233.35 304.359C232.685 300.664 232.943 298.508 232.964 294.754C232.982 291.45 232.996 289.587 233.35 286.302C233.725 282.819 233.966 280.844 234.892 277.465C235.607 274.856 235.944 273.329 237.205 270.934C238.408 268.648 239.442 267.57 241.061 265.555C243.523 262.489 245.118 260.933 248.001 258.255C251.922 254.612 254.692 253.241 258.796 249.803C261.247 247.75 262.702 246.68 264.965 244.424C267.229 242.169 268.361 240.766 270.363 238.277C273.133 234.834 274.52 232.766 276.918 229.056C279.001 225.833 280.286 224.071 281.93 220.604C283.639 217 284.26 214.82 285.4 210.999L285.5 210.665C286.324 207.904 286.819 206.247 287.328 203.315C287.844 200.344 287.974 198.644 288.099 195.631C288.267 191.581 287.909 189.307 287.713 185.258C287.583 182.556 286.557 178.727 287.328 178.342C288.099 177.958 289.211 180.044 290.027 181.416C290.842 182.788 293.457 190.891 293.882 193.71C294.308 196.529 293.882 201.394 294.268 202.931C294.578 204.166 296.113 203.24 297.352 202.931C298.895 202.547 298.744 202.4 299.666 202.163C302.294 201.486 303.892 201.71 306.606 201.778C310.097 201.867 312.057 202.208 315.474 202.931C322.093 204.332 325.358 206.638 331.667 209.078C337.401 211.296 342.48 214.841 348.632 214.841C349.017 214.841 349.017 212.536 349.017 212.536L349.017 201.778C349.017 201.778 347.861 191.405 348.632 191.021C349.403 190.637 350.191 193.524 350.945 195.247C352.011 197.684 352.203 199.205 352.873 201.778C354.712 208.846 354.944 212.989 355.957 220.22C355.957 220.22 357.677 236.369 358.656 246.729C359.634 257.075 360.366 262.865 360.969 273.239C361.527 282.83 360.969 291.296 361.741 297.828C362.512 304.359 364.497 308.09 365.982 314.732C366.451 316.829 366.304 318.13 367.138 320.111C367.898 321.915 368.431 322.972 369.837 324.337C370.765 325.238 371.35 325.74 372.536 326.258C374.472 327.104 375.822 326.578 377.934 326.642C379.496 326.689 381.694 327.026 381.934 326.642C382.175 326.258 381.997 324.752 381.79 323.569C381.544 322.166 381.359 321.337 380.633 320.111C380.143 319.283 379.025 318.574 379.091 318.19C379.156 317.806 379.713 317.514 380.247 317.422C381.112 317.272 382.175 318.574 382.175 318.574C382.175 318.574 383.225 319.418 383.717 320.111C384.461 321.157 384.505 321.957 384.874 323.184C385.273 324.509 384.874 326.258 385.645 326.642C386.416 327.026 389.114 327.026 389.886 327.026C390.658 327.026 391.415 326.653 391.814 325.874C392.156 325.206 391.814 323.953 391.814 323.953C391.814 323.953 391.508 322.027 391.043 320.879C390.589 319.758 389.501 318.19 389.501 318.19C389.501 318.19 388.407 316.563 389.115 316.269C389.393 316.154 389.587 316.235 389.886 316.269C391.173 316.415 391.79 317.171 392.585 318.19C393.289 319.092 393.359 319.802 393.742 320.879C394.412 322.766 394.513 325.874 394.899 325.874C395.284 325.874 396.055 325.874 396.826 324.721C397.598 323.569 396.771 320.756 395.67 318.574C394.899 317.046 394.268 316.237 392.971 315.116C391.545 313.885 390.446 313.591 388.73 312.811C386.693 311.886 384.976 312.403 383.332 310.89C381.848 309.524 381.788 308.141 381.019 306.28C379.711 303.116 379.257 301.204 378.705 297.828C378.052 293.826 378.336 291.508 378.32 287.454C378.295 281.146 378.662 277.612 379.091 271.318C379.347 267.564 379.528 265.461 379.862 261.713C380.384 255.854 380.74 252.574 381.404 246.729C381.83 242.976 382.012 240.863 382.561 237.124C383.292 232.145 383.566 229.307 384.874 224.446L384.966 224.105C385.563 221.883 385.927 220.529 386.802 218.299C387.587 216.298 388.13 215.215 389.115 213.304C391.063 209.528 392.775 207.765 394.899 204.084C397.517 199.546 399.022 196.994 401.068 192.174C402.44 188.939 403.192 187.101 404.152 183.721C404.909 181.059 405.309 177.574 405.694 176.806C406.08 176.037 406.529 175.396 407.237 175.653C407.958 175.915 407.622 177.574 407.622 177.574C407.622 177.574 407.538 178.481 407.237 181.032L406.465 187.563C406.164 190.114 405.777 192.77 404.923 196.015C403.824 200.194 402.786 202.423 401.068 206.389C398.852 211.502 393.742 219.836 394.513 220.604C395.284 221.372 399.525 220.22 399.525 220.22C399.525 220.22 403.074 219.622 405.309 219.067C409.005 218.149 411.025 217.401 414.562 215.994C418.753 214.327 421.116 213.334 424.972 210.999C428.832 208.662 430.742 206.949 434.226 204.084C437.186 201.648 438.911 200.329 441.551 197.552C444.576 194.371 446.105 192.397 448.491 188.716C450.356 185.839 451.244 184.119 452.732 181.032C454.077 178.244 454.918 176.693 455.817 173.732C456.791 170.521 456.909 168.605 457.359 165.28C457.824 161.847 457.359 156.443 458.13 156.443C459.621 156.443 460.111 160.224 461.6 160.285C462.221 160.311 462.371 157.596 462.371 155.291C462.371 152.985 462.194 153.056 461.986 149.912C461.766 146.588 461.557 145.224 461.215 142.228C460.596 136.81 460.202 133.773 459.287 128.397C458.62 124.48 457.745 119.56 457.359 118.408C456.974 117.255 456.552 117.109 455.817 116.487C454.474 115.35 453.247 115.509 451.576 114.95C449.046 114.104 447.634 113.566 445.021 113.029C442.79 112.571 441.405 112.962 439.238 112.261C438.147 111.908 436.008 112.121 436.539 111.108C436.851 110.513 437.696 110.34 438.081 110.34C438.467 110.34 444.425 109.832 448.491 109.955C452.879 110.088 456.974 110.724 459.673 111.108C462.372 111.492 465.062 112.352 468.54 113.029C471.99 113.701 478.565 114.566 478.565 113.797C478.565 113.029 475.741 112.874 473.938 112.261C471.369 111.387 467.384 109.955 467.384 109.955C467.384 109.955 464.981 109.136 463.528 108.419C462.44 107.882 460.829 107.266 460.829 106.882C460.829 106.498 462.478 106.789 463.528 106.882C465.383 107.046 466.345 107.598 468.155 108.035C471.457 108.83 473.253 109.667 476.637 109.955C478.737 110.135 480.011 110.544 482.035 109.955C483.328 109.58 483.97 109.118 485.119 108.419C486.404 107.636 487.959 107.594 488.204 106.114C488.329 105.359 488.975 104.577 487.818 104.193C486.662 103.808 486.571 103.593 485.891 103.04C484.979 102.3 484.575 101.735 483.963 100.735C483.365 99.7594 482.945 99.1797 482.806 98.0454C482.677 96.9922 482.681 96.2867 483.192 95.356C483.6 94.6114 484.069 94.3501 484.734 93.8192C485.681 93.0626 485.891 93.0508 487.433 92.2824C488.975 91.5141 488.589 91.5141 487.047 90.3615L486.886 90.2411C485.327 89.0766 482.804 87.1923 480.493 84.9827C478.57 83.1452 477.545 82.0489 475.866 79.9882C474.233 77.9841 472.396 75.3778 472.01 74.6094C471.625 73.841 473.354 70.6721 473.938 68.0781C474.307 66.4414 474.593 65.5254 474.709 63.8519C474.782 62.8042 474.844 62.2041 474.709 61.1625C474.39 58.6995 473.295 57.5278 472.01 55.3996C469.593 51.3954 467.497 49.5776 463.914 46.5631C461.52 44.549 460.018 43.6039 457.359 41.9527C453.758 39.7168 451.676 38.4869 447.72 36.9582C442.953 35.116 437.31 33.8846 434.997 33.8846C432.683 33.8846 433.455 35.4214 433.455 35.4214C433.455 35.4214 433.969 37.0487 434.226 38.1108C434.654 39.8855 434.997 40.8001 434.997 42.7211C434.997 44.6421 434.619 46.1789 433.069 46.1789C431.519 46.1789 431.141 42.7211 431.141 42.7211C431.141 42.7211 429.045 39.4308 427.671 37.3424C426.481 35.5327 425.885 34.4665 424.587 32.732C422.673 30.1751 421.447 29.1355 419.189 26.5849L413.405 20.0535C411.147 17.5029 407.622 15.059 407.622 15.059C407.622 15.059 404.505 12.5452 402.224 13.138C400.676 13.5406 400.224 14.2702 399.14 15.4432C398.119 16.5465 397.599 17.2288 396.826 18.5167C395.507 20.7176 394.899 21.9745 394.128 24.6639L394.112 24.7197C393.349 27.3805 392.789 29.3327 392.2 32.3478C391.561 35.6178 391.273 37.4767 391.043 40.8001C390.804 44.2428 390.677 46.2051 391.043 49.6366C391.417 53.1484 392.039 55.0658 392.971 58.4732C393.634 60.8998 395.284 64.3211 394.899 64.6203C393.592 65.6344 392.114 63.835 390.658 64.6203C389.225 65.3925 389.171 66.6799 388.344 68.0781C387.319 69.8123 386.031 72.6884 386.031 72.6884C384.676 76.2893 383.605 78.2068 382.561 81.9091C381.442 85.8754 381.386 88.2314 380.633 92.2824C379.88 96.3335 381.019 98.0454 379.476 100.351C377.934 102.656 373.287 106.379 369.066 109.955C365.555 112.931 363.724 114.826 359.813 117.255C357.355 118.782 355.938 119.618 353.258 120.713C350.216 121.957 348.356 122.24 345.162 123.018C336.453 125.14 331.749 125.342 322.414 126.092C322.414 126.092 307.844 127.257 298.509 128.013C291.131 128.61 286.914 128.309 279.617 129.549C274.432 130.431 271.507 130.996 266.508 132.623C261.696 134.189 258.956 135.126 254.555 137.618C250.339 140.004 248.09 141.637 244.531 144.917C242.263 147.008 242.747 147.68 239.133 150.68L229.879 158.364C226.266 161.365 225.461 162.646 222.939 165.664C219.759 169.471 218.239 171.831 215.614 176.037C210.67 183.958 208.907 188.986 205.204 197.552C202.261 204.359 201.215 208.423 198.264 215.225C194.95 222.863 192.323 228.584 189.01 234.435C189.01 234.435 183.256 243.275 180.528 249.419C178.081 254.929 176.713 258.112 175.516 264.018C174.468 269.184 174.226 272.196 174.359 277.465C174.462 281.54 174.459 283.901 175.516 287.838C176.353 290.961 177.443 295.522 178.6 295.522C179.757 295.522 180.949 291.596 182.841 289.375C184.357 287.596 185.302 286.665 187.082 285.149C189.052 283.472 190.349 282.774 192.48 281.307C194.714 279.77 195.916 278.822 198.264 277.465C200.594 276.119 202.191 275.879 204.433 274.392C206.214 273.21 207.048 272.32 208.674 270.934Z" fill="white"/>
<path d="M438.449 75.5712C437.615 75.3863 435.323 74.8324 434.055 74.0744C432.486 73.1361 440.019 71.2595 440.019 71.2595C443.825 70.1736 445.865 69.954 449.291 70.0061C449.386 70.0075 449.48 70.0264 449.568 70.0625C454.027 71.912 456.828 76.0072 457.719 81.8645C457.816 82.5023 457.102 82.9372 456.543 82.6128C455.683 82.1146 454.645 81.5808 454.143 81.5808H445.492C445.398 81.5808 445.308 81.5632 445.22 81.5289C441.894 80.2292 440.757 78.6527 438.94 75.9065C438.827 75.735 438.65 75.6158 438.449 75.5712Z" fill="#B4B4B4"/>
<path d="M447.552 74.6999C447.552 76.0818 446.428 77.2021 445.041 77.2021C443.654 77.2021 442.53 76.0818 442.53 74.6999C442.53 73.3181 443.654 72.1978 445.041 72.1978C446.428 72.1978 447.552 73.3181 447.552 74.6999Z" fill="white"/>
<path d="M473.095 14.9702C476.653 16.0656 474.566 33.5667 472.617 46.9732C472.527 47.5984 471.76 47.8498 471.311 47.4032L469.103 45.2024C468.988 45.0879 468.912 44.9438 468.891 44.7832C468.474 41.5986 469.393 35.6247 470.157 30.9485C470.296 30.0979 469.187 29.7318 468.783 30.494L463.935 39.6478C463.719 40.056 463.193 40.1835 462.813 39.92L455.234 34.6665C454.908 34.4408 454.806 34.0078 455.004 33.6651C460.108 24.8177 469.485 13.8585 473.095 14.9702Z" fill="white"/>
<path d="M398.547 39.1876C398.371 44.3054 399.174 50.6426 402.88 56.5999C403.183 57.0871 403.894 57.0531 404.217 56.5784C405.391 54.8496 406.774 53.8924 409.307 52.8145C409.721 52.6381 409.906 52.1515 409.716 51.7442C408.716 49.5983 408.361 47.99 408.43 45.5021C408.445 44.9528 409.032 44.6185 409.524 44.8654L412.658 46.4356C413.222 46.7182 413.865 46.2468 413.736 45.6307C411.651 35.6083 405.132 21.7928 402.31 22.6362C399.345 23.5221 398.734 33.7682 398.547 39.1876Z" fill="#B4B4B4"/>
<path d="M312.004 209.462C318.702 210.424 328.197 214.841 328.197 215.61C328.197 216.378 326.888 223.739 325.113 228.672C323.771 232.401 322.844 234.454 320.871 237.893C318.569 241.905 316.655 243.756 313.931 247.498C311.085 251.409 309.353 253.506 306.606 257.487C304.263 260.882 302.163 262.426 300.822 266.323C299.835 269.194 299.834 270.978 299.666 274.007C299.566 275.805 299.28 277.081 299.666 278.618C300.051 280.155 302.386 287.18 304.678 292.449C306.686 297.066 310.461 303.59 310.461 303.975C310.461 304.359 312.572 304.69 313.931 305.127C316.923 306.09 319.093 305.599 321.642 307.432C323.285 308.614 324.26 309.443 325.113 311.274C325.883 312.93 325.884 315.501 325.884 315.885C325.884 316.269 325.143 312.17 323.57 310.506C322.682 309.566 322.162 308.479 320.871 308.585C320.397 308.624 319.715 308.585 319.715 308.969C319.715 309.353 322.028 312.811 322.028 312.811C322.028 312.811 323.785 315.051 323.57 316.653C323.463 317.454 323.185 318.243 322.799 318.574C322.414 318.905 318.172 318.958 317.787 318.958C317.401 318.958 317.356 316.923 317.016 315.885C316.617 314.666 316.607 313.854 315.859 312.811C314.984 311.59 314.192 311.013 312.775 310.506C311.913 310.197 310.847 309.738 310.461 310.122C310.076 310.506 312.093 311.606 312.775 312.811C313.546 314.176 313.748 315.097 313.931 316.653C314.054 317.696 314.317 319.343 313.931 319.343C313.546 319.343 310.153 319.642 307.762 319.343C304.971 318.993 301.979 318.19 300.822 317.422C299.666 316.653 298.799 314.459 297.738 312.427C295.957 309.015 295.629 306.805 294.268 303.206C292.621 298.852 291.649 296.428 290.027 292.065C287.859 286.235 286.558 282.993 284.629 277.081C283.171 272.612 281.159 266.708 281.159 265.555C281.159 264.402 284.188 260.988 285.786 257.871C287.782 253.975 288.537 251.612 290.027 247.498C291.368 243.793 292.362 241.76 293.111 237.893C293.742 234.639 293.827 232.755 293.882 229.441C293.95 225.379 293.662 223.092 293.111 219.067C292.76 216.501 291.954 213.304 291.954 212.536C291.954 211.768 295.839 210.573 298.509 209.847C303.595 208.463 306.785 208.714 312.004 209.462Z" fill="white"/>
<path d="M405.309 226.751C406.08 225.983 412.277 223.86 414.948 223.133C414.948 223.133 419.223 221.459 421.888 220.22C425.917 218.346 431.483 214.841 431.912 214.841C432.683 214.841 430.935 222.33 430.37 227.135C429.718 232.681 429.338 235.79 428.828 241.351C428.264 247.493 427.671 249.151 427.671 257.103C427.671 265.055 427.386 269.518 427.671 277.465C427.855 282.572 427.508 285.503 428.442 290.528C429.067 293.892 430.756 298.98 430.756 298.98C430.756 298.98 433.455 307.497 434.611 308.041C435.768 308.585 437.493 308.148 438.852 308.585C441.844 309.548 443.243 309.665 445.792 311.499C448.342 313.332 449.262 315.501 449.262 315.885C449.262 316.269 445.021 312.651 445.021 312.651C444.547 312.69 443.865 312.651 443.865 313.035C443.865 313.42 446.564 316.493 446.564 316.493C446.564 316.493 447.935 319.118 447.72 320.719C447.613 321.52 447.335 322.309 446.949 322.64C446.564 322.971 442.322 323.024 441.937 323.024C441.551 323.024 441.506 320.989 441.166 319.951C440.767 318.732 440.757 317.921 440.009 316.877C439.134 315.656 438.342 315.08 436.925 314.572C436.063 314.264 434.997 313.804 434.611 314.188C434.226 314.572 436.243 315.672 436.925 316.877C437.696 318.242 437.898 319.164 438.081 320.719C438.204 321.762 438.467 323.409 438.081 323.409C437.696 323.409 434.303 323.708 431.912 323.409C429.121 323.059 426.129 322.256 424.972 321.488C423.816 320.719 422.563 318.909 421.502 316.877C419.721 313.466 419.779 310.871 418.418 307.272C418.418 307.272 415.972 303.058 414.948 300.133C412.805 294.015 414.125 290.052 413.405 283.612C412.75 277.749 412.3 274.471 411.478 268.629C410.271 260.054 408.008 246.729 408.008 246.729C408.008 246.729 406.431 240.075 406.08 237.509C405.729 234.942 404.538 227.52 405.309 226.751Z" fill="white"/>
</svg>
