<svg width="1068" height="337" viewBox="0 0 1068 337" fill="none" xmlns="http://www.w3.org/2000/svg">
<path d="M462.227 141.864H442.318C441.955 139.288 441.212 137 440.091 135C438.97 132.97 437.53 131.243 435.773 129.819C434.015 128.394 431.985 127.303 429.682 126.546C427.409 125.788 424.939 125.409 422.273 125.409C417.455 125.409 413.258 126.606 409.682 129C406.106 131.364 403.333 134.819 401.364 139.364C399.394 143.879 398.409 149.364 398.409 155.819C398.409 162.455 399.394 168.031 401.364 172.546C403.364 177.061 406.152 180.47 409.727 182.773C413.303 185.076 417.439 186.228 422.136 186.228C424.773 186.228 427.212 185.879 429.455 185.182C431.727 184.485 433.742 183.47 435.5 182.137C437.258 180.773 438.712 179.122 439.864 177.182C441.045 175.243 441.864 173.031 442.318 170.546L462.227 170.637C461.712 174.909 460.424 179.031 458.364 183C456.333 186.94 453.591 190.47 450.136 193.591C446.712 196.682 442.621 199.137 437.864 200.955C433.136 202.743 427.788 203.637 421.818 203.637C413.515 203.637 406.091 201.758 399.545 198C393.03 194.243 387.879 188.803 384.091 181.682C380.333 174.561 378.455 165.94 378.455 155.819C378.455 145.667 380.364 137.031 384.182 129.909C388 122.788 393.182 117.364 399.727 113.637C406.273 109.879 413.636 108 421.818 108C427.212 108 432.212 108.757 436.818 110.273C441.455 111.788 445.561 114 449.136 116.909C452.712 119.788 455.621 123.319 457.864 127.5C460.136 131.682 461.591 136.47 462.227 141.864ZM495.886 203.682C491.432 203.682 487.462 202.909 483.977 201.364C480.492 199.788 477.735 197.47 475.705 194.409C473.705 191.319 472.705 187.47 472.705 182.864C472.705 178.985 473.417 175.728 474.841 173.091C476.265 170.455 478.205 168.334 480.659 166.728C483.114 165.122 485.902 163.909 489.023 163.091C492.174 162.273 495.477 161.697 498.932 161.364C502.992 160.94 506.265 160.546 508.75 160.182C511.235 159.788 513.038 159.212 514.159 158.455C515.28 157.697 515.841 156.576 515.841 155.091V154.819C515.841 151.94 514.932 149.712 513.114 148.137C511.326 146.561 508.78 145.773 505.477 145.773C501.992 145.773 499.22 146.546 497.159 148.091C495.098 149.606 493.735 151.516 493.068 153.819L475.159 152.364C476.068 148.122 477.856 144.455 480.523 141.364C483.189 138.243 486.629 135.849 490.841 134.182C495.083 132.485 499.992 131.637 505.568 131.637C509.447 131.637 513.159 132.091 516.705 133C520.28 133.909 523.447 135.319 526.205 137.228C528.992 139.137 531.189 141.591 532.795 144.591C534.402 147.561 535.205 151.122 535.205 155.273V202.364H516.841V192.682H516.295C515.174 194.864 513.674 196.788 511.795 198.455C509.917 200.091 507.659 201.379 505.023 202.319C502.386 203.228 499.341 203.682 495.886 203.682ZM501.432 190.319C504.28 190.319 506.795 189.758 508.977 188.637C511.159 187.485 512.871 185.94 514.114 184C515.356 182.061 515.977 179.864 515.977 177.409V170C515.371 170.394 514.538 170.758 513.477 171.091C512.447 171.394 511.28 171.682 509.977 171.955C508.674 172.197 507.371 172.425 506.068 172.637C504.765 172.819 503.583 172.985 502.523 173.137C500.25 173.47 498.265 174 496.568 174.728C494.871 175.455 493.553 176.44 492.614 177.682C491.674 178.894 491.205 180.409 491.205 182.228C491.205 184.864 492.159 186.879 494.068 188.273C496.008 189.637 498.462 190.319 501.432 190.319ZM569.591 109.273V202.364H550.227V109.273H569.591ZM605.011 203.682C600.557 203.682 596.587 202.909 593.102 201.364C589.617 199.788 586.86 197.47 584.83 194.409C582.83 191.319 581.83 187.47 581.83 182.864C581.83 178.985 582.542 175.728 583.966 173.091C585.39 170.455 587.33 168.334 589.784 166.728C592.239 165.122 595.027 163.909 598.148 163.091C601.299 162.273 604.602 161.697 608.057 161.364C612.117 160.94 615.39 160.546 617.875 160.182C620.36 159.788 622.163 159.212 623.284 158.455C624.405 157.697 624.966 156.576 624.966 155.091V154.819C624.966 151.94 624.057 149.712 622.239 148.137C620.451 146.561 617.905 145.773 614.602 145.773C611.117 145.773 608.345 146.546 606.284 148.091C604.223 149.606 602.86 151.516 602.193 153.819L584.284 152.364C585.193 148.122 586.981 144.455 589.648 141.364C592.314 138.243 595.754 135.849 599.966 134.182C604.208 132.485 609.117 131.637 614.693 131.637C618.572 131.637 622.284 132.091 625.83 133C629.405 133.909 632.572 135.319 635.33 137.228C638.117 139.137 640.314 141.591 641.92 144.591C643.527 147.561 644.33 151.122 644.33 155.273V202.364H625.966V192.682H625.42C624.299 194.864 622.799 196.788 620.92 198.455C619.042 200.091 616.784 201.379 614.148 202.319C611.511 203.228 608.466 203.682 605.011 203.682ZM610.557 190.319C613.405 190.319 615.92 189.758 618.102 188.637C620.284 187.485 621.996 185.94 623.239 184C624.481 182.061 625.102 179.864 625.102 177.409V170C624.496 170.394 623.663 170.758 622.602 171.091C621.572 171.394 620.405 171.682 619.102 171.955C617.799 172.197 616.496 172.425 615.193 172.637C613.89 172.819 612.708 172.985 611.648 173.137C609.375 173.47 607.39 174 605.693 174.728C603.996 175.455 602.678 176.44 601.739 177.682C600.799 178.894 600.33 180.409 600.33 182.228C600.33 184.864 601.284 186.879 603.193 188.273C605.133 189.637 607.587 190.319 610.557 190.319ZM690.807 230C684.534 230 679.155 229.137 674.67 227.409C670.216 225.712 666.67 223.394 664.034 220.455C661.398 217.516 659.686 214.212 658.898 210.546L676.807 208.137C677.352 209.531 678.216 210.834 679.398 212.046C680.58 213.258 682.14 214.228 684.08 214.955C686.049 215.712 688.443 216.091 691.261 216.091C695.473 216.091 698.943 215.061 701.67 213C704.428 210.97 705.807 207.561 705.807 202.773V190H704.989C704.14 191.94 702.867 193.773 701.17 195.5C699.473 197.228 697.292 198.637 694.625 199.728C691.958 200.819 688.777 201.364 685.08 201.364C679.837 201.364 675.064 200.152 670.761 197.728C666.489 195.273 663.08 191.531 660.534 186.5C658.019 181.44 656.761 175.046 656.761 167.319C656.761 159.409 658.049 152.803 660.625 147.5C663.201 142.197 666.625 138.228 670.898 135.591C675.201 132.955 679.913 131.637 685.034 131.637C688.943 131.637 692.216 132.303 694.852 133.637C697.489 134.94 699.61 136.576 701.216 138.546C702.852 140.485 704.11 142.394 704.989 144.273H705.716V132.546H724.943V203.046C724.943 208.985 723.489 213.955 720.58 217.955C717.67 221.955 713.64 224.955 708.489 226.955C703.367 228.985 697.473 230 690.807 230ZM691.216 186.819C694.337 186.819 696.973 186.046 699.125 184.5C701.307 182.925 702.973 180.682 704.125 177.773C705.307 174.834 705.898 171.319 705.898 167.228C705.898 163.137 705.322 159.591 704.17 156.591C703.019 153.561 701.352 151.212 699.17 149.546C696.989 147.879 694.337 147.046 691.216 147.046C688.034 147.046 685.352 147.909 683.17 149.637C680.989 151.334 679.337 153.697 678.216 156.728C677.095 159.758 676.534 163.258 676.534 167.228C676.534 171.258 677.095 174.743 678.216 177.682C679.367 180.591 681.019 182.849 683.17 184.455C685.352 186.031 688.034 186.819 691.216 186.819ZM771.898 203.728C764.837 203.728 758.731 202.228 753.58 199.228C748.458 196.197 744.504 191.985 741.716 186.591C738.928 181.167 737.534 174.879 737.534 167.728C737.534 160.516 738.928 154.212 741.716 148.819C744.504 143.394 748.458 139.182 753.58 136.182C758.731 133.152 764.837 131.637 771.898 131.637C778.958 131.637 785.049 133.152 790.17 136.182C795.322 139.182 799.292 143.394 802.08 148.819C804.867 154.212 806.261 160.516 806.261 167.728C806.261 174.879 804.867 181.167 802.08 186.591C799.292 191.985 795.322 196.197 790.17 199.228C785.049 202.228 778.958 203.728 771.898 203.728ZM771.989 188.728C775.201 188.728 777.883 187.819 780.034 186C782.186 184.152 783.807 181.637 784.898 178.455C786.019 175.273 786.58 171.652 786.58 167.591C786.58 163.531 786.019 159.909 784.898 156.728C783.807 153.546 782.186 151.031 780.034 149.182C777.883 147.334 775.201 146.409 771.989 146.409C768.746 146.409 766.019 147.334 763.807 149.182C761.625 151.031 759.973 153.546 758.852 156.728C757.761 159.909 757.216 163.531 757.216 167.591C757.216 171.652 757.761 175.273 758.852 178.455C759.973 181.637 761.625 184.152 763.807 186C766.019 187.819 768.746 188.728 771.989 188.728ZM818.852 228.546V132.546H837.943V144.273H838.807C839.655 142.394 840.883 140.485 842.489 138.546C844.125 136.576 846.246 134.94 848.852 133.637C851.489 132.303 854.761 131.637 858.67 131.637C863.761 131.637 868.458 132.97 872.761 135.637C877.064 138.273 880.504 142.258 883.08 147.591C885.655 152.894 886.943 159.546 886.943 167.546C886.943 175.334 885.686 181.909 883.17 187.273C880.686 192.606 877.292 196.652 872.989 199.409C868.716 202.137 863.928 203.5 858.625 203.5C854.867 203.5 851.67 202.879 849.034 201.637C846.428 200.394 844.292 198.834 842.625 196.955C840.958 195.046 839.686 193.122 838.807 191.182H838.216V228.546H818.852ZM837.807 167.455C837.807 171.606 838.383 175.228 839.534 178.319C840.686 181.409 842.352 183.819 844.534 185.546C846.716 187.243 849.367 188.091 852.489 188.091C855.64 188.091 858.307 187.228 860.489 185.5C862.67 183.743 864.322 181.319 865.443 178.228C866.595 175.106 867.17 171.516 867.17 167.455C867.17 163.425 866.61 159.879 865.489 156.819C864.367 153.758 862.716 151.364 860.534 149.637C858.352 147.909 855.67 147.046 852.489 147.046C849.337 147.046 846.67 147.879 844.489 149.546C842.337 151.212 840.686 153.576 839.534 156.637C838.383 159.697 837.807 163.303 837.807 167.455ZM944.625 172.637V132.546H963.989V202.364H945.398V189.682H944.67C943.095 193.773 940.473 197.061 936.807 199.546C933.17 202.031 928.731 203.273 923.489 203.273C918.822 203.273 914.716 202.212 911.17 200.091C907.625 197.97 904.852 194.955 902.852 191.046C900.883 187.137 899.883 182.455 899.852 177V132.546H919.216V173.546C919.246 177.667 920.352 180.925 922.534 183.319C924.716 185.712 927.64 186.909 931.307 186.909C933.64 186.909 935.822 186.379 937.852 185.319C939.883 184.228 941.519 182.622 942.761 180.5C944.034 178.379 944.655 175.758 944.625 172.637ZM1037.57 152.455L1019.84 153.546C1019.54 152.031 1018.89 150.667 1017.89 149.455C1016.89 148.212 1015.57 147.228 1013.93 146.5C1012.33 145.743 1010.4 145.364 1008.16 145.364C1005.16 145.364 1002.63 146 1000.57 147.273C998.508 148.516 997.477 150.182 997.477 152.273C997.477 153.94 998.144 155.349 999.477 156.5C1000.81 157.652 1003.1 158.576 1006.34 159.273L1018.98 161.819C1025.77 163.212 1030.83 165.455 1034.16 168.546C1037.49 171.637 1039.16 175.697 1039.16 180.728C1039.16 185.303 1037.81 189.319 1035.11 192.773C1032.45 196.228 1028.78 198.925 1024.11 200.864C1019.48 202.773 1014.13 203.728 1008.07 203.728C998.826 203.728 991.462 201.803 985.977 197.955C980.523 194.076 977.326 188.803 976.386 182.137L995.432 181.137C996.008 183.955 997.402 186.106 999.614 187.591C1001.83 189.046 1004.66 189.773 1008.11 189.773C1011.51 189.773 1014.23 189.122 1016.3 187.819C1018.39 186.485 1019.45 184.773 1019.48 182.682C1019.45 180.925 1018.7 179.485 1017.25 178.364C1015.8 177.212 1013.55 176.334 1010.52 175.728L998.432 173.319C991.614 171.955 986.538 169.591 983.205 166.228C979.902 162.864 978.25 158.576 978.25 153.364C978.25 148.879 979.462 145.016 981.886 141.773C984.341 138.531 987.78 136.031 992.205 134.273C996.659 132.516 1001.87 131.637 1007.84 131.637C1016.66 131.637 1023.6 133.5 1028.66 137.228C1033.75 140.955 1036.72 146.031 1037.57 152.455Z" fill="#B4B4B4"/>
<path d="M69.7828 330.1C74.038 331.076 76.5974 330.1 80.964 330.1C83.5237 330.1 84.9647 330.273 87.5185 330.1C90.5565 329.894 92.4718 330.234 95.2296 328.947C96.8942 328.171 98.2277 327.878 99.0852 326.258C99.7913 324.924 99.3887 323.922 99.4708 322.416C99.5688 320.618 99.6982 319.592 99.4708 317.806C99.1532 315.311 98.8268 313.824 97.543 311.659C96.4045 309.738 95.5071 308.731 93.6874 307.432C91.8229 306.102 88.2896 305.127 88.2896 305.127C88.2896 305.127 87.9956 302.321 87.904 300.517C87.6145 294.815 87.9796 291.585 88.6751 285.917C89.0267 283.053 89.036 281.393 89.8318 278.618C90.5002 276.287 90.9608 274.972 92.1452 272.855C93.8629 269.784 95.4782 268.468 97.9286 265.939C102.093 261.64 105.319 260.212 109.881 256.334C114.828 252.129 117.744 249.894 122.219 245.193C127.009 240.16 133.4 231.362 133.4 231.362C133.4 231.362 133.798 236.304 133.4 239.43C133.069 242.029 132.682 243.473 131.858 245.961C130.928 248.767 130.09 250.228 128.773 252.877C126.767 256.912 123.935 258.462 122.99 262.866C122.579 264.779 122.508 265.906 122.604 267.86C122.718 270.153 123.241 271.387 123.761 273.623C126.203 284.128 129.993 289.265 133.786 299.364C136.089 305.499 136.309 309.428 139.569 315.116C140.915 317.465 141.919 319.829 143.425 320.879C144.93 321.93 145.586 322.859 147.28 323.569C149.381 324.448 150.796 324.118 153.063 324.337C159.208 324.932 162.733 324.992 168.871 324.337C171.751 324.03 173.685 324.62 176.197 323.184C177.585 322.391 178.544 321.911 179.281 320.495C180.048 319.024 179.797 317.921 179.667 316.269C179.559 314.89 179.256 314.147 178.896 312.811C178.402 310.978 178.267 309.866 177.354 308.201C176.53 306.7 175.852 305.969 174.655 304.743C173.31 303.366 172.481 302.609 170.799 301.669C168.346 300.299 163.859 299.749 163.859 299.749C163.859 299.749 159.329 291.54 157.305 285.917C156.033 282.387 155.162 280.407 154.606 276.697C154.338 274.91 154.046 273.885 154.22 272.086C154.385 270.384 154.724 269.442 155.377 267.86C156.33 265.551 157.359 264.491 158.847 262.481C160.873 259.744 162.443 258.562 164.63 255.95C164.63 255.95 169.638 250.08 172.341 245.961C174.887 242.083 178.125 235.588 178.125 235.588C178.125 235.588 180.449 230.514 181.595 227.135C182.694 223.894 183.908 218.683 183.908 218.683L196.632 223.293C196.632 223.293 196.877 224.697 197.017 225.599C197.758 230.364 197.651 233.099 198.174 237.893C198.929 244.812 200.487 255.566 200.487 255.566L202.029 275.928C202.632 283.88 202.683 288.132 203.572 295.907C203.967 299.364 204.013 301.337 204.728 304.743C205.402 307.951 206.272 309.625 207.042 312.811C208.009 316.817 207.353 319.393 208.969 323.184C209.999 325.6 210.53 327.14 212.44 328.947C215.034 331.404 217.436 331.596 220.922 332.405C225.908 333.563 228.922 332.731 234.031 332.405C238.877 332.097 242.021 333.024 246.369 330.868C247.64 330.238 248.585 330.068 249.453 328.947C250.664 327.386 250.242 325.926 250.224 323.953C250.204 321.696 249.789 320.417 249.103 318.298L249.068 318.19C248.302 315.827 247.93 314.363 246.369 312.427C244.822 310.509 243.569 309.678 241.356 308.585C239.522 307.679 236.344 307.048 236.344 307.048C236.344 307.048 234.702 302.425 234.031 299.364C232.869 294.069 232.987 290.952 232.874 285.533C232.724 278.319 233.376 274.278 234.031 267.092C234.62 260.623 235.959 250.571 235.959 250.571L239.429 229.056L245.983 228.288C245.983 228.288 246.217 229.693 246.369 230.593C246.369 230.593 247.818 238.548 248.682 243.656C249.974 251.294 250.679 255.58 251.767 263.25C253.166 273.127 253.669 278.702 254.851 288.607C255.459 293.707 254.737 297.919 256.393 301.669L260.634 311.274C262.291 315.025 261.827 317.421 263.719 320.879C265.059 323.33 265.721 324.966 267.96 326.642C269.794 328.015 271.152 328.32 273.358 328.947C278.136 330.306 281.116 329.129 286.081 328.947C290.455 328.788 293.086 329.483 297.262 328.179C299.641 327.436 301.751 327.612 303.046 325.49C303.843 324.182 303.717 323.175 303.817 321.648C303.965 319.382 303.653 318.073 303.046 315.885C302.293 313.168 301.695 311.581 299.961 309.353C298.59 307.591 297.649 306.643 295.72 305.511C293.045 303.942 288.009 303.59 288.009 303.59C288.009 303.59 285.529 299.287 284.539 296.291C283.579 293.384 283.411 291.639 282.997 288.607C282.286 283.401 282.677 280.413 282.611 275.16C282.495 265.857 282.376 260.623 282.997 251.34C283.663 241.387 284.498 235.832 286.081 225.983C287.123 219.503 289.166 209.462 289.166 209.462C289.166 209.462 292.545 206.27 294.564 204.084C296.953 201.497 298.164 199.93 300.347 197.168C302.21 194.811 303.378 193.566 304.974 191.021C306.758 188.176 307.534 186.434 308.829 183.337C309.873 180.84 310.348 179.392 311.143 176.806C311.827 174.578 310.594 172.083 312.685 171.043C313.504 170.635 314.295 171.243 314.998 170.659C315.729 170.051 315.517 169.268 315.769 168.353C316.255 166.593 316.288 165.551 316.54 163.743C317.019 160.312 317.164 158.367 317.312 154.906C317.452 151.609 317.426 149.753 317.312 146.454C317.134 141.336 316.73 138.48 316.155 133.391C315.542 127.973 314.227 119.56 314.227 119.56C314.227 119.56 320.136 120.063 323.866 119.56C326.002 119.273 327.272 119.23 329.264 118.408C330.886 117.738 331.765 117.216 333.119 116.103C334.518 114.953 334.717 113.679 336.204 112.645C337.42 111.799 338.441 111.929 339.674 111.108C341.09 110.165 341.715 109.376 342.758 108.035C344.12 106.283 345.184 105.238 345.457 103.04C345.55 102.295 345.389 101.866 345.457 101.119C345.63 99.2289 346.984 98.4064 347 96.5086C347.011 95.1254 346.803 94.3101 346.228 93.0508C345.39 91.2133 344.203 90.6235 342.758 89.2089C340.544 87.0412 338.96 86.2109 336.589 84.2143C333.982 82.0186 331.542 81.5037 330.035 78.4514C328.633 75.6113 329.565 73.5341 329.264 70.3833C328.963 67.2325 329.236 65.3923 328.493 62.3151C327.734 59.173 325.959 57.8162 325.408 54.6312C324.471 49.2086 327.117 46.2135 328.107 40.8001C328.573 38.252 328.953 36.8403 329.264 34.2688C329.714 30.5417 329.791 28.4152 329.649 24.6639L329.638 24.3656C329.532 21.534 329.469 19.8348 328.878 16.9799C328.273 14.052 328.769 11.7087 326.565 9.68022C325.328 8.54198 324.374 8.0101 322.709 7.75923C320.723 7.45988 319.603 8.27976 317.697 8.91182C314.117 10.099 312.394 11.4978 309.215 13.5222C304.34 16.6257 301.617 18.5498 297.648 22.7429C295.147 25.385 291.865 30.0426 291.865 30.0426C291.865 30.0426 287.648 29.4104 284.925 29.2742C282.669 29.1615 279.141 29.2742 279.141 29.2742C279.141 29.2742 274.552 22.8806 271.044 19.2851C267.845 16.0062 265.831 14.3681 262.177 11.6012C259.417 9.51129 258.053 7.92905 254.851 6.60664C252.557 5.6593 251.143 4.73552 248.682 5.06986C247.075 5.2882 246.148 5.6706 244.826 6.60664C243.522 7.53051 243.092 8.40749 242.128 9.68022C240.259 12.1456 239.588 13.7982 238.272 16.5958C236.049 21.3216 234.784 24.6231 234.031 29.2742L232.103 41.1843C231.35 45.8355 231.663 48.2069 231.717 52.7102C231.758 56.0142 232.789 57.9298 232.103 61.1625C231.28 65.0407 228.73 66.3872 227.091 69.9991C224.756 75.1453 224.207 78.3466 222.85 83.8301C221.746 88.2868 222.645 91.2749 220.536 95.356C218.05 100.168 214.125 102.41 210.512 104.961L201.258 111.492C197.645 114.043 195.939 113.842 192.39 114.95C185.682 117.044 181.619 117.065 174.655 118.024C163.878 119.507 157.734 119.411 146.895 120.329C138.161 121.068 133.14 120.599 124.532 122.25C115.879 123.909 110.876 124.962 102.941 128.781C96.4726 131.894 93.0195 134.167 87.5185 138.77C85.1526 140.75 84.0252 142.083 81.7351 144.149C77.6189 147.863 74.8407 149.432 70.9394 153.37C64.5921 159.776 61.751 164.118 57.0593 171.811C52.3729 179.496 50.6492 184.318 47.0348 192.558C43.5967 200.395 42.2733 205.039 38.9381 212.92C36.8946 217.749 35.8116 220.488 33.5402 225.214C30.1356 232.299 27.3471 235.822 23.9013 242.887C21.3083 248.204 19.4145 251.05 17.7323 256.719C16.2161 261.828 15.869 264.856 15.419 270.165C14.9754 275.398 14.756 278.403 15.419 283.612C16.0438 288.522 16.5752 291.346 18.5034 295.907C20.1277 299.748 20.753 302.382 23.9013 305.127C24.876 305.977 25.3051 307.07 26.6002 307.048C27.9882 307.025 28.3714 305.772 29.2991 304.743C31.0096 302.846 30.9524 301.095 32.3836 298.98C34.0134 296.572 35.2171 295.378 37.2406 293.371L37.3958 293.217C40.6621 289.977 42.8317 288.491 46.6492 285.917C51.6159 282.569 60.1438 278.618 60.1438 278.618C60.1438 278.618 59.9151 287.984 59.7582 293.986C59.7582 293.986 59.4413 302.648 59.3727 308.201C59.3727 308.201 58.0361 315.655 59.3727 320.111C60.3568 323.392 60.8992 325.695 63.6138 327.795C65.6461 329.367 67.2754 329.525 69.7828 330.1Z" fill="#B4B4B4"/>
<path d="M56.6738 270.934C58.0513 269.759 59.7582 269.781 60.1438 267.86C60.5294 265.939 59.8511 261.746 61.3005 258.255C62.2585 255.948 63.2425 254.856 64.7705 252.877C66.3947 250.773 67.8342 250.031 69.3972 247.882C70.8217 245.923 71.4619 244.699 72.4817 242.503C74.3233 238.538 74.8974 236.064 75.5661 231.746C76.1866 227.739 76.0031 225.426 75.9517 221.372C75.881 215.803 75.0969 212.719 74.795 207.157C74.5184 202.061 74.2235 199.195 74.4095 194.095C74.5797 189.425 74.7569 186.787 75.5661 182.184C76.398 177.453 76.5756 174.61 78.6506 170.274C79.551 168.393 80.5784 165.664 81.3495 165.664C82.1207 165.664 81.3495 169.122 81.3495 169.122C81.3495 169.122 80.8138 171.922 80.5784 173.732C79.9395 178.645 80.2091 181.457 80.1929 186.411C80.1746 191.964 80.1267 197.775 80.5784 200.626L81.7351 207.926C82.1868 210.776 82.3497 213.536 82.5062 217.146C82.6751 221.044 82.686 223.238 82.5062 227.135C82.3465 230.596 82.4794 232.588 81.7351 235.972C81.1246 238.747 80.5077 240.247 79.4285 242.871L79.4217 242.887C77.9405 246.489 77.1323 248.605 74.795 251.724C73.3284 253.681 72.0957 254.436 70.5539 256.334C69.2656 257.921 68.2363 258.668 67.4694 260.56C66.7835 262.253 66.9015 263.357 66.6983 265.171C66.2808 268.899 66.6983 269.074 66.6983 274.776C66.6983 274.776 66.8374 283.675 66.6983 289.375C66.5516 295.382 66.1634 298.739 65.9272 304.743C65.7325 309.693 65.1561 316.269 65.5416 317.422C65.9271 318.574 66.4525 320.583 67.855 322.032C69.074 323.291 70.0616 323.736 71.7106 324.337C74.2596 325.267 77.8795 325.105 78.6506 324.721C79.4217 324.337 79.2871 323.355 79.4217 322.416C79.6598 320.755 79.2836 319.744 78.6506 318.19C78.1165 316.878 76.3373 315.501 76.7228 315.116C77.1083 314.732 77.9304 314.898 78.6506 315.116C79.9787 315.519 80.2187 316.639 80.964 317.806C81.5062 318.655 81.7998 319.157 82.1206 320.111C82.6489 321.682 82.1206 323.953 82.5062 324.337C82.8918 324.721 88.6751 324.337 89.0607 323.953C89.4463 323.569 89.1353 322.077 89.0607 320.879C88.9856 319.672 88.9946 318.973 88.6751 317.806C88.2322 316.187 86.7473 314.348 86.7474 313.964C86.7474 313.58 88.8391 314.594 89.8318 315.501C90.9746 316.544 91.2273 317.508 91.7596 318.958C92.3886 320.673 92.1451 323.569 92.5307 323.569C92.9163 323.569 94.0729 323.184 94.4585 322.416C94.8441 321.648 94.5863 319.539 94.073 317.806C93.5388 316.003 92.9685 315.023 91.7596 313.58C90.524 312.104 89.6059 311.409 87.904 310.506C85.969 309.479 83.9547 310.609 82.5062 308.969C81.2756 307.576 81.678 306.186 81.3495 304.359C80.6852 300.664 80.9435 298.508 80.964 294.754C80.982 291.45 80.9955 289.587 81.3495 286.302C81.7248 282.819 81.966 280.844 82.8918 277.465C83.6066 274.856 83.9442 273.329 85.2051 270.934C86.4084 268.648 87.4419 267.57 89.0607 265.555C91.5233 262.489 93.1184 260.933 96.0008 258.255C99.9224 254.612 102.692 253.241 106.796 249.803C109.247 247.75 110.702 246.68 112.965 244.424C115.229 242.169 116.361 240.766 118.363 238.277C121.133 234.834 122.52 232.766 124.918 229.056C127.001 225.833 128.286 224.071 129.93 220.604C131.639 217 132.26 214.82 133.4 210.999L133.5 210.665C134.324 207.904 134.819 206.247 135.328 203.315C135.844 200.344 135.974 198.644 136.099 195.631C136.267 191.581 135.909 189.307 135.713 185.258C135.583 182.556 134.557 178.727 135.328 178.342C136.099 177.958 137.211 180.044 138.027 181.416C138.842 182.788 141.457 190.891 141.882 193.71C142.308 196.529 141.882 201.394 142.268 202.931C142.578 204.166 144.113 203.24 145.352 202.931C146.895 202.547 146.744 202.4 147.666 202.163C150.294 201.486 151.892 201.71 154.606 201.778C158.097 201.867 160.057 202.208 163.474 202.931C170.093 204.332 173.358 206.638 179.667 209.078C185.401 211.296 190.48 214.841 196.632 214.841C197.017 214.841 197.017 212.536 197.017 212.536L197.017 201.778C197.017 201.778 195.861 191.405 196.632 191.021C197.403 190.637 198.191 193.524 198.945 195.247C200.011 197.684 200.203 199.205 200.873 201.778C202.712 208.846 202.944 212.989 203.957 220.22C203.957 220.22 205.677 236.369 206.656 246.729C207.634 257.075 208.366 262.865 208.969 273.239C209.527 282.83 208.969 291.296 209.741 297.828C210.512 304.359 212.497 308.09 213.982 314.732C214.451 316.829 214.304 318.13 215.138 320.111C215.898 321.915 216.431 322.972 217.837 324.337C218.765 325.238 219.35 325.74 220.536 326.258C222.472 327.104 223.822 326.578 225.934 326.642C227.496 326.689 229.694 327.026 229.934 326.642C230.175 326.258 229.997 324.752 229.79 323.569C229.544 322.166 229.359 321.337 228.633 320.111C228.143 319.283 227.025 318.574 227.091 318.19C227.156 317.806 227.713 317.514 228.247 317.422C229.112 317.272 230.175 318.574 230.175 318.574C230.175 318.574 231.225 319.418 231.717 320.111C232.461 321.157 232.505 321.957 232.874 323.184C233.273 324.509 232.874 326.258 233.645 326.642C234.416 327.026 237.114 327.026 237.886 327.026C238.658 327.026 239.415 326.653 239.814 325.874C240.156 325.206 239.814 323.953 239.814 323.953C239.814 323.953 239.508 322.027 239.043 320.879C238.589 319.758 237.501 318.19 237.501 318.19C237.501 318.19 236.407 316.563 237.115 316.269C237.393 316.154 237.587 316.235 237.886 316.269C239.173 316.415 239.79 317.171 240.585 318.19C241.289 319.092 241.359 319.802 241.742 320.879C242.412 322.766 242.513 325.874 242.899 325.874C243.284 325.874 244.055 325.874 244.826 324.721C245.598 323.569 244.771 320.756 243.67 318.574C242.899 317.046 242.268 316.237 240.971 315.116C239.545 313.885 238.446 313.591 236.73 312.811C234.693 311.886 232.976 312.403 231.332 310.89C229.848 309.524 229.788 308.141 229.019 306.28C227.711 303.116 227.257 301.204 226.705 297.828C226.052 293.826 226.336 291.508 226.32 287.454C226.295 281.146 226.662 277.612 227.091 271.318C227.347 267.564 227.528 265.461 227.862 261.713C228.384 255.854 228.74 252.574 229.404 246.729C229.83 242.976 230.012 240.863 230.561 237.124C231.292 232.145 231.566 229.307 232.874 224.446L232.966 224.105C233.563 221.883 233.927 220.529 234.802 218.299C235.587 216.298 236.13 215.215 237.115 213.304C239.063 209.528 240.775 207.765 242.899 204.084C245.517 199.546 247.022 196.994 249.068 192.174C250.44 188.939 251.192 187.101 252.152 183.721C252.909 181.059 253.309 177.574 253.694 176.806C254.08 176.037 254.529 175.396 255.237 175.653C255.958 175.915 255.622 177.574 255.622 177.574C255.622 177.574 255.538 178.481 255.237 181.032L254.465 187.563C254.164 190.114 253.777 192.77 252.923 196.015C251.824 200.194 250.786 202.423 249.068 206.389C246.852 211.502 241.742 219.836 242.513 220.604C243.284 221.372 247.525 220.22 247.525 220.22C247.525 220.22 251.074 219.622 253.309 219.067C257.005 218.149 259.025 217.401 262.562 215.994C266.753 214.327 269.116 213.334 272.972 210.999C276.832 208.662 278.742 206.949 282.226 204.084C285.186 201.648 286.911 200.329 289.551 197.552C292.576 194.371 294.105 192.397 296.491 188.716C298.356 185.839 299.244 184.119 300.732 181.032C302.077 178.244 302.918 176.693 303.817 173.732C304.791 170.521 304.909 168.605 305.359 165.28C305.824 161.847 305.359 156.443 306.13 156.443C307.621 156.443 308.111 160.224 309.6 160.285C310.221 160.311 310.371 157.596 310.371 155.291C310.371 152.985 310.194 153.056 309.986 149.912C309.766 146.588 309.557 145.224 309.215 142.228C308.596 136.81 308.202 133.773 307.287 128.397C306.62 124.48 305.745 119.56 305.359 118.408C304.974 117.255 304.552 117.109 303.817 116.487C302.474 115.35 301.247 115.509 299.576 114.95C297.046 114.104 295.634 113.566 293.021 113.029C290.79 112.571 289.405 112.962 287.238 112.261C286.147 111.908 284.008 112.121 284.539 111.108C284.851 110.513 285.696 110.34 286.081 110.34C286.467 110.34 292.425 109.832 296.491 109.955C300.879 110.088 304.974 110.724 307.673 111.108C310.372 111.492 313.062 112.352 316.54 113.029C319.99 113.701 326.565 114.566 326.565 113.797C326.565 113.029 323.741 112.874 321.938 112.261C319.369 111.387 315.384 109.955 315.384 109.955C315.384 109.955 312.981 109.136 311.528 108.419C310.44 107.882 308.829 107.266 308.829 106.882C308.829 106.498 310.478 106.789 311.528 106.882C313.383 107.046 314.345 107.598 316.155 108.035C319.457 108.83 321.253 109.667 324.637 109.955C326.737 110.135 328.011 110.544 330.035 109.955C331.328 109.58 331.97 109.118 333.119 108.419C334.404 107.636 335.959 107.594 336.204 106.114C336.329 105.359 336.975 104.577 335.818 104.193C334.662 103.808 334.571 103.593 333.891 103.04C332.979 102.3 332.575 101.735 331.963 100.735C331.365 99.7594 330.945 99.1797 330.806 98.0454C330.677 96.9922 330.681 96.2867 331.192 95.356C331.6 94.6114 332.069 94.3501 332.734 93.8192C333.681 93.0626 333.891 93.0508 335.433 92.2824C336.975 91.5141 336.589 91.5141 335.047 90.3615L334.886 90.2411C333.327 89.0766 330.804 87.1923 328.493 84.9827C326.57 83.1452 325.545 82.0489 323.866 79.9882C322.233 77.9841 320.396 75.3778 320.01 74.6094C319.625 73.841 321.354 70.6721 321.938 68.0781C322.307 66.4414 322.593 65.5254 322.709 63.8519C322.782 62.8042 322.844 62.2041 322.709 61.1625C322.39 58.6995 321.295 57.5278 320.01 55.3996C317.593 51.3954 315.497 49.5776 311.914 46.5631C309.52 44.549 308.018 43.6039 305.359 41.9527C301.758 39.7168 299.676 38.4869 295.72 36.9582C290.953 35.116 285.31 33.8846 282.997 33.8846C280.683 33.8846 281.455 35.4214 281.455 35.4214C281.455 35.4214 281.969 37.0487 282.226 38.1108C282.654 39.8855 282.997 40.8001 282.997 42.7211C282.997 44.6421 282.619 46.1789 281.069 46.1789C279.519 46.1789 279.141 42.7211 279.141 42.7211C279.141 42.7211 277.045 39.4308 275.671 37.3424C274.481 35.5327 273.885 34.4665 272.587 32.732C270.673 30.1751 269.447 29.1355 267.189 26.5849L261.405 20.0535C259.147 17.5029 255.622 15.059 255.622 15.059C255.622 15.059 252.505 12.5452 250.224 13.138C248.676 13.5406 248.224 14.2702 247.14 15.4432C246.119 16.5465 245.599 17.2288 244.826 18.5167C243.507 20.7176 242.899 21.9745 242.128 24.6639L242.112 24.7197C241.349 27.3805 240.789 29.3327 240.2 32.3478C239.561 35.6178 239.273 37.4767 239.043 40.8001C238.804 44.2428 238.677 46.2051 239.043 49.6366C239.417 53.1484 240.039 55.0658 240.971 58.4732C241.634 60.8998 243.284 64.3211 242.899 64.6203C241.592 65.6344 240.114 63.835 238.658 64.6203C237.225 65.3925 237.171 66.6799 236.344 68.0781C235.319 69.8123 234.031 72.6884 234.031 72.6884C232.676 76.2893 231.605 78.2068 230.561 81.9091C229.442 85.8754 229.386 88.2314 228.633 92.2824C227.88 96.3335 229.019 98.0454 227.476 100.351C225.934 102.656 221.287 106.379 217.066 109.955C213.555 112.931 211.724 114.826 207.813 117.255C205.355 118.782 203.938 119.618 201.258 120.713C198.216 121.957 196.356 122.24 193.162 123.018C184.453 125.14 179.749 125.342 170.414 126.092C170.414 126.092 155.844 127.257 146.509 128.013C139.131 128.61 134.914 128.309 127.617 129.549C122.432 130.431 119.507 130.996 114.508 132.623C109.696 134.189 106.956 135.126 102.555 137.618C98.3393 140.004 96.0902 141.637 92.5307 144.917C90.2628 147.008 90.7466 147.68 87.1329 150.68L77.8795 158.364C74.2658 161.365 73.4606 162.646 70.9394 165.664C67.7591 169.471 66.2392 171.831 63.6138 176.037C58.6701 183.958 56.9072 188.986 53.2037 197.552C50.2612 204.359 49.2154 208.423 46.2637 215.225C42.9495 222.863 40.3228 228.584 37.0103 234.435C37.0103 234.435 31.2562 243.275 28.528 249.419C26.0809 254.929 24.7133 258.112 23.5157 264.018C22.4682 269.184 22.226 272.196 22.359 277.465C22.4619 281.54 22.4592 283.901 23.5157 287.838C24.3535 290.961 25.4435 295.522 26.6002 295.522C27.7569 295.522 28.949 291.596 30.8413 289.375C32.3574 287.596 33.3015 286.665 35.0825 285.149C37.0521 283.472 38.3489 282.774 40.4803 281.307C42.7137 279.77 43.9156 278.822 46.2637 277.465C48.5936 276.119 50.1907 275.879 52.4326 274.392C54.2138 273.21 55.0479 272.32 56.6738 270.934Z" fill="white"/>
<path d="M286.449 75.5712C285.615 75.3863 283.323 74.8324 282.055 74.0744C280.486 73.1361 288.019 71.2595 288.019 71.2595C291.825 70.1736 293.865 69.954 297.291 70.0061C297.386 70.0075 297.48 70.0264 297.568 70.0625C302.027 71.912 304.828 76.0072 305.719 81.8645C305.816 82.5023 305.102 82.9372 304.543 82.6128C303.683 82.1146 302.645 81.5808 302.143 81.5808H293.492C293.398 81.5808 293.308 81.5632 293.22 81.5289C289.894 80.2292 288.757 78.6527 286.94 75.9065C286.827 75.735 286.65 75.6158 286.449 75.5712Z" fill="#B4B4B4"/>
<path d="M295.552 74.6999C295.552 76.0818 294.428 77.2021 293.041 77.2021C291.654 77.2021 290.53 76.0818 290.53 74.6999C290.53 73.3181 291.654 72.1978 293.041 72.1978C294.428 72.1978 295.552 73.3181 295.552 74.6999Z" fill="white"/>
<path d="M321.095 14.9702C324.653 16.0656 322.566 33.5667 320.617 46.9732C320.527 47.5984 319.76 47.8498 319.311 47.4032L317.103 45.2024C316.988 45.0879 316.912 44.9438 316.891 44.7832C316.474 41.5986 317.393 35.6247 318.157 30.9485C318.296 30.0979 317.187 29.7318 316.783 30.494L311.935 39.6478C311.719 40.056 311.193 40.1835 310.813 39.92L303.234 34.6665C302.908 34.4408 302.806 34.0078 303.004 33.6651C308.108 24.8177 317.485 13.8585 321.095 14.9702Z" fill="white"/>
<path d="M246.547 39.1876C246.371 44.3054 247.174 50.6426 250.88 56.5999C251.183 57.0871 251.894 57.0531 252.217 56.5784C253.391 54.8496 254.774 53.8924 257.307 52.8145C257.721 52.6381 257.906 52.1515 257.716 51.7442C256.716 49.5983 256.361 47.99 256.43 45.5021C256.445 44.9528 257.032 44.6185 257.524 44.8654L260.658 46.4356C261.222 46.7182 261.865 46.2468 261.736 45.6307C259.651 35.6083 253.132 21.7928 250.31 22.6362C247.345 23.5221 246.734 33.7682 246.547 39.1876Z" fill="#B4B4B4"/>
<path d="M160.004 209.462C166.702 210.424 176.197 214.841 176.197 215.61C176.197 216.378 174.888 223.739 173.113 228.672C171.771 232.401 170.844 234.454 168.871 237.893C166.569 241.905 164.655 243.756 161.931 247.498C159.085 251.409 157.353 253.506 154.606 257.487C152.263 260.882 150.163 262.426 148.822 266.323C147.835 269.194 147.834 270.978 147.666 274.007C147.566 275.805 147.28 277.081 147.666 278.618C148.051 280.155 150.386 287.18 152.678 292.449C154.686 297.066 158.461 303.59 158.461 303.975C158.461 304.359 160.572 304.69 161.931 305.127C164.923 306.09 167.093 305.599 169.642 307.432C171.285 308.614 172.26 309.443 173.113 311.274C173.883 312.93 173.884 315.501 173.884 315.885C173.884 316.269 173.143 312.17 171.57 310.506C170.682 309.566 170.162 308.479 168.871 308.585C168.397 308.624 167.715 308.585 167.715 308.969C167.715 309.353 170.028 312.811 170.028 312.811C170.028 312.811 171.785 315.051 171.57 316.653C171.463 317.454 171.185 318.243 170.799 318.574C170.414 318.905 166.172 318.958 165.787 318.958C165.401 318.958 165.356 316.923 165.016 315.885C164.617 314.666 164.607 313.854 163.859 312.811C162.984 311.59 162.192 311.013 160.775 310.506C159.913 310.197 158.847 309.738 158.461 310.122C158.076 310.506 160.093 311.606 160.775 312.811C161.546 314.176 161.748 315.097 161.931 316.653C162.054 317.696 162.317 319.343 161.931 319.343C161.546 319.343 158.153 319.642 155.762 319.343C152.971 318.993 149.979 318.19 148.822 317.422C147.666 316.653 146.799 314.459 145.738 312.427C143.957 309.015 143.629 306.805 142.268 303.206C140.621 298.852 139.649 296.428 138.027 292.065C135.859 286.235 134.558 282.993 132.629 277.081C131.171 272.612 129.159 266.708 129.159 265.555C129.159 264.402 132.188 260.988 133.786 257.871C135.782 253.975 136.537 251.612 138.027 247.498C139.368 243.793 140.362 241.76 141.111 237.893C141.742 234.639 141.827 232.755 141.882 229.441C141.95 225.379 141.662 223.092 141.111 219.067C140.76 216.501 139.954 213.304 139.954 212.536C139.954 211.768 143.839 210.573 146.509 209.847C151.595 208.463 154.785 208.714 160.004 209.462Z" fill="white"/>
<path d="M253.309 226.751C254.08 225.983 260.277 223.86 262.948 223.133C262.948 223.133 267.223 221.459 269.888 220.22C273.917 218.346 279.483 214.841 279.912 214.841C280.683 214.841 278.935 222.33 278.37 227.135C277.718 232.681 277.338 235.79 276.828 241.351C276.264 247.493 275.671 249.151 275.671 257.103C275.671 265.055 275.386 269.518 275.671 277.465C275.855 282.572 275.508 285.503 276.442 290.528C277.067 293.892 278.756 298.98 278.756 298.98C278.756 298.98 281.455 307.497 282.611 308.041C283.768 308.585 285.493 308.148 286.852 308.585C289.844 309.548 291.243 309.665 293.792 311.499C296.342 313.332 297.262 315.501 297.262 315.885C297.262 316.269 293.021 312.651 293.021 312.651C292.547 312.69 291.865 312.651 291.865 313.035C291.865 313.42 294.564 316.493 294.564 316.493C294.564 316.493 295.935 319.118 295.72 320.719C295.613 321.52 295.335 322.309 294.949 322.64C294.564 322.971 290.322 323.024 289.937 323.024C289.551 323.024 289.506 320.989 289.166 319.951C288.767 318.732 288.757 317.921 288.009 316.877C287.134 315.656 286.342 315.08 284.925 314.572C284.063 314.264 282.997 313.804 282.611 314.188C282.226 314.572 284.243 315.672 284.925 316.877C285.696 318.242 285.898 319.164 286.081 320.719C286.204 321.762 286.467 323.409 286.081 323.409C285.696 323.409 282.303 323.708 279.912 323.409C277.121 323.059 274.129 322.256 272.972 321.488C271.816 320.719 270.563 318.909 269.502 316.877C267.721 313.466 267.779 310.871 266.418 307.272C266.418 307.272 263.972 303.058 262.948 300.133C260.805 294.015 262.125 290.052 261.405 283.612C260.75 277.749 260.3 274.471 259.478 268.629C258.271 260.054 256.008 246.729 256.008 246.729C256.008 246.729 254.431 240.075 254.08 237.509C253.729 234.942 252.538 227.52 253.309 226.751Z" fill="white"/>
</svg>
