<svg xmlns="http://www.w3.org/2000/svg" width="377" height="493" fill="none" viewBox="0 0 377 493"><path fill="#D9D9D9" d="M201.086 0.0723162C213.008 -1.41792 241.226 20.4092 258.253 39.2036C258.465 39.4374 258.775 39.5548 259.089 39.5262C270.55 38.4823 277.068 38.2305 287.34 39.4798C287.781 39.5334 288.21 39.2907 288.38 38.8806C290.441 33.9046 290.145 32.0342 302.586 20.0723C315.586 7.57231 332.586 0.572311 341.586 3.57231C350.586 6.57231 353.086 23.0723 352.086 44.5723C351.095 65.8715 349.248 73.4739 345.201 86.6968C345.128 86.9361 345.147 87.1986 345.251 87.4258C351.503 100.969 347.594 116.628 348.586 123.072C349.586 129.572 374.834 140.841 376.586 156.072C378.337 171.304 347.586 190.572 344.586 192.072C341.756 193.487 333.331 194.966 325.49 195.069C324.803 195.078 324.314 195.751 324.525 196.406C332.111 220.008 331.539 247.304 329.086 259.572C326.6 272.002 318.68 296.309 308.754 309.352C308.643 309.498 308.574 309.674 308.554 309.857C302.167 367.933 302.944 387.691 310.472 404.322C310.546 404.486 310.667 404.628 310.815 404.731C326.25 415.423 333.333 421.648 338.086 433.572L344.792 453.211C344.958 453.699 344.715 454.239 344.245 454.451C279.753 483.44 244.06 491.233 178.281 482.1C178.154 482.082 178.021 482.089 177.896 482.12C120.041 496.627 65.5535 497.052 36.0857 478.572C6.58565 460.072 -0.914336 439.572 0.0856639 423.572C1.07908 407.678 9.45108 387.675 28.7015 372.376C28.9421 372.185 29.0853 371.893 29.0858 371.585C29.1751 315.105 56.1859 259.471 91.0857 224.072C125.971 188.689 131.917 188.616 162.285 158.867C162.473 158.683 162.588 158.419 162.592 158.156C163.054 129.478 166.992 115.48 178.936 93.8438C179.032 93.6688 179.076 93.4657 179.058 93.2665C175.061 47.9824 189.113 1.56894 201.086 0.0723162Z"/><path fill="#fff" d="M176.959 311.557L185.697 276.075C185.986 274.903 187.763 275.138 187.724 276.344C187.259 290.696 186.669 315.968 188.086 320.572C190.086 327.072 218.086 417.072 223.086 423.572C228.086 430.072 234.064 437.582 237.586 447.072C239.161 450.433 240.511 451.802 243.44 453.489C243.536 453.544 243.643 453.583 243.751 453.604C250.957 454.964 255.04 454.926 261.459 453.78C262.055 453.674 262.415 453.061 262.224 452.487L260.029 445.902C259.65 444.766 261.226 444.045 261.837 445.075L266.34 452.659C266.495 452.92 266.762 453.098 267.063 453.137C270.5 453.581 272.697 453.414 276.174 451.968C276.681 451.757 276.907 451.167 276.686 450.664L273.895 444.322C273.444 443.296 274.764 442.418 275.536 443.23L279.017 446.894C279.679 447.591 280.811 447.047 280.623 446.104C278.75 436.703 273.121 430.537 255.917 420.27C255.707 420.145 255.554 419.974 255.481 419.74C254.176 415.572 241.111 373.1 241.586 345.072C242.053 317.489 257.333 306.174 262.634 280.207C262.858 279.11 264.462 279.083 264.632 280.19C266.883 294.799 264.934 307.814 256.632 329.391C256.292 330.276 257.245 331.096 258.052 330.599C287.497 312.456 310.653 278.275 313.086 267.572C315.577 256.613 318.903 223.594 307.71 191.427C307.63 191.199 307.469 191.006 307.258 190.887C298.021 185.695 289.601 183.342 272.888 180.836C271.793 180.672 271.748 179.226 272.842 179.06C291.056 176.31 310.414 180.984 338.873 185.881C340.066 186.087 340.499 184.442 339.361 184.027L312.128 174.098C310.978 173.679 311.445 171.956 312.65 172.175L334.086 176.072C345.614 178.139 350.669 176.913 356.257 170.548C356.686 170.06 356.518 169.301 355.939 169.007C349.726 165.849 347.593 163.037 347.093 156.67C347.088 156.606 347.09 156.539 347.098 156.475C347.729 151.34 349.836 149.164 355.9 147.654C356.806 147.429 357.018 146.163 356.233 145.658C343.265 137.317 333.086 121.847 333.086 118.072C333.086 114.072 335.586 111.072 337.086 97.5723C338.569 84.226 302.423 46.4456 263.434 47.0365C262.763 47.0467 262.306 47.714 262.52 48.3494C265.949 58.5318 266.388 62.5225 264.706 68.1682C264.471 68.9584 263.431 69.0975 262.965 68.4171C246.151 43.8476 220.322 17.9953 208.586 14.5723C196.762 11.1238 181.118 67.2139 198.773 101.072C199.127 101.75 198.641 102.572 197.876 102.572H191.609C191.281 102.572 190.971 102.737 190.785 103.008C177.696 122.085 176.363 137.058 178.054 166.042C178.074 166.37 177.925 166.698 177.666 166.9C122.782 209.79 94.0184 229.193 67.5857 276.572C41.2176 323.836 43.237 338.279 43.0881 382.408C43.0867 382.805 42.8494 383.175 42.4862 383.334C35.7653 386.291 33.8452 387.785 25.5857 395.072C17.0857 402.572 9.58567 431.072 24.5857 449.072C39.5857 467.072 62.5856 478.572 88.5857 480.072C114.586 481.572 111.586 481.072 121.586 480.572C131.586 480.072 184.586 464.572 194.086 462.572C203.586 460.572 208.086 460.072 221.586 460.072C235.086 460.072 192.586 416.072 167.086 404.572C145.127 394.67 89.5452 385.473 59.4246 388.887C58.2001 389.025 57.3155 386.449 58.4547 385.979C84.6307 375.185 118.8 374.695 166.087 391.711C166.625 391.905 167.23 391.604 167.398 391.058C178.325 355.555 182.402 336.045 154.556 313.05C139.347 301.553 118.193 305.121 89.5333 319.255C88.472 319.778 87.5317 318.391 88.4476 317.641C120.826 291.158 145.804 289.149 175.347 312.097C175.923 312.545 176.785 312.265 176.959 311.557Z"/><path fill="#fff" d="M335.586 16.0723C341.426 18.5058 338.581 48.0013 333.507 70.7255C333.331 71.5105 332.348 71.7671 331.804 71.1742L327.822 66.8299C327.669 66.6631 327.577 66.4472 327.562 66.2214C327.181 60.548 327.305 56.7632 328.231 51.6934C328.42 50.6569 327.077 50.004 326.406 50.8163L320.2 58.3289C319.857 58.7438 319.248 58.813 318.82 58.4856L305.328 48.141C304.91 47.8209 304.809 47.2359 305.102 46.7989C314.809 32.3212 329.691 13.6163 335.586 16.0723Z"/><path fill="#D9D9D9" d="M204.086 59.0723C204.565 68.1781 206.984 79.3254 214.571 89.2855C215.024 89.8806 215.944 89.7563 216.288 89.092C218.146 85.5026 220.471 83.5359 225.126 81.0711C225.641 80.7985 225.825 80.1482 225.531 79.6451C223.251 75.74 222.363 72.882 222.135 68.0819C222.101 67.3668 222.822 66.8668 223.487 67.1327L230.253 69.8393C231.014 70.1435 231.793 69.4589 231.566 68.6719C226.58 51.4133 212.906 27.6442 208.086 29.5723C203.086 31.5723 203.586 49.5723 204.086 59.0723Z"/><path fill="#D9D9D9" d="M276.18 118.986C274.939 118.713 271.155 117.814 269.086 116.572C266.586 115.072 278.586 112.072 278.586 112.072C284.664 110.332 287.915 109.983 293.399 110.069C293.521 110.071 293.645 110.096 293.758 110.143C301.004 113.141 305.508 119.865 306.85 129.499C306.966 130.33 306.04 130.895 305.319 130.464C303.887 129.61 301.968 128.572 301.086 128.572H287.265C287.142 128.572 287.025 128.549 286.911 128.505C281.551 126.412 279.747 123.872 276.816 119.422C276.669 119.199 276.441 119.043 276.18 118.986Z"/><circle cx="286.586" cy="117.572" r="4" fill="#fff"/><path fill="#fff" d="M262.086 348.072C263.772 344.279 284.293 328.402 290.693 323.512C291.397 322.974 292.399 323.553 292.3 324.434C288.848 355.181 295.123 389.223 296.586 395.072C298.086 401.072 297.598 408.969 301.586 412.072C305.573 415.176 320.494 424.966 322.086 428.072C323.65 431.124 327.121 437.398 324.72 440.888C324.635 441.011 324.515 441.108 324.381 441.175C320.712 442.988 318.475 443.124 315.239 443.082C314.842 443.077 314.487 442.836 314.334 442.47L310.504 433.322C310.028 432.185 308.317 432.748 308.61 433.945L310.851 443.113C310.981 443.645 310.66 444.183 310.129 444.315C305.513 445.462 301.985 445.935 293.369 445.604C292.91 445.586 292.522 445.256 292.426 444.807C291.668 441.266 290.789 438.71 286.586 433.572C282.086 428.072 275.586 422.072 272.586 416.072C269.586 410.072 260.086 352.572 262.086 348.072Z"/></svg>