<svg width="500" height="500" viewBox="0 0 500 500" fill="none" xmlns="http://www.w3.org/2000/svg">
<path d="M36 294C32.355 305.541 28.4734 311.559 26.5 323.5C24.5964 335.019 24.8225 343.088 25.8642 353.389C26.3493 358.187 26.8955 361.734 28 367C28.8264 370.94 29.2948 373.159 30.5 377C36.9086 397.423 46.3934 407.402 62.5 421.5C78.8004 435.768 91.1611 440.044 111.5 447.5C132.678 455.264 145.636 456.558 168 459.5C190.68 462.484 203.631 463.073 226.5 462.5C243.343 462.078 252.824 461.404 269.5 459C286.481 456.552 295.997 454.691 312.5 450C329.493 445.169 339.13 442.262 355 434.5C370.284 427.025 392 411.5 392 411.5C392 411.5 398.5 410.5 401 410C403.5 409.5 407.25 408 409 407C410.75 406 412 405.5 415.5 400.5C419 395.5 418 391.5 418 391.5C418 391.5 418.681 388.006 417.5 385.5C416.274 382.897 416 381.5 416 380.5C416 379.5 433 369 433.5 367.5C434 366 433.5 365 433.5 363.5C433.5 362 439.5 361 439 359C438.5 357 430.5 344.5 430.5 344.5L423 315.5L418 303.5L429.5 273L433 256L434.5 238.5C434.5 238.5 437 217 421.5 215C414.741 214.128 401.848 217.26 390.5 222.5C375.826 229.277 363 238.5 362.5 238.5C362.217 238.5 352.407 226.777 338 214.5C326.964 205.096 312.862 195.572 300.5 189.5C284.326 181.555 273.044 176.889 260.5 173C250.941 170.037 240.623 167.23 227 165.5C214.934 163.968 205.969 163.329 192.5 164C178.903 164.678 171.215 165.728 158 169C149.248 171.167 144.389 172.696 136 176C130.632 178.114 127.677 179.454 122.5 182C110.389 187.955 103.685 191.756 93 200C82.5037 208.099 77.0148 213.338 68.5 223.5C59.0736 234.75 54.2977 241.743 48 255C41.1626 269.394 40.7991 278.805 36 294Z" fill="#B4B4B4"/>
<path d="M211.5 332.5C210.947 329.463 215.712 330.073 218 328C221.734 324.616 223.086 321.923 225.5 317.5C227.723 313.426 228.219 310.786 230 306.5C232.115 301.409 233.043 298.434 235.5 293.5C237.292 289.901 237.005 286.487 240.5 284.5C241.414 283.98 242.245 284.232 243 283.5C244.549 281.999 242.812 280.134 242.5 278C241.768 272.984 239.987 270.472 239 265.5C238.08 260.868 237.983 258.198 237.5 253.5C236.999 248.629 236.689 245.894 236.5 241C236.206 233.388 235.883 229.035 237 221.5C237.556 217.75 237.584 215.517 239 212C240.276 208.831 240.251 205.554 243.5 204.5C246.437 203.547 248.667 205.5 251 207L258 212C258 212 265.667 218.5 269.5 221.5C273.333 224.5 277.153 229.13 281.5 234.5C285.285 239.175 290.356 240.987 290.5 247C290.538 248.574 289.605 249.476 290 251C291.07 255.128 296.369 249.061 300.5 248C304.767 246.904 307.143 246.15 311.5 245.5C318.455 244.462 322.499 244.34 329.5 245C335.448 245.561 338.905 245.906 344.5 248C348.835 249.623 353.715 249.053 355 253.5C355.894 256.594 350.934 259.03 353 261.5C355.536 264.533 361.5 256 361.5 256C361.5 256 367.465 250.954 371.5 248C373.991 246.176 375.401 245.166 378 243.5C383.957 239.682 387.532 237.869 394 235C400.268 232.22 403.767 230.296 410.5 229C414.354 228.258 417.662 225.289 420.5 228C421.763 229.206 421.94 230.346 422.5 232C423.815 235.884 422.64 238.402 422.5 242.5C422.326 247.589 422.165 250.452 421.5 255.5C420.615 262.22 419.797 265.964 418 272.5L417.978 272.579C416.519 277.888 415.685 280.92 413.5 286C411.221 291.297 409.102 293.855 406.5 299C404.253 303.442 396.288 308.894 401 310.5C403.248 311.266 404.725 308.815 407 309.5C411.028 310.712 409.67 315.51 411 319.5C412.154 322.961 412.521 324.986 413.5 328.5C414.861 333.383 415.361 336.203 417 341C418.219 344.569 418.786 346.641 420.5 350C421.855 352.655 424.545 353.52 424.5 356.5C424.419 361.9 409.504 354.311 411 359.5C411.931 362.728 418 361.141 418 364.5C418 367.859 413.904 367.811 411 369.5C408.206 371.125 408.967 370.852 403.5 373L389.5 378.5C384.033 380.648 380.093 380.823 374 382C368.107 383.138 364.716 383.619 358.882 384.446L358.5 384.5C352.073 385.411 348.425 385.58 342 386.5C337.106 387.201 334.288 387.268 329.5 388.5C325.912 389.423 323.942 390.129 320.5 391.5C316.686 393.019 314.642 394.105 311 396C307.82 397.654 306.146 398.782 303 400.5C299.704 402.301 297.975 403.575 294.5 405C290.554 406.618 288.204 407.283 284 408C278.992 408.854 275.975 409.532 271 408.5C268.582 407.998 265.192 408.962 265 406.5C264.81 404.061 268.453 404.84 270.5 403.5C272.134 402.431 273.367 402.09 274.5 400.5C275.792 398.687 276.437 397.183 276 395C275.691 393.456 275.034 392.687 274 391.5C272.613 389.907 271.304 389.598 269.5 388.5C267.41 387.228 266.31 386.306 264 385.5C261.027 384.463 259.147 384.597 256 384.5C252.871 384.404 249.483 387.757 248 385C246.588 382.375 250.282 380.936 252 378.5C253.283 376.681 254.257 375.847 255.5 374C257.353 371.246 257.932 369.426 259.5 366.5C260.862 363.959 261.677 362.562 263 360C264.002 358.06 264.745 357.048 265.5 355C266.467 352.377 266.731 350.783 267 348C267.225 345.668 267.391 343.367 267 342L266 338.5C265.609 337.133 263.656 336.807 262 336C260.5 335.269 259.534 335.156 258 334.5C255.993 333.641 254.691 333.38 253 332C251.275 330.592 251.079 329.069 249.5 327.5C248.418 326.425 247.934 324.482 246.5 325C245.019 325.535 245.813 327.437 246 329C246.229 330.909 247.027 331.841 248 333.5C249.127 335.42 249.853 336.502 251.5 338C253.507 339.825 255.11 340.218 257.5 341.5C259.424 342.532 261.712 341.964 262.5 344C262.923 345.093 262.647 345.838 262.5 347C262.322 348.41 261.966 349.157 261.5 350.5C260.726 352.729 260.026 353.875 259 356C257.367 359.382 257.429 360.985 254.5 364.5L247 373.5C244.071 377.015 243.825 369.085 241.5 366.5C239.653 364.447 238.542 363.359 236.5 361.5C233.726 358.975 231.94 357.83 229 355.5C226.275 353.341 224.48 352.437 222 350C219.325 347.371 214.056 345.708 216 342.5C217.377 340.229 221.796 343.061 222.5 340.5C223.276 337.676 218.875 337.715 216.5 336C214.568 334.605 211.927 334.845 211.5 332.5Z" fill="white"/>
<path d="M371 398C374.26 399.854 378.734 400.256 378.5 404C378.301 407.172 372.5 409.5 372.5 409.5C372.5 409.5 366.198 413.626 362 416C355.387 419.74 351.44 421.408 344.5 424.5C337.379 427.672 333.337 429.366 326 432C317.92 434.901 313.305 436.325 305 438.5C294.59 441.226 288.604 442.168 278 444C268.667 445.613 263.415 446.465 254 447.5C246.988 448.271 243.045 448.654 236 449C225.859 449.498 220.151 449.213 210 449C197.492 448.737 189.911 449.257 178 447.5L147.5 443C135.589 441.243 130.587 438.939 120 435.5C111.892 432.866 107.29 431.462 99.5 428C91.8375 424.595 87.5576 422.527 80.5 418C74.9777 414.457 71.9483 412.308 67 408C61.4799 403.194 58.3667 400.374 54 394.5C50.6035 389.931 48.8719 387.175 46.5 382C44.1845 376.948 43.4946 373.853 42 368.5L41.9351 368.268C40.2549 362.251 39.282 358.767 38.5 352.5C37.6776 345.909 37.6781 342.134 38 335.5L38.0162 335.166C38.2629 330.073 38.4081 327.076 39.5 322C40.5711 317.021 41.6266 314.311 43.4647 309.591L43.5 309.5C45.054 305.509 47.219 304.577 48 299.5L50 286.5C50.7811 281.423 52.5363 278.199 54.5 273C56.4479 267.843 57.596 264.961 60 260C62.6302 254.573 64.2676 251.592 67.5 246.5C70.7239 241.422 72.6548 238.626 76.5 234C80.2963 229.433 82.7345 227.132 87 223C92.7656 217.415 96.1023 214.348 102.5 209.5C109.363 204.299 113.475 201.687 121 197.5C127.258 194.018 130.895 192.266 137.5 189.5C144.563 186.542 148.645 185.13 156 183C166.152 180.06 172.004 178.747 182.5 177.5C191.815 176.393 197.122 176.262 206.5 176.5C218.679 176.809 225.55 177.629 237.5 180C251.92 182.861 259.883 185.461 273.5 191C285.229 195.771 291.583 199.086 302.5 205.5C310.765 210.356 323 219 323 219C330.898 225.063 351.904 234.978 342 236C338.456 236.366 336.532 234.967 333 234.5L332.786 234.472C328.642 233.924 326.24 233.606 322 233.5C317.506 233.388 314.974 233.559 310.5 234C305.58 234.485 302.356 238.338 298 236C295.313 234.557 294.945 232.349 293 230C289.46 225.725 287.854 222.994 284 219C280.543 215.418 278.306 213.709 274.5 210.5C269.394 206.195 266.593 203.651 261 200C256.68 197.18 254.47 194.884 249.5 193.5C246.467 192.655 244.603 191.964 241.5 192.5C238.745 192.976 237.126 193.685 235 195.5C232.858 197.328 232.255 198.979 231 201.5C228.763 205.994 228.861 209.054 228 214C226.923 220.183 226.703 223.728 226.5 230C226.291 236.443 226.4 240.081 227 246.5C227.404 250.817 227.837 253.216 228.5 257.5C229.35 262.988 231 271.5 231 271.5C231.723 275.027 233.53 276.939 233 280.5C232.472 284.046 230.115 285.3 228.5 288.5C227.24 290.996 226.586 292.424 225.5 295C224.241 297.987 223.63 299.746 222.592 302.735L222.5 303C221.223 306.675 221.154 308.978 219.5 312.5C217.82 316.079 216.649 318.065 214 321C211.772 323.468 210.376 324.831 207.5 326.5C205.412 327.712 203.809 327.623 201.5 328.5C200.517 328.873 199.687 328.704 199 329.5C198.224 330.399 199.167 330.86 199.5 332L199.526 332.09C199.933 333.484 200.077 333.975 201.5 335C202.551 335.757 203.694 335.915 203.5 337C203.346 337.86 202.687 338.147 202.5 339C201.932 341.595 206.5 344.5 206.5 344.5C206.5 344.5 202.82 344.012 200.5 343.5C198.326 343.02 196 342 196 342C196 342 195.25 339.912 196 337.5C196.707 335.228 197.896 332.696 198.5 330.5C199.567 326.619 200.29 324.462 201 320.5C201.555 317.401 201.779 315.641 202 312.5C202.288 308.41 202.409 306.08 202 302C201.481 296.816 201.015 293.805 199 289C196.296 282.553 193.505 279.382 188.5 274.5C184.502 270.601 181.806 268.845 177 266C172.188 263.152 169.316 261.732 164 260C157.224 257.792 153.113 257.432 146 257C138.389 256.538 133.935 256.305 126.5 258C122.286 258.961 122 259.5 119 260.5C116 261.5 115.5 261.5 115.5 262.5C115.5 263.5 117 263.5 119 263C121 262.5 123.498 262.736 128 262.5C134.825 262.143 138.716 261.677 145.5 262.5C152.082 263.299 155.83 264.072 162 266.5C167.366 268.611 170.375 270.057 175 273.5C178.657 276.222 180.566 278.011 183.5 281.5C185.94 284.402 187.146 286.193 189 289.5C190.881 292.855 192.176 294.743 193 298.5C193.878 302.505 193 309 193 309C193 309 188 329.1 188 329.5C188 329.5 187.299 333.521 186.5 336C185.721 338.416 186.347 340.534 184 341.5C182.736 342.02 181.867 342 180.5 342L176.5 342C172.204 342 169.779 341.617 165.5 342C161.151 342.389 158.799 343.236 154.5 344C148.843 345.006 145.69 345.698 140 346.5C132.035 347.623 127.541 348.693 119.5 348.5C114.003 348.368 110.879 348.139 105.5 347C99.036 345.632 95.2238 344.801 89.5 341.5C86.5898 339.822 85.7262 337.437 82.5 336.5C81.3594 336.169 80.3004 335.122 79.5 336C78.6678 336.912 79.9645 337.887 80.5 339C82.1808 342.492 84.8803 343.2 88 345.5C92.0163 348.461 99 352 99 352C99 352 112.217 356.309 121 357C128.796 357.614 133.212 356.708 141 356C152.606 354.945 158.858 352.016 170.5 351.5C182.425 350.972 189.328 350.999 201 353.5L201.017 353.504C208.615 355.132 213.019 356.076 220 359.5C226.808 362.839 231.169 364.656 236 370.5C239.009 374.14 242.778 376.342 242 381C241.597 383.413 239.678 384.149 239 386.5C238.135 389.502 238.359 391.442 239 394.5C240.371 401.037 244.244 403.879 249.5 408C256.934 413.83 263.083 414.744 272.5 415.5C279.937 416.097 284.309 415.49 291.5 413.5C299.916 411.171 303.464 406.916 311.5 403.5C320.252 399.78 325.169 397.334 334.5 395.5C342.759 393.877 347.646 392.971 356 394C362.017 394.741 365.73 395.003 371 398Z" fill="white"/>
<path d="M406 267.5C406 267.5 399.453 284.38 391.511 294.826C391.058 295.421 390.143 295.294 389.816 294.621C388.028 290.936 386.144 288.727 382.113 285.055C381.759 284.732 381.679 284.2 381.929 283.792C384.248 280 384.516 280.145 385.241 276.388C385.372 275.711 384.786 275.114 384.106 275.223L374.859 276.703C374.068 276.829 373.463 276.023 373.837 275.314C381.859 260.096 400.247 249.359 407 245.5C414 241.5 406 267.5 406 267.5Z" fill="#B4B4B4"/>
<path d="M249 223C258 227 271 256.5 269 257.5C267.954 258.023 268.5 257 261 262.5C253.5 268 255.147 270.761 253 271C248.5 271.5 240 219 249 223Z" fill="#B4B4B4"/>
<path d="M392 397.5C393.206 396.207 391.057 394.022 392.5 393C394.419 391.642 394.5 397.5 396.5 397.5C398.5 397.5 399.444 397.246 402.5 395.5C406 393.5 406.305 393.196 406.5 391C406.694 388.805 404 386 401.175 383.059L401.175 383.059C399.863 381.694 394.411 384.703 388 386.5C380.604 388.573 372.849 388.118 374.675 389.559C375.554 390.253 379.497 391.509 382.5 393.5C385.729 395.641 387 398 388 398.5C389 399 390.901 398.678 392 397.5Z" fill="white"/>
<path d="M306.5 358.5C305.168 358.137 304.5 358.052 304.5 357C304.5 355.5 307.299 350.035 311 348.5C314.427 347.078 316.791 348.573 320.5 348.5C324.994 348.412 327.739 349.431 332 348C334.985 346.998 340 344 340.5 344C341 344 341.545 344.093 341.5 345.5C341.447 347.156 339.254 348.917 338 350C335.869 351.841 334.594 352.903 332 354C328.896 355.313 326.858 355.207 323.5 355.5C318.633 355.925 315.407 352.891 311 355C308.992 355.961 308.648 359.086 306.5 358.5Z" fill="#B4B4B4"/>
<path d="M388.04 166.568C387.016 168.328 385.912 170.072 384.728 171.8C383.544 173.528 381.928 175.848 379.88 178.76L376.856 183.032C378.264 182.904 380.104 182.84 382.376 182.84H384.968L385.976 182.792C386.232 182.792 386.44 182.856 386.6 182.984C386.76 183.112 386.872 183.384 386.936 183.8H387.752C387.912 184.76 387.992 185.848 387.992 187.064C387.992 187.704 387.96 188.504 387.896 189.464C387.832 190.392 387.784 191.064 387.752 191.48L387.656 192.584C383.688 192.36 380.04 192.248 376.712 192.248C373 192.248 369.864 192.328 367.304 192.488C367.176 192.168 367.08 191.832 367.016 191.48C366.664 191.48 366.44 191.496 366.344 191.528C365.928 190.472 365.72 189.256 365.72 187.88L365.768 186.488C365.8 186.168 365.816 185.704 365.816 185.096C365.816 184.68 365.784 184.088 365.72 183.32C366.744 180.984 368.008 178.68 369.512 176.408C371.016 174.136 373 171.304 375.464 167.912L376.52 166.52C375.016 166.392 373.368 166.296 371.576 166.232C369.784 166.168 368.28 166.136 367.064 166.136C367 166.008 366.936 165.848 366.872 165.656C366.808 165.464 366.744 165.304 366.68 165.176H366.104C365.784 164.632 365.624 163.704 365.624 162.392C365.624 161.016 365.576 159.992 365.48 159.32C365.384 158.616 365.08 158.008 364.568 157.496C368.056 157.176 371.4 157.016 374.6 157.016C375.88 157.016 377.864 157.048 380.552 157.112C383.368 157.176 385.544 157.208 387.08 157.208L387.176 158.168H388.04C388.136 158.904 388.184 159.784 388.184 160.808C388.184 161.992 388.168 162.888 388.136 163.496V163.448C388.104 164.088 388.088 165.032 388.088 166.28L388.04 166.568ZM386.696 162.776C386.76 161.56 386.792 160.648 386.792 160.04C386.792 159.24 386.744 158.456 386.648 157.688C385.208 157.688 383.144 157.656 380.456 157.592L374.504 157.544C373 157.544 371.464 157.56 369.896 157.592C368.328 157.624 366.904 157.72 365.624 157.88L365.72 158.072V158.12C365.912 158.76 366.008 159.704 366.008 160.952V162.008C366.008 163.352 366.136 164.248 366.392 164.696C367.768 164.696 369.704 164.76 372.2 164.888C374.696 165.016 376.616 165.16 377.96 165.32L375.656 168.536C373.384 171.672 371.496 174.376 369.992 176.648C368.488 178.92 367.224 181.16 366.2 183.368C366.232 183.72 366.248 184.248 366.248 184.952L366.2 187.784C366.2 189.096 366.344 190.184 366.632 191.048C370.056 190.888 373.096 190.808 375.752 190.808C379.4 190.808 382.904 190.904 386.264 191.096V191C386.424 189.336 386.504 187.72 386.504 186.152C386.504 185.16 386.456 184.216 386.36 183.32V183.176C385.304 183.24 384.408 183.272 383.672 183.272C382.968 183.272 382.376 183.288 381.896 183.32C380.744 183.32 379.56 183.352 378.344 183.416C377.128 183.48 375.768 183.608 374.264 183.8L374.312 183.752C375.592 181.768 377.24 179.368 379.256 176.552C382.616 171.752 385.08 168.024 386.648 165.368V165.32L386.696 162.776Z" fill="white"/>
<path d="M490.8 99.46C489.52 101.66 488.14 103.84 486.66 106C485.18 108.16 483.16 111.06 480.6 114.7L476.82 120.04C478.58 119.88 480.88 119.8 483.72 119.8H486.96L488.22 119.74C488.54 119.74 488.8 119.82 489 119.98C489.2 120.14 489.34 120.48 489.42 121H490.44C490.64 122.2 490.74 123.56 490.74 125.08C490.74 125.88 490.7 126.88 490.62 128.08C490.54 129.24 490.48 130.08 490.44 130.6L490.32 131.98C485.36 131.7 480.8 131.56 476.64 131.56C472 131.56 468.08 131.66 464.88 131.86C464.72 131.46 464.6 131.04 464.52 130.6C464.08 130.6 463.8 130.62 463.68 130.66C463.16 129.34 462.9 127.82 462.9 126.1L462.96 124.36C463 123.96 463.02 123.38 463.02 122.62C463.02 122.1 462.98 121.36 462.9 120.4C464.18 117.48 465.76 114.6 467.64 111.76C469.52 108.92 472 105.38 475.08 101.14L476.4 99.4C474.52 99.24 472.46 99.12 470.22 99.04C467.98 98.96 466.1 98.92 464.58 98.92C464.5 98.76 464.42 98.56 464.34 98.32C464.26 98.08 464.18 97.88 464.1 97.72H463.38C462.98 97.04 462.78 95.88 462.78 94.24C462.78 92.52 462.72 91.24 462.6 90.4C462.48 89.52 462.1 88.76 461.46 88.12C465.82 87.72 470 87.52 474 87.52C475.6 87.52 478.08 87.56 481.44 87.64C484.96 87.72 487.68 87.76 489.6 87.76L489.72 88.96H490.8C490.92 89.88 490.98 90.98 490.98 92.26C490.98 93.74 490.96 94.86 490.92 95.62V95.56C490.88 96.36 490.86 97.54 490.86 99.1L490.8 99.46ZM489.12 94.72C489.2 93.2 489.24 92.06 489.24 91.3C489.24 90.3 489.18 89.32 489.06 88.36C487.26 88.36 484.68 88.32 481.32 88.24L473.88 88.18C472 88.18 470.08 88.2 468.12 88.24C466.16 88.28 464.38 88.4 462.78 88.6L462.9 88.84V88.9C463.14 89.7 463.26 90.88 463.26 92.44V93.76C463.26 95.44 463.42 96.56 463.74 97.12C465.46 97.12 467.88 97.2 471 97.36C474.12 97.52 476.52 97.7 478.2 97.9L475.32 101.92C472.48 105.84 470.12 109.22 468.24 112.06C466.36 114.9 464.78 117.7 463.5 120.46C463.54 120.9 463.56 121.56 463.56 122.44L463.5 125.98C463.5 127.62 463.68 128.98 464.04 130.06C468.32 129.86 472.12 129.76 475.44 129.76C480 129.76 484.38 129.88 488.58 130.12V130C488.78 127.92 488.88 125.9 488.88 123.94C488.88 122.7 488.82 121.52 488.7 120.4V120.22C487.38 120.3 486.26 120.34 485.34 120.34C484.46 120.34 483.72 120.36 483.12 120.4C481.68 120.4 480.2 120.44 478.68 120.52C477.16 120.6 475.46 120.76 473.58 121L473.64 120.94C475.24 118.46 477.3 115.46 479.82 111.94C484.02 105.94 487.1 101.28 489.06 97.96V97.9L489.12 94.72Z" fill="white"/>
<path d="M438.92 136.514C437.768 138.494 436.526 140.456 435.194 142.4C433.862 144.344 432.044 146.954 429.74 150.23L426.338 155.036C427.922 154.892 429.992 154.82 432.548 154.82H435.464L436.598 154.766C436.886 154.766 437.12 154.838 437.3 154.982C437.48 155.126 437.606 155.432 437.678 155.9H438.596C438.776 156.98 438.866 158.204 438.866 159.572C438.866 160.292 438.83 161.192 438.758 162.272C438.686 163.316 438.632 164.072 438.596 164.54L438.488 165.782C434.024 165.53 429.92 165.404 426.176 165.404C422 165.404 418.472 165.494 415.592 165.674C415.448 165.314 415.34 164.936 415.268 164.54C414.872 164.54 414.62 164.558 414.512 164.594C414.044 163.406 413.81 162.038 413.81 160.49L413.864 158.924C413.9 158.564 413.918 158.042 413.918 157.358C413.918 156.89 413.882 156.224 413.81 155.36C414.962 152.732 416.384 150.14 418.076 147.584C419.768 145.028 422 141.842 424.772 138.026L425.96 136.46C424.268 136.316 422.414 136.208 420.398 136.136C418.382 136.064 416.69 136.028 415.322 136.028C415.25 135.884 415.178 135.704 415.106 135.488C415.034 135.272 414.962 135.092 414.89 134.948H414.242C413.882 134.336 413.702 133.292 413.702 131.816C413.702 130.268 413.648 129.116 413.54 128.36C413.432 127.568 413.09 126.884 412.514 126.308C416.438 125.948 420.2 125.768 423.8 125.768C425.24 125.768 427.472 125.804 430.496 125.876C433.664 125.948 436.112 125.984 437.84 125.984L437.948 127.064H438.92C439.028 127.892 439.082 128.882 439.082 130.034C439.082 131.366 439.064 132.374 439.028 133.058V133.004C438.992 133.724 438.974 134.786 438.974 136.19L438.92 136.514ZM437.408 132.248C437.48 130.88 437.516 129.854 437.516 129.17C437.516 128.27 437.462 127.388 437.354 126.524C435.734 126.524 433.412 126.488 430.388 126.416L423.692 126.362C422 126.362 420.272 126.38 418.508 126.416C416.744 126.452 415.142 126.56 413.702 126.74L413.81 126.956V127.01C414.026 127.73 414.134 128.792 414.134 130.196V131.384C414.134 132.896 414.278 133.904 414.566 134.408C416.114 134.408 418.292 134.48 421.1 134.624C423.908 134.768 426.068 134.93 427.58 135.11L424.988 138.728C422.432 142.256 420.308 145.298 418.616 147.854C416.924 150.41 415.502 152.93 414.35 155.414C414.386 155.81 414.404 156.404 414.404 157.196L414.35 160.382C414.35 161.858 414.512 163.082 414.836 164.054C418.688 163.874 422.108 163.784 425.096 163.784C429.2 163.784 433.142 163.892 436.922 164.108V164C437.102 162.128 437.192 160.31 437.192 158.546C437.192 157.43 437.138 156.368 437.03 155.36V155.198C435.842 155.27 434.834 155.306 434.006 155.306C433.214 155.306 432.548 155.324 432.008 155.36C430.712 155.36 429.38 155.396 428.012 155.468C426.644 155.54 425.114 155.684 423.422 155.9L423.476 155.846C424.916 153.614 426.77 150.914 429.038 147.746C432.818 142.346 435.59 138.152 437.354 135.164V135.11L437.408 132.248Z" fill="white"/>
</svg>
