<svg width="500" height="500" viewBox="0 0 500 500" fill="none" xmlns="http://www.w3.org/2000/svg">
<path d="M13.1992 226.341C8.79648 240.282 4.10809 247.55 1.72455 261.973C-0.574723 275.886 -0.301587 285.633 0.956557 298.075C1.54257 303.87 2.20227 308.155 3.53633 314.515C4.53445 319.273 5.10027 321.954 6.55596 326.593C14.2966 351.262 25.7529 363.314 45.2073 380.343C64.8958 397.576 79.8256 402.741 104.392 411.747C129.973 421.125 145.623 422.687 172.636 426.241C200.03 429.845 215.673 430.557 243.295 429.865C263.639 429.355 275.091 428.542 295.233 425.637C315.743 422.68 327.238 420.433 347.171 414.767C367.696 408.932 379.336 405.42 398.505 396.045C416.965 387.016 443.195 368.264 443.195 368.264C443.195 368.264 451.046 367.056 454.066 366.453C457.085 365.849 461.615 364.037 463.729 362.829C465.842 361.621 467.352 361.017 471.58 354.978C475.807 348.939 474.599 344.107 474.599 344.107C474.599 344.107 475.421 339.887 473.995 336.86C472.514 333.716 472.184 332.029 472.184 330.821C472.184 329.613 492.717 316.93 493.321 315.119C493.925 313.307 493.321 312.099 493.321 310.287C493.321 308.476 500.568 307.268 499.964 304.852C499.36 302.436 489.697 287.338 489.697 287.338L480.639 252.31L474.599 237.816L488.49 200.977L492.717 180.443L494.529 159.306C494.529 159.306 497.549 133.337 478.827 130.921C470.663 129.868 455.089 133.65 441.383 139.98C423.659 148.165 408.167 159.306 407.563 159.306C407.221 159.306 395.373 145.146 377.971 130.317C364.642 118.958 347.608 107.455 332.677 100.121C313.14 90.5239 299.514 84.8882 284.362 80.1912C272.816 76.6119 260.354 73.2218 243.899 71.1323C229.326 69.2817 218.497 68.5098 202.228 69.3205C185.805 70.139 176.519 71.4081 160.557 75.3598C149.987 77.9769 144.117 79.8234 133.985 83.8146C127.501 86.3686 123.932 87.9868 117.679 91.0619C103.051 98.2551 94.9525 102.845 82.0468 112.803C69.3688 122.586 62.739 128.914 52.4544 141.188C41.0686 154.776 35.3001 163.222 27.6934 179.235C19.4348 196.621 18.9958 207.988 13.1992 226.341Z" fill="#B4B4B4"/>
<path d="M225.178 272.844C224.509 269.175 230.265 269.913 233.029 267.408C237.539 263.321 239.172 260.069 242.088 254.726C244.773 249.805 245.372 246.617 247.523 241.44C250.077 235.291 251.198 231.698 254.166 225.738C256.331 221.39 255.983 217.267 260.205 214.867C261.309 214.239 262.313 214.543 263.225 213.659C265.096 211.846 262.997 209.593 262.621 207.016C261.736 200.957 259.586 197.923 258.394 191.918C257.282 186.322 257.165 183.098 256.582 177.423C255.977 171.539 255.602 168.236 255.374 162.325C255.019 153.131 254.629 147.874 255.978 138.772C256.649 134.242 256.683 131.545 258.394 127.297C259.934 123.47 259.905 119.512 263.829 118.239C267.376 117.087 270.069 119.446 272.888 121.258L281.343 127.297C281.343 127.297 290.603 135.148 295.233 138.772C299.863 142.396 304.477 147.988 309.727 154.474C314.299 160.121 320.424 162.309 320.598 169.572C320.644 171.473 319.517 172.563 319.994 174.404C321.286 179.39 327.687 172.061 332.677 170.78C337.83 169.457 340.7 168.546 345.963 167.761C354.364 166.507 359.248 166.359 367.704 167.157C374.888 167.834 379.064 168.251 385.822 170.78C391.058 172.74 396.952 172.052 398.505 177.423C399.585 181.16 393.593 184.102 396.089 187.086C399.153 190.749 406.356 180.443 406.356 180.443C406.356 180.443 413.56 174.349 418.434 170.78C421.443 168.577 423.146 167.357 426.285 165.345C433.48 160.733 437.799 158.543 445.611 155.078C453.181 151.72 457.408 149.397 465.54 147.831C470.195 146.935 474.191 143.349 477.619 146.623C479.144 148.08 479.358 149.457 480.035 151.455C481.624 156.146 480.204 159.187 480.035 164.137C479.824 170.284 479.63 173.742 478.827 179.839C477.758 187.956 476.77 192.478 474.599 200.373L474.573 200.468C472.81 206.881 471.803 210.543 469.164 216.679C466.412 223.076 463.852 226.166 460.709 232.381C457.995 237.746 448.374 244.331 454.066 246.271C456.782 247.197 458.565 244.236 461.313 245.063C466.178 246.527 464.537 252.322 466.144 257.142C467.538 261.322 467.981 263.768 469.164 268.012C470.808 273.911 471.412 277.316 473.391 283.111C474.864 287.421 475.548 289.924 477.619 293.981C479.255 297.188 482.505 298.233 482.45 301.832C482.352 308.355 464.337 299.188 466.144 305.456C467.269 309.355 474.599 307.437 474.599 311.495C474.599 315.553 469.652 315.495 466.144 317.534C462.769 319.497 463.689 319.168 457.085 321.762L440.176 328.405C433.572 330.999 428.813 331.211 421.454 332.633C414.337 334.007 410.24 334.588 403.194 335.587L402.732 335.652C394.97 336.753 390.563 336.957 382.802 338.068C376.892 338.914 373.487 338.995 367.704 340.484C363.371 341.599 360.991 342.452 356.834 344.107C352.227 345.942 349.758 347.254 345.359 349.543C341.518 351.541 339.496 352.902 335.696 354.978C331.715 357.153 329.627 358.692 325.429 360.413C320.664 362.368 317.825 363.171 312.747 364.037C306.698 365.068 303.054 365.887 297.045 364.641C294.124 364.035 290.03 365.199 289.798 362.225C289.568 359.279 293.968 360.22 296.441 358.601C298.414 357.31 299.903 356.898 301.272 354.978C302.833 352.788 303.611 350.972 303.084 348.335C302.711 346.47 301.917 345.541 300.668 344.107C298.993 342.183 297.412 341.81 295.233 340.484C292.709 338.947 291.38 337.833 288.59 336.86C284.999 335.607 282.728 335.769 278.927 335.652C275.148 335.536 271.055 339.586 269.264 336.256C267.559 333.086 272.021 331.347 274.096 328.405C275.646 326.208 276.822 325.201 278.323 322.97C280.562 319.644 281.26 317.445 283.155 313.911C284.8 310.842 285.784 309.154 287.382 306.06C288.592 303.717 289.49 302.495 290.402 300.021C291.569 296.852 291.889 294.927 292.213 291.566C292.485 288.748 292.685 285.969 292.213 284.318L291.006 280.091C290.534 278.44 288.174 278.047 286.174 277.071C284.363 276.188 283.195 276.052 281.343 275.26C278.918 274.223 277.346 273.907 275.303 272.24C273.22 270.54 272.984 268.7 271.076 266.805C269.769 265.506 269.185 263.159 267.452 263.785C265.664 264.431 266.622 266.728 266.849 268.616C267.125 270.923 268.089 272.048 269.264 274.052C270.625 276.371 271.502 277.678 273.492 279.487C275.916 281.691 277.852 282.166 280.739 283.714C283.062 284.961 285.826 284.275 286.778 286.734C287.289 288.054 286.955 288.954 286.778 290.358C286.563 292.061 286.133 292.963 285.57 294.585C284.636 297.277 283.79 298.662 282.551 301.228C280.578 305.314 280.653 307.25 277.115 311.495L268.056 322.366C264.519 326.611 264.221 317.033 261.413 313.911C259.183 311.431 257.84 310.117 255.374 307.872C252.024 304.822 249.866 303.438 246.315 300.624C243.024 298.016 240.855 296.924 237.86 293.981C234.629 290.806 228.264 288.797 230.613 284.922C232.276 282.179 237.614 285.6 238.464 282.507C239.402 279.095 234.085 279.142 231.217 277.071C228.883 275.386 225.693 275.676 225.178 272.844Z" fill="white"/>
<path d="M417.83 351.958C421.768 354.198 427.172 354.684 426.889 359.205C426.649 363.037 419.642 365.849 419.642 365.849C419.642 365.849 412.03 370.832 406.959 373.7C398.971 378.217 394.205 380.232 385.822 383.966C377.221 387.798 372.339 389.843 363.477 393.025C353.717 396.529 348.143 398.249 338.112 400.876C325.538 404.169 318.307 405.307 305.5 407.52C294.226 409.467 287.883 410.497 276.511 411.747C268.042 412.678 263.279 413.141 254.77 413.559C242.52 414.16 235.627 413.816 223.366 413.559C208.258 413.242 199.101 413.87 184.714 411.747L147.875 406.312C133.488 404.189 127.446 401.407 114.659 397.253C104.866 394.072 99.3072 392.375 89.8978 388.194C80.6426 384.081 75.4731 381.584 66.9486 376.115C60.2784 371.837 56.6194 369.24 50.6425 364.037C43.975 358.232 40.2148 354.825 34.9404 347.731C30.838 342.213 28.7465 338.883 25.8815 332.633C23.0848 326.531 22.2514 322.792 20.4462 316.327L20.3678 316.046C18.3383 308.778 17.1632 304.57 16.2187 297.001C15.2254 289.04 15.226 284.48 15.6148 276.467L15.6344 276.063C15.9323 269.912 16.1077 266.292 17.4266 260.161C18.7203 254.148 19.9952 250.874 22.2153 245.173L22.258 245.063C24.135 240.243 26.7499 239.117 27.6933 232.985L30.109 217.283C31.0524 211.151 33.1725 207.256 35.5444 200.977C37.8971 194.748 39.2838 191.266 42.1876 185.274C45.3644 178.719 47.3422 175.118 51.2465 168.968C55.1404 162.835 57.4726 159.457 62.1171 153.87C66.7025 148.354 69.6474 145.575 74.7996 140.584C81.7636 133.838 85.7938 130.134 93.5213 124.278C101.811 117.996 106.777 114.841 115.867 109.784C123.425 105.578 127.818 103.462 135.796 100.121C144.328 96.5482 149.257 94.8429 158.141 92.2698C170.404 88.7182 177.472 87.133 190.15 85.6266C201.401 84.2896 207.811 84.1314 219.138 84.4187C233.849 84.7919 242.147 85.7827 256.582 88.6462C273.998 92.1014 283.617 95.2422 300.064 101.933C314.231 107.695 321.906 111.699 335.092 119.446C345.075 125.312 359.853 135.752 359.853 135.752C369.392 143.076 394.765 155.052 382.802 156.286C378.521 156.728 376.198 155.038 371.932 154.474L371.673 154.44C366.668 153.778 363.766 153.394 358.645 153.266C353.217 153.131 350.158 153.337 344.755 153.87C338.812 154.456 334.918 159.11 329.657 156.286C326.411 154.543 325.967 151.877 323.617 149.039C319.342 143.875 317.402 140.577 312.747 135.752C308.572 131.425 305.869 129.362 301.272 125.486C295.105 120.286 291.721 117.213 284.966 112.803C279.748 109.397 277.078 106.624 271.076 104.952C267.412 103.932 265.16 103.097 261.413 103.744C258.085 104.319 256.13 105.176 253.562 107.368C250.975 109.576 250.246 111.57 248.73 114.615C246.029 120.043 246.147 123.739 245.107 129.713C243.806 137.181 243.541 141.463 243.295 149.039C243.043 156.821 243.174 161.216 243.899 168.968C244.387 174.182 244.91 177.08 245.711 182.255C246.737 188.884 248.73 199.165 248.73 199.165C249.604 203.425 251.786 205.734 251.146 210.035C250.509 214.318 247.662 215.833 245.711 219.698C244.189 222.713 243.399 224.438 242.087 227.549C240.567 231.157 239.829 233.282 238.575 236.891L238.464 237.212C236.922 241.651 236.838 244.433 234.84 248.687C232.81 253.01 231.397 255.408 228.197 258.954C225.506 261.935 223.819 263.58 220.346 265.597C217.825 267.061 215.888 266.953 213.099 268.012C211.911 268.463 210.909 268.259 210.079 269.22C209.142 270.306 210.281 270.863 210.683 272.24L210.715 272.349C211.206 274.033 211.379 274.626 213.099 275.863C214.369 276.778 215.749 276.968 215.515 278.279C215.328 279.317 214.532 279.665 214.307 280.695C213.621 283.829 219.138 287.338 219.138 287.338C219.138 287.338 214.693 286.749 211.891 286.13C209.265 285.55 206.456 284.318 206.456 284.318C206.456 284.318 205.549 281.797 206.456 278.883C207.309 276.139 208.746 273.08 209.475 270.428C210.764 265.74 211.637 263.136 212.495 258.35C213.166 254.606 213.435 252.48 213.703 248.687C214.051 243.746 214.196 240.932 213.703 236.004C213.076 229.742 212.514 226.106 210.079 220.302C206.813 212.515 203.442 208.685 197.397 202.788C192.568 198.078 189.311 195.958 183.506 192.522C177.695 189.081 174.226 187.367 167.804 185.274C159.62 182.608 154.655 182.172 146.063 181.651C136.87 181.093 131.49 180.812 122.51 182.859C117.42 184.019 117.074 184.671 113.451 185.878C109.827 187.086 109.223 187.086 109.223 188.294C109.223 189.502 111.035 189.502 113.451 188.898C115.867 188.294 118.884 188.579 124.322 188.294C132.565 187.863 137.264 187.3 145.459 188.294C153.409 189.259 157.936 190.193 165.389 193.126C171.869 195.676 175.504 197.422 181.091 201.581C185.507 204.868 187.814 207.029 191.357 211.243C194.305 214.748 195.761 216.912 198.001 220.906C200.272 224.959 201.837 227.239 202.832 231.777C203.893 236.615 202.832 244.459 202.832 244.459C202.832 244.459 196.793 268.737 196.793 269.22C196.793 269.22 195.947 274.077 194.981 277.071C194.04 279.989 194.796 282.547 191.961 283.715C190.491 284.32 189.463 284.319 187.914 284.319L187.734 284.318L182.902 284.318C177.714 284.319 174.784 283.856 169.616 284.318C164.363 284.788 161.522 285.811 156.33 286.734C149.496 287.949 145.688 288.785 138.816 289.754C129.195 291.111 123.768 292.402 114.055 292.17C107.415 292.01 103.642 291.733 97.1449 290.358C89.3373 288.705 84.7327 287.701 77.8192 283.715C74.3041 281.688 73.261 278.807 69.3643 277.675C67.9865 277.275 66.7075 276.011 65.7407 277.071C64.7355 278.173 66.3017 279.351 66.9486 280.695C68.9787 284.913 72.2393 285.768 76.0075 288.546C80.8586 292.122 89.2938 296.397 89.2938 296.397C89.2938 296.397 105.257 301.601 115.867 302.436C125.283 303.178 130.617 302.084 140.024 301.228C154.042 299.954 161.593 296.416 175.655 295.793C190.059 295.155 198.397 295.187 212.495 298.209L212.516 298.213C221.693 300.18 227.012 301.32 235.444 305.456C243.667 309.489 248.935 311.683 254.77 318.742C258.404 323.139 262.957 325.798 262.017 331.425C261.53 334.34 259.212 335.228 258.393 338.068C257.348 341.694 257.619 344.038 258.393 347.731C260.049 355.626 264.728 359.059 271.076 364.037C280.055 371.078 287.482 372.182 298.856 373.096C307.839 373.817 313.12 373.084 321.806 370.68C331.971 367.866 336.256 362.728 345.963 358.602C356.534 354.108 362.472 351.154 373.743 348.939C383.719 346.978 389.622 345.884 399.712 347.127C406.98 348.022 411.465 348.338 417.83 351.958Z" fill="white"/>
<path d="M460.105 194.333C460.105 194.333 452.084 215.014 442.399 227.608C441.943 228.201 441.026 228.075 440.705 227.399C438.482 222.721 436.195 220.027 431.125 215.42C430.771 215.098 430.692 214.566 430.942 214.158C433.883 209.332 434.158 209.666 435.086 204.786C435.215 204.108 434.631 203.506 433.95 203.615L422.105 205.51C421.314 205.637 420.708 204.83 421.076 204.118C430.667 185.553 453.105 172.451 461.313 167.761C469.768 162.929 460.105 194.333 460.105 194.333Z" fill="#B4B4B4"/>
<path d="M270.472 140.584C281.343 145.415 297.045 181.047 294.629 182.255C293.366 182.886 294.025 181.651 284.966 188.294C275.907 194.937 277.897 198.273 275.303 198.561C269.868 199.165 259.601 135.753 270.472 140.584Z" fill="#B4B4B4"/>
<path d="M443.195 351.355C444.652 349.793 442.056 347.153 443.799 345.919C446.117 344.278 446.214 351.355 448.63 351.355C451.046 351.354 452.186 351.048 455.877 348.939C460.105 346.523 460.474 346.155 460.709 343.504C460.944 340.852 457.689 337.464 454.277 333.912L454.277 333.912C452.692 332.262 446.107 335.898 438.364 338.068C429.431 340.571 420.064 340.023 422.269 341.763C423.331 342.602 428.093 344.118 431.72 346.523C435.621 349.109 437.155 351.959 438.363 352.562C439.572 353.166 441.868 352.777 443.195 351.355Z" fill="white"/>
<path d="M339.924 304.248C338.315 303.809 337.508 303.706 337.508 302.436C337.508 300.624 340.889 294.024 345.359 292.169C349.498 290.452 352.353 292.258 356.834 292.169C362.262 292.063 365.577 293.294 370.724 291.566C374.329 290.355 380.387 286.734 380.991 286.734C381.594 286.734 382.253 286.846 382.199 288.546C382.134 290.546 379.486 292.673 377.971 293.981C375.397 296.205 373.857 297.488 370.724 298.813C366.974 300.399 364.513 300.27 360.457 300.624C354.579 301.138 350.682 297.473 345.359 300.021C342.933 301.181 342.518 304.956 339.924 304.248Z" fill="#B4B4B4"/>
</svg>
