<svg width="500" height="500" viewBox="0 0 500 500" fill="none" xmlns="http://www.w3.org/2000/svg">
<path d="M101 453.5C106.518 454.77 109.837 453.5 115.5 453.5C118.819 453.5 120.688 453.725 124 453.5C127.94 453.232 130.424 453.674 134 452C136.159 450.989 137.888 450.608 139 448.5C139.916 446.764 139.394 445.459 139.5 443.5C139.627 441.16 139.795 439.825 139.5 437.5C139.088 434.253 138.665 432.318 137 429.5C135.524 427.001 134.36 425.69 132 424C129.582 422.268 125 421 125 421C125 421 124.619 417.348 124.5 415C124.125 407.579 124.598 403.375 125.5 396C125.956 392.272 125.968 390.111 127 386.5C127.867 383.467 128.464 381.755 130 379C132.228 375.004 134.322 373.292 137.5 370C142.901 364.405 147.084 362.547 153 357.5C159.415 352.027 163.197 349.118 169 343C175.212 336.451 183.5 325 183.5 325C183.5 325 184.016 331.432 183.5 335.5C183.071 338.883 182.57 340.762 181.5 344C180.294 347.652 179.207 349.553 177.5 353C174.899 358.252 171.226 360.269 170 366C169.467 368.49 169.374 369.957 169.5 372.5C169.647 375.483 170.326 377.09 171 380C174.167 393.671 179.082 400.357 184 413.5C186.988 421.484 187.273 426.597 191.5 434C193.246 437.057 194.547 440.133 196.5 441.5C198.453 442.867 199.303 444.077 201.5 445C204.224 446.144 206.059 445.714 209 446C216.968 446.774 221.54 446.852 229.5 446C233.235 445.6 235.742 446.369 239 444.5C240.801 443.467 242.043 442.842 243 441C243.994 439.086 243.668 437.65 243.5 435.5C243.36 433.705 242.966 432.739 242.5 431C241.86 428.614 241.685 427.167 240.5 425C239.432 423.047 238.553 422.096 237 420.5C235.256 418.708 234.181 417.723 232 416.5C228.818 414.716 223 414 223 414C223 414 217.125 403.317 214.5 396C212.852 391.405 211.721 388.828 211 384C210.653 381.675 210.274 380.34 210.5 378C210.714 375.784 211.153 374.559 212 372.5C213.236 369.494 214.571 368.115 216.5 365.5C219.128 361.937 221.163 360.399 224 357C224 357 230.494 349.361 234 344C237.301 338.952 241.5 330.5 241.5 330.5C241.5 330.5 244.514 323.897 246 319.5C247.426 315.282 249 308.5 249 308.5L265.5 314.5C265.5 314.5 265.818 316.326 266 317.5C266.961 323.702 266.822 327.261 267.5 333.5C268.479 342.505 270.5 356.5 270.5 356.5L272.5 383C273.281 393.349 273.348 398.882 274.5 409C275.013 413.5 275.073 416.067 276 420.5C276.873 424.674 278.002 426.854 279 431C280.254 436.213 279.403 439.565 281.5 444.5C282.836 447.644 283.524 449.647 286 452C289.365 455.197 292.48 455.447 297 456.5C303.466 458.007 307.375 456.923 314 456.5C320.284 456.098 324.362 457.305 330 454.5C331.649 453.68 332.874 453.458 334 452C335.57 449.968 335.023 448.068 335 445.5C334.973 442.563 334.436 440.898 333.545 438.14L333.5 438C332.507 434.924 332.025 433.019 330 430.5C327.994 428.004 326.369 426.922 323.5 425.5C321.121 424.32 317 423.5 317 423.5C317 423.5 314.871 417.483 314 413.5C312.493 406.609 312.646 402.552 312.5 395.5C312.305 386.111 313.151 380.852 314 371.5C314.764 363.082 316.5 350 316.5 350L321 322L329.5 321C329.5 321 329.803 322.829 330 324C330 324 331.879 334.352 333 341C334.676 350.94 335.59 356.519 337 366.5C338.815 379.354 339.468 386.609 341 399.5C341.789 406.138 340.852 411.618 343 416.5L348.5 429C350.648 433.882 350.047 437 352.5 441.5C354.238 444.689 355.096 446.818 358 449C360.378 450.786 362.14 451.184 365 452C371.196 453.768 375.061 452.236 381.5 452C387.172 451.792 390.584 452.698 396 451C399.084 450.033 401.821 450.262 403.5 447.5C404.534 445.798 404.371 444.487 404.5 442.5C404.691 439.551 404.287 437.848 403.5 435C402.523 431.464 401.748 429.399 399.5 426.5C397.721 424.206 396.501 422.973 394 421.5C390.531 419.458 384 419 384 419C384 419 380.784 413.399 379.5 409.5C378.255 405.717 378.037 403.446 377.5 399.5C376.578 392.726 377.085 388.836 377 382C376.849 369.893 376.695 363.081 377.5 351C378.363 338.047 379.447 330.818 381.5 318C382.851 309.567 385.5 296.5 385.5 296.5C385.5 296.5 389.882 292.345 392.5 289.5C395.598 286.133 397.169 284.094 400 280.5C402.416 277.432 403.93 275.812 406 272.5C408.314 268.797 409.321 266.53 411 262.5C412.354 259.251 412.97 257.366 414 254C414.887 251.101 413.288 247.854 416 246.5C417.063 245.969 418.088 246.761 419 246C419.948 245.209 419.673 244.191 420 243C420.63 240.709 420.673 239.353 421 237C421.621 232.535 421.809 230.004 422 225.5C422.182 221.208 422.148 218.793 422 214.5C421.77 207.839 421.246 204.123 420.5 197.5C419.705 190.448 418 179.5 418 179.5C418 179.5 425.662 180.154 430.5 179.5C433.271 179.126 434.917 179.07 437.5 178C439.604 177.128 440.744 176.449 442.5 175C444.314 173.504 444.572 171.846 446.5 170.5C448.077 169.399 449.401 169.568 451 168.5C452.837 167.273 453.647 166.246 455 164.5C456.766 162.221 458.146 160.861 458.5 158C458.62 157.031 458.412 156.472 458.5 155.5C458.724 153.04 460.48 151.97 460.5 149.5C460.515 147.7 460.245 146.639 459.5 145C458.413 142.609 456.874 141.841 455 140C452.128 137.179 450.074 136.098 447 133.5C443.619 130.642 440.454 129.972 438.5 126C436.682 122.304 437.891 119.601 437.5 115.5C437.109 111.4 437.464 109.005 436.5 105C435.516 100.911 433.214 99.145 432.5 95C431.284 87.9429 434.716 84.0451 436 77C436.604 73.6839 437.097 71.8466 437.5 68.5C438.083 63.6495 438.183 60.882 438 56L437.986 55.6118C437.848 51.9267 437.766 49.7153 437 46C436.215 42.1895 436.858 39.1399 434 36.5C432.396 35.0187 431.159 34.3265 429 34C426.424 33.6104 424.972 34.6774 422.5 35.5C417.857 37.0451 415.623 38.8655 411.5 41.5C405.178 45.539 401.648 48.043 396.5 53.5C393.257 56.9384 389 63 389 63C389 63 383.532 62.1772 380 62C377.075 61.8533 372.5 62 372.5 62C372.5 62 366.549 53.6792 362 49C357.851 44.7327 355.239 42.6009 350.5 39C346.921 36.2802 345.153 34.221 341 32.5C338.025 31.2671 336.191 30.0649 333 30.5C330.916 30.7842 329.714 31.2818 328 32.5C326.308 33.7023 325.751 34.8437 324.5 36.5C322.077 39.7085 321.206 41.8593 319.5 45.5C316.618 51.6503 314.976 55.9469 314 62L311.5 77.5C310.524 83.5531 310.929 86.6393 311 92.5C311.052 96.7999 312.39 99.2929 311.5 103.5C310.433 108.547 307.125 110.299 305 115C301.972 121.697 301.26 125.864 299.5 133C298.069 138.8 299.234 142.689 296.5 148C293.276 154.262 288.186 157.181 283.5 160.5L271.5 169C266.814 172.319 264.602 172.058 260 173.5C251.3 176.226 246.031 176.253 237 177.5C223.025 179.43 215.057 179.306 201 180.5C189.674 181.462 183.162 180.852 172 183C160.778 185.159 154.29 186.53 144 191.5C135.612 195.552 131.134 198.509 124 204.5C120.932 207.076 119.47 208.811 116.5 211.5C111.162 216.333 107.559 218.376 102.5 223.5C94.2686 231.837 90.5842 237.488 84.5 247.5C78.4225 257.501 76.1872 263.777 71.5 274.5C67.0415 284.7 65.3251 290.743 61 301C58.35 307.284 56.9456 310.849 54 317C49.5849 326.22 45.9687 330.806 41.5 340C38.1374 346.919 35.6814 350.623 33.5 358C31.5337 364.649 31.0836 368.591 30.5 375.5C29.9247 382.31 29.6402 386.22 30.5 393C31.3103 399.39 31.9995 403.065 34.5 409C36.6063 414 37.4173 417.427 41.5 421C42.764 422.106 43.3205 423.529 45 423.5C46.8 423.469 47.297 421.839 48.5 420.5C50.7183 418.031 50.644 415.752 52.5 413C54.6136 409.866 56.1746 408.312 58.7988 405.7L59 405.5C63.2358 401.283 66.0494 399.349 71 396C77.4408 391.643 88.5 386.5 88.5 386.5C88.5 386.5 88.2035 398.69 88 406.5C88 406.5 87.589 417.773 87.5 425C87.5 425 85.7667 434.7 87.5 440.5C88.7762 444.77 89.4796 447.767 93 450.5C95.6355 452.546 97.7484 452.752 101 453.5Z" fill="#B4B4B4"/>
<path d="M83.9999 376.5C85.7863 374.971 87.9999 375 88.4999 372.5C89 370 88.1204 364.543 89.9999 360C91.2423 356.997 92.5185 355.576 94.4999 353C96.6063 350.262 98.4731 349.297 100.5 346.5C102.347 343.95 103.178 342.357 104.5 339.5C106.888 334.34 107.633 331.12 108.5 325.5C109.305 320.286 109.067 317.275 109 312C108.908 304.752 107.891 300.738 107.5 293.5C107.141 286.868 106.759 283.137 107 276.5C107.221 270.423 107.45 266.99 108.5 261C109.579 254.842 109.809 251.143 112.5 245.5C113.668 243.051 115 239.5 116 239.5C117 239.5 116 244 116 244C116 244 115.305 247.644 115 250C114.171 256.393 114.521 260.053 114.5 266.5C114.476 273.727 114.414 281.29 115 285L116.5 294.5C117.086 298.21 117.297 301.802 117.5 306.5C117.719 311.572 117.733 314.428 117.5 319.5C117.293 324.003 117.465 326.597 116.5 331C115.708 334.611 114.908 336.564 113.509 339.979L113.5 340C111.579 344.687 110.531 347.441 107.5 351.5C105.598 354.047 103.999 355.029 102 357.5C100.329 359.565 98.9945 360.537 97.9999 363C97.1104 365.203 97.2634 366.639 96.9999 369C96.4585 373.851 96.9999 374.08 96.9999 381.5C96.9999 381.5 97.1804 393.082 96.9999 400.5C96.8097 408.318 96.3063 412.686 95.9999 420.5C95.7474 426.942 95 435.5 95.4999 437C95.9999 438.5 96.6812 441.114 98.4999 443C100.081 444.639 101.362 445.217 103.5 446C106.806 447.21 111.5 447 112.5 446.5C113.5 446 113.325 444.723 113.5 443.5C113.809 441.339 113.321 440.023 112.5 438C111.807 436.293 109.5 434.5 110 434C110.5 433.5 111.566 433.716 112.5 434C114.222 434.524 114.533 435.981 115.5 437.5C116.203 438.605 116.584 439.258 117 440.5C117.685 442.545 117 445.5 117.5 446C118 446.5 125.5 446 126 445.5C126.5 445 126.097 443.059 126 441.5C125.903 439.929 125.914 439.019 125.5 437.5C124.926 435.394 123 433 123 432.5C123 432 125.713 433.32 127 434.5C128.482 435.858 128.81 437.112 129.5 439C130.316 441.231 130 445 130.5 445C131 445 132.5 444.5 133 443.5C133.5 442.5 133.166 439.755 132.5 437.5C131.807 435.153 131.068 433.878 129.5 432C127.898 430.08 126.707 429.175 124.5 428C121.991 426.663 119.378 428.134 117.5 426C115.904 424.187 116.426 422.377 116 420C115.138 415.191 115.473 412.385 115.5 407.5C115.523 403.2 115.541 400.776 116 396.5C116.487 391.968 116.799 389.397 118 385C118.927 381.604 119.365 379.617 121 376.5C122.56 373.525 123.901 372.123 126 369.5C129.194 365.51 131.262 363.485 135 360C140.086 355.258 143.678 353.474 149 349C152.178 346.329 154.065 344.935 157 342C159.935 339.065 161.403 337.239 164 334C167.592 329.519 169.391 326.828 172.5 322C175.201 317.805 176.868 315.511 179 311C181.217 306.309 182.022 303.473 183.5 298.5L183.629 298.065C184.698 294.473 185.34 292.315 186 288.5C186.669 284.633 186.838 282.421 187 278.5C187.218 273.229 186.754 270.27 186.5 265C186.331 261.484 185 256.5 186 256C187 255.5 188.442 258.214 189.5 260C190.558 261.786 193.948 272.331 194.5 276C195.052 279.669 194.5 286 195 288C195.402 289.607 197.393 288.402 199 288C201 287.5 200.804 287.309 202 287C205.408 286.119 207.481 286.41 211 286.5C215.528 286.615 218.07 287.059 222.5 288C231.084 289.823 235.319 292.824 243.5 296C250.936 298.887 257.523 303.5 265.5 303.5C266 303.5 266 300.5 266 300.5L266 286.5C266 286.5 264.5 273 265.5 272.5C266.5 272 267.522 275.757 268.5 278C269.883 281.172 270.131 283.151 271 286.5C273.386 295.697 273.686 301.089 275 310.5C275 310.5 277.23 331.517 278.5 345C279.768 358.464 280.717 365.999 281.5 379.5C282.223 391.982 281.5 403 282.5 411.5C283.5 420 286.074 424.856 288 433.5C288.608 436.229 288.418 437.922 289.5 440.5C290.485 442.848 291.176 444.223 293 446C294.203 447.172 294.962 447.825 296.5 448.5C299.01 449.601 300.761 448.917 303.5 449C305.525 449.061 308.375 449.5 308.688 449C309 448.5 308.769 446.541 308.5 445C308.182 443.175 307.941 442.096 307 440.5C306.365 439.423 304.915 438.5 305 438C305.085 437.5 305.806 437.12 306.5 437C307.622 436.805 309 438.5 309 438.5C309 438.5 310.362 439.598 311 440.5C311.964 441.862 312.021 442.902 312.5 444.5C313.017 446.224 312.5 448.5 313.5 449C314.5 449.5 317.998 449.5 318.999 449.5H319C320 449.5 320.982 449.014 321.5 448C321.944 447.13 321.5 445.5 321.5 445.5C321.5 445.5 321.103 442.993 320.5 441.5C319.911 440.04 318.5 438 318.5 438C318.5 438 317.081 435.883 318 435.5C318.36 435.35 318.612 435.456 319 435.5C320.669 435.69 321.469 436.674 322.5 438C323.413 439.174 323.504 440.098 324 441.5C324.869 443.956 325 448 325.5 448C326 448 327 448 328 446.5C329 445 327.928 441.34 326.5 438.5C325.5 436.511 324.682 435.459 323 434C321.151 432.397 319.726 432.015 317.5 431C314.859 429.796 312.632 430.469 310.5 428.5C308.575 426.723 308.497 424.922 307.5 422.5C305.805 418.383 305.215 415.895 304.5 411.5C303.652 406.293 304.021 403.276 304 398C303.968 389.79 304.444 385.191 305 377C305.332 372.114 305.567 369.378 306 364.5C306.677 356.875 307.139 352.607 308 345C308.553 340.115 308.788 337.365 309.5 332.5C310.448 326.02 310.804 322.326 312.5 316L312.619 315.557C313.393 312.665 313.865 310.903 315 308C316.018 305.396 316.722 303.986 318 301.5C320.526 296.585 322.745 294.291 325.5 289.5C328.895 283.595 330.847 280.274 333.5 274C335.28 269.79 336.254 267.398 337.5 263C338.481 259.536 339 255 339.5 254C340 253 340.583 252.166 341.5 252.5C342.435 252.841 342 255 342 255C342 255 341.89 256.181 341.5 259.5L340.5 268C340.109 271.319 339.607 274.776 338.5 279C337.075 284.438 335.728 287.338 333.5 292.5C330.627 299.155 324 310 325 311C326 312 331.5 310.5 331.5 310.5C331.5 310.5 336.102 309.722 339 309C343.793 307.805 346.412 306.832 351 305C356.434 302.83 359.5 301.539 364.5 298.5C369.506 295.458 371.983 293.23 376.5 289.5C380.339 286.33 382.576 284.614 386 281C389.922 276.86 391.906 274.29 395 269.5C397.418 265.756 398.569 263.517 400.5 259.5C402.244 255.872 403.335 253.853 404.5 250C405.764 245.821 405.916 243.327 406.5 239C407.102 234.532 406.5 227.5 407.5 227.5C409.433 227.5 410.069 232.421 412 232.5C412.804 232.533 413 229 413 226C413 223 412.77 223.092 412.5 219C412.215 214.674 411.944 212.9 411.5 209C410.697 201.949 410.187 197.997 409 191C408.135 185.903 407 179.5 406.5 178C406 176.5 405.453 176.31 404.5 175.5C402.758 174.02 401.167 174.227 399 173.5C395.72 172.399 393.889 171.698 390.5 171C387.606 170.404 385.81 170.913 383 170C381.586 169.541 378.811 169.818 379.5 168.5C379.904 167.726 381 167.5 381.5 167.5C382 167.5 389.727 166.84 395 167C400.69 167.173 406 168 409.5 168.5C413 169 416.489 170.118 421 171C425.474 171.874 434 173 434 172C434 171 430.337 170.798 428 170C424.669 168.863 419.5 167 419.5 167C419.5 167 416.385 165.933 414.5 165C413.089 164.301 411 163.5 411 163C411 162.5 413.138 162.879 414.5 163C416.906 163.213 418.152 163.932 420.5 164.5C424.782 165.536 427.111 166.624 431.5 167C434.224 167.233 435.876 167.765 438.5 167C440.177 166.511 441.01 165.911 442.5 165C444.166 163.982 446.183 163.927 446.5 162C446.662 161.018 447.5 160 446 159.5C444.5 159 444.383 158.719 443.5 158C442.318 157.037 441.794 156.302 441 155C440.225 153.731 439.68 152.976 439.5 151.5C439.333 150.129 439.337 149.211 440 148C440.53 147.031 441.138 146.691 442 146C443.228 145.015 443.5 145 445.5 144C447.5 143 447 143 445 141.5L444.791 141.343C442.769 139.828 439.498 137.376 436.5 134.5C434.007 132.109 432.677 130.682 430.5 128C428.382 125.392 426 122 425.5 121C425 120 427.242 115.876 428 112.5C428.478 110.37 428.849 109.178 429 107C429.094 105.636 429.175 104.856 429 103.5C428.586 100.295 427.166 98.7696 425.5 96C422.365 90.7889 419.647 88.4231 415 84.5C411.895 81.8788 409.948 80.6489 406.5 78.5C401.83 75.5901 399.13 73.9895 394 72C387.818 69.6026 380.5 68 377.5 68C374.5 68 375.5 70 375.5 70C375.5 70 376.168 72.1179 376.5 73.5C377.055 75.8096 377.5 77 377.5 79.5C377.5 82 377.01 84 375 84C372.99 84 372.5 79.5 372.5 79.5C372.5 79.5 369.782 75.2179 368 72.5C366.456 70.1448 365.684 68.7573 364 66.5C361.518 63.1724 359.929 61.8194 357 58.5L349.5 50C346.571 46.6805 342 43.5 342 43.5C342 43.5 337.957 40.2285 335 41C332.991 41.5239 332.406 42.4735 331 44C329.677 45.4359 329.002 46.3238 328 48C326.288 50.8642 325.5 52.5 324.5 56L324.479 56.0727C323.49 59.5354 322.764 62.0761 322 66C321.171 70.2556 320.799 72.6748 320.5 77C320.19 81.4804 320.026 84.0341 320.5 88.5C320.985 93.0702 321.792 95.5656 323 100C323.86 103.158 326 107.611 325.5 108C323.805 109.32 321.889 106.978 320 108C318.142 109.005 318.072 110.68 317 112.5C315.67 114.757 314 118.5 314 118.5C312.243 123.186 310.854 125.682 309.5 130.5C308.049 135.662 307.976 138.728 307 144C306.024 149.272 307.5 151.5 305.5 154.5C303.5 157.5 297.473 162.345 292 167C287.447 170.872 285.072 173.338 280 176.5C276.812 178.487 274.975 179.575 271.5 181C267.554 182.618 265.142 182.987 261 184C249.707 186.762 243.606 187.024 231.5 188C231.5 188 212.606 189.517 200.5 190.5C190.932 191.277 185.463 190.886 176 192.5C169.277 193.647 165.483 194.383 159 196.5C152.76 198.538 149.207 199.758 143.5 203C138.033 206.106 135.116 208.23 130.5 212.5C127.559 215.221 128.186 216.095 123.5 220L111.5 230C106.814 233.905 105.769 235.572 102.5 239.5C98.3756 244.455 96.4046 247.526 92.9999 253C86.5889 263.308 84.3026 269.851 79.4999 281C75.684 289.858 74.3278 295.147 70.4999 304C66.2021 313.94 62.7957 321.385 58.4999 329C58.4999 329 51.038 340.504 47.4999 348.5C44.3266 355.671 42.553 359.813 40.9999 367.5C39.6415 374.223 39.3274 378.143 39.4999 385C39.6333 390.303 39.6298 393.375 40.9999 398.5C42.0864 402.563 43.4999 408.5 44.9999 408.5C46.5 408.5 48.046 403.39 50.4999 400.5C52.466 398.185 53.6904 396.973 55.9999 395C58.5542 392.818 60.2359 391.909 62.9999 390C65.8963 387.999 67.4549 386.766 70.4999 385C73.5215 383.247 75.5926 382.936 78.4999 381C80.8099 379.462 81.8915 378.304 83.9999 376.5Z" fill="white"/>
<path d="M381.977 122.252C380.895 122.011 377.923 121.29 376.279 120.304C374.244 119.083 384.013 116.64 384.013 116.64C388.948 115.227 391.594 114.941 396.037 115.009C396.16 115.011 396.283 115.036 396.396 115.083C402.179 117.489 405.811 122.819 406.966 130.442C407.092 131.272 406.167 131.838 405.441 131.416C404.327 130.767 402.981 130.073 402.329 130.073H391.111C390.989 130.073 390.872 130.05 390.758 130.005C386.445 128.314 384.969 126.262 382.614 122.688C382.467 122.465 382.238 122.31 381.977 122.252Z" fill="#B4B4B4"/>
<circle cx="390.525" cy="121.118" r="3.25633" fill="white"/>
<path d="M426.907 43.3845C431.521 44.8101 428.814 67.5862 426.287 85.0338C426.169 85.8474 425.175 86.1746 424.593 85.5933L421.729 82.7292C421.58 82.5802 421.481 82.3926 421.454 82.1837C420.914 78.0392 422.106 70.2647 423.097 64.1789C423.277 63.0719 421.838 62.5955 421.315 63.5874L415.027 75.5004C414.747 76.0316 414.065 76.1975 413.572 75.8545L403.744 69.0176C403.322 68.7239 403.189 68.1603 403.445 67.7144C410.065 56.2002 422.225 41.9377 426.907 43.3845Z" fill="white"/>
<path d="M330.232 74.9014C330.002 81.5619 331.044 89.8091 335.85 97.5621C336.243 98.1961 337.166 98.1519 337.584 97.5341C339.106 95.2842 340.9 94.0385 344.184 92.6357C344.722 92.4062 344.962 91.7728 344.716 91.2428C343.419 88.4501 342.959 86.3571 343.048 83.1192C343.067 82.4043 343.828 81.9693 344.467 82.2906L348.531 84.3341C349.263 84.7019 350.095 84.0885 349.929 83.2866C347.225 70.2433 338.771 52.2635 335.111 53.3611C331.267 54.5141 330.474 67.8485 330.232 74.9014Z" fill="#B4B4B4"/>
<path d="M218 296.5C226.686 297.751 239 303.5 239 304.5C239 305.5 237.302 315.08 235 321.5C233.26 326.353 232.059 329.025 229.5 333.5C226.514 338.722 224.032 341.131 220.5 346C216.808 351.09 214.563 353.819 211 359C207.962 363.418 205.239 365.428 203.5 370.5C202.219 374.235 202.219 376.557 202 380.5C201.87 382.84 201.5 384.5 202 386.5C202.5 388.5 205.528 397.643 208.5 404.5C211.104 410.509 216 419 216 419.5C216 420 218.737 420.431 220.5 421C224.38 422.253 227.194 421.614 230.5 424C232.63 425.538 233.895 426.617 235 429C236 431.155 236 434.5 236 435C236 435.5 235.039 430.165 233 428C231.848 426.777 231.174 425.362 229.5 425.5C228.885 425.551 228 425.5 228 426C228 426.5 231 431 231 431C231 431 233.278 433.915 233 436C232.861 437.042 232.5 438.069 232 438.5C231.5 438.931 226 439 225.5 439C225 439 224.941 436.351 224.5 435C223.983 433.414 223.969 432.358 223 431C221.865 429.411 220.838 428.66 219 428C217.882 427.598 216.5 427 216 427.5C215.5 428 218.116 429.432 219 431C220.001 432.776 220.262 433.975 220.5 436C220.659 437.358 221 439.5 220.5 439.5C220 439.5 215.6 439.889 212.5 439.5C208.881 439.045 205 438 203.5 437C202 436 200.876 433.144 199.5 430.5C197.19 426.06 196.765 423.183 195 418.5C192.864 412.833 191.604 409.679 189.5 404C186.689 396.413 185.002 392.195 182.5 384.5C180.609 378.684 178 371 178 369.5C178 368 181.929 363.556 184 359.5C186.589 354.43 187.568 351.355 189.5 346C191.239 341.179 192.528 338.532 193.5 333.5C194.318 329.265 194.428 326.813 194.5 322.5C194.588 317.214 194.214 314.238 193.5 309C193.045 305.66 192 301.5 192 300.5C192 299.5 197.037 297.945 200.5 297C207.096 295.199 211.233 295.526 218 296.5Z" fill="white"/>
<path d="M339 319C340 318 348.037 315.237 351.5 314.292C351.5 314.292 357.044 312.113 360.5 310.5C365.725 308.062 372.943 303.5 373.5 303.5C374.5 303.5 372.233 313.246 371.5 319.5C370.654 326.718 370.162 330.763 369.5 338C368.769 345.994 368 348.151 368 358.5C368 368.849 367.63 374.658 368 385C368.238 391.646 367.789 395.461 369 402C369.811 406.378 372 413 372 413C372 413 375.5 424.084 377 424.792C378.5 425.5 380.737 424.931 382.5 425.5C386.38 426.753 388.194 426.905 391.5 429.292C394.806 431.678 396 434.5 396 435C396 435.5 390.5 430.792 390.5 430.792C389.885 430.842 389 430.792 389 431.292C389 431.792 392.5 435.792 392.5 435.792C392.5 435.792 394.278 439.207 394 441.292C393.861 442.334 393.5 443.361 393 443.792C392.5 444.223 387 444.292 386.5 444.292C386 444.292 385.941 441.643 385.5 440.292C384.983 438.706 384.969 437.649 384 436.292C382.865 434.703 381.838 433.952 380 433.292C378.882 432.89 377.5 432.292 377 432.792C376.5 433.292 379.116 434.723 380 436.292C381.001 438.068 381.262 439.267 381.5 441.292C381.659 442.649 382 444.792 381.5 444.792C381 444.792 376.6 445.181 373.5 444.792C369.881 444.337 366 443.292 364.5 442.292C363 441.292 361.376 438.936 360 436.292C357.69 431.852 357.765 428.475 356 423.792C356 423.792 352.828 418.307 351.5 414.5C348.722 406.538 350.434 401.381 349.5 393C348.65 385.37 348.066 381.103 347 373.5C345.435 362.341 342.5 345 342.5 345C342.5 345 340.455 336.34 340 333C339.545 329.66 338 320 339 319Z" fill="white"/>
</svg>
